<?xml version="1.0" encoding="utf-8" standalone="no"?>
<!DOCTYPE svg PUBLIC "-//W3C//DTD SVG 1.1//EN"
  "http://www.w3.org/Graphics/SVG/1.1/DTD/svg11.dtd">
<!-- Created with matplotlib (https://matplotlib.org/) -->
<svg height="576pt" version="1.1" viewBox="0 0 1440 576" width="1440pt" xmlns="http://www.w3.org/2000/svg" xmlns:xlink="http://www.w3.org/1999/xlink">
 <defs>
  <style type="text/css">
*{stroke-linecap:butt;stroke-linejoin:round;}
  </style>
 </defs>
 <g id="figure_1">
  <g id="patch_1">
   <path d="M 0 576 
L 1440 576 
L 1440 0 
L 0 0 
z
" style="fill:#ffffff;"/>
  </g>
  <g id="axes_1">
   <g id="patch_2">
    <path d="M 102.436641 477.071992 
L 1414.08 477.071992 
L 1414.08 50.92 
L 102.436641 50.92 
z
" style="fill:#ffffff;"/>
   </g>
   <g id="matplotlib.axis_1">
    <g id="xtick_1">
     <g id="line2d_1">
      <path clip-path="url(#p85aae8f09c)" d="M 162.056793 477.071992 
L 162.056793 50.92 
" style="fill:none;stroke:#cccccc;stroke-linecap:round;stroke-opacity:0.5;stroke-width:0.5;"/>
     </g>
     <g id="text_1">
      <!-- 2020-01 -->
      <defs>
       <path d="M 19.1875 8.296875 
L 53.609375 8.296875 
L 53.609375 0 
L 7.328125 0 
L 7.328125 8.296875 
Q 12.9375 14.109375 22.625 23.890625 
Q 32.328125 33.6875 34.8125 36.53125 
Q 39.546875 41.84375 41.421875 45.53125 
Q 43.3125 49.21875 43.3125 52.78125 
Q 43.3125 58.59375 39.234375 62.25 
Q 35.15625 65.921875 28.609375 65.921875 
Q 23.96875 65.921875 18.8125 64.3125 
Q 13.671875 62.703125 7.8125 59.421875 
L 7.8125 69.390625 
Q 13.765625 71.78125 18.9375 73 
Q 24.125 74.21875 28.421875 74.21875 
Q 39.75 74.21875 46.484375 68.546875 
Q 53.21875 62.890625 53.21875 53.421875 
Q 53.21875 48.921875 51.53125 44.890625 
Q 49.859375 40.875 45.40625 35.40625 
Q 44.1875 33.984375 37.640625 27.21875 
Q 31.109375 20.453125 19.1875 8.296875 
z
" id="DejaVuSans-50"/>
       <path d="M 31.78125 66.40625 
Q 24.171875 66.40625 20.328125 58.90625 
Q 16.5 51.421875 16.5 36.375 
Q 16.5 21.390625 20.328125 13.890625 
Q 24.171875 6.390625 31.78125 6.390625 
Q 39.453125 6.390625 43.28125 13.890625 
Q 47.125 21.390625 47.125 36.375 
Q 47.125 51.421875 43.28125 58.90625 
Q 39.453125 66.40625 31.78125 66.40625 
z
M 31.78125 74.21875 
Q 44.046875 74.21875 50.515625 64.515625 
Q 56.984375 54.828125 56.984375 36.375 
Q 56.984375 17.96875 50.515625 8.265625 
Q 44.046875 -1.421875 31.78125 -1.421875 
Q 19.53125 -1.421875 13.0625 8.265625 
Q 6.59375 17.96875 6.59375 36.375 
Q 6.59375 54.828125 13.0625 64.515625 
Q 19.53125 74.21875 31.78125 74.21875 
z
" id="DejaVuSans-48"/>
       <path d="M 4.890625 31.390625 
L 31.203125 31.390625 
L 31.203125 23.390625 
L 4.890625 23.390625 
z
" id="DejaVuSans-45"/>
       <path d="M 12.40625 8.296875 
L 28.515625 8.296875 
L 28.515625 63.921875 
L 10.984375 60.40625 
L 10.984375 69.390625 
L 28.421875 72.90625 
L 38.28125 72.90625 
L 38.28125 8.296875 
L 54.390625 8.296875 
L 54.390625 0 
L 12.40625 0 
z
" id="DejaVuSans-49"/>
      </defs>
      <g style="fill:#262626;" transform="translate(125.288631 547.010053)rotate(-30)scale(0.22 -0.22)">
       <use xlink:href="#DejaVuSans-50"/>
       <use x="63.623047" xlink:href="#DejaVuSans-48"/>
       <use x="127.246094" xlink:href="#DejaVuSans-50"/>
       <use x="190.869141" xlink:href="#DejaVuSans-48"/>
       <use x="254.492188" xlink:href="#DejaVuSans-45"/>
       <use x="290.576172" xlink:href="#DejaVuSans-48"/>
       <use x="354.199219" xlink:href="#DejaVuSans-49"/>
      </g>
     </g>
    </g>
    <g id="xtick_2">
     <g id="line2d_2">
      <path clip-path="url(#p85aae8f09c)" d="M 199.319389 477.071992 
L 199.319389 50.92 
" style="fill:none;stroke:#cccccc;stroke-linecap:round;stroke-opacity:0.5;stroke-width:0.5;"/>
     </g>
     <g id="text_2">
      <!-- 2020-02 -->
      <g style="fill:#262626;" transform="translate(162.551226 547.010053)rotate(-30)scale(0.22 -0.22)">
       <use xlink:href="#DejaVuSans-50"/>
       <use x="63.623047" xlink:href="#DejaVuSans-48"/>
       <use x="127.246094" xlink:href="#DejaVuSans-50"/>
       <use x="190.869141" xlink:href="#DejaVuSans-48"/>
       <use x="254.492188" xlink:href="#DejaVuSans-45"/>
       <use x="290.576172" xlink:href="#DejaVuSans-48"/>
       <use x="354.199219" xlink:href="#DejaVuSans-50"/>
      </g>
     </g>
    </g>
    <g id="xtick_3">
     <g id="line2d_3">
      <path clip-path="url(#p85aae8f09c)" d="M 236.581984 477.071992 
L 236.581984 50.92 
" style="fill:none;stroke:#cccccc;stroke-linecap:round;stroke-opacity:0.5;stroke-width:0.5;"/>
     </g>
     <g id="text_3">
      <!-- 2020-03 -->
      <defs>
       <path d="M 40.578125 39.3125 
Q 47.65625 37.796875 51.625 33 
Q 55.609375 28.21875 55.609375 21.1875 
Q 55.609375 10.40625 48.1875 4.484375 
Q 40.765625 -1.421875 27.09375 -1.421875 
Q 22.515625 -1.421875 17.65625 -0.515625 
Q 12.796875 0.390625 7.625 2.203125 
L 7.625 11.71875 
Q 11.71875 9.328125 16.59375 8.109375 
Q 21.484375 6.890625 26.8125 6.890625 
Q 36.078125 6.890625 40.9375 10.546875 
Q 45.796875 14.203125 45.796875 21.1875 
Q 45.796875 27.640625 41.28125 31.265625 
Q 36.765625 34.90625 28.71875 34.90625 
L 20.21875 34.90625 
L 20.21875 43.015625 
L 29.109375 43.015625 
Q 36.375 43.015625 40.234375 45.921875 
Q 44.09375 48.828125 44.09375 54.296875 
Q 44.09375 59.90625 40.109375 62.90625 
Q 36.140625 65.921875 28.71875 65.921875 
Q 24.65625 65.921875 20.015625 65.03125 
Q 15.375 64.15625 9.8125 62.3125 
L 9.8125 71.09375 
Q 15.4375 72.65625 20.34375 73.4375 
Q 25.25 74.21875 29.59375 74.21875 
Q 40.828125 74.21875 47.359375 69.109375 
Q 53.90625 64.015625 53.90625 55.328125 
Q 53.90625 49.265625 50.4375 45.09375 
Q 46.96875 40.921875 40.578125 39.3125 
z
" id="DejaVuSans-51"/>
      </defs>
      <g style="fill:#262626;" transform="translate(199.813822 547.010053)rotate(-30)scale(0.22 -0.22)">
       <use xlink:href="#DejaVuSans-50"/>
       <use x="63.623047" xlink:href="#DejaVuSans-48"/>
       <use x="127.246094" xlink:href="#DejaVuSans-50"/>
       <use x="190.869141" xlink:href="#DejaVuSans-48"/>
       <use x="254.492188" xlink:href="#DejaVuSans-45"/>
       <use x="290.576172" xlink:href="#DejaVuSans-48"/>
       <use x="354.199219" xlink:href="#DejaVuSans-51"/>
      </g>
     </g>
    </g>
    <g id="xtick_4">
     <g id="line2d_4">
      <path clip-path="url(#p85aae8f09c)" d="M 273.84458 477.071992 
L 273.84458 50.92 
" style="fill:none;stroke:#cccccc;stroke-linecap:round;stroke-opacity:0.5;stroke-width:0.5;"/>
     </g>
     <g id="text_4">
      <!-- 2020-04 -->
      <defs>
       <path d="M 37.796875 64.3125 
L 12.890625 25.390625 
L 37.796875 25.390625 
z
M 35.203125 72.90625 
L 47.609375 72.90625 
L 47.609375 25.390625 
L 58.015625 25.390625 
L 58.015625 17.1875 
L 47.609375 17.1875 
L 47.609375 0 
L 37.796875 0 
L 37.796875 17.1875 
L 4.890625 17.1875 
L 4.890625 26.703125 
z
" id="DejaVuSans-52"/>
      </defs>
      <g style="fill:#262626;" transform="translate(237.076417 547.010053)rotate(-30)scale(0.22 -0.22)">
       <use xlink:href="#DejaVuSans-50"/>
       <use x="63.623047" xlink:href="#DejaVuSans-48"/>
       <use x="127.246094" xlink:href="#DejaVuSans-50"/>
       <use x="190.869141" xlink:href="#DejaVuSans-48"/>
       <use x="254.492188" xlink:href="#DejaVuSans-45"/>
       <use x="290.576172" xlink:href="#DejaVuSans-48"/>
       <use x="354.199219" xlink:href="#DejaVuSans-52"/>
      </g>
     </g>
    </g>
    <g id="xtick_5">
     <g id="line2d_5">
      <path clip-path="url(#p85aae8f09c)" d="M 311.107175 477.071992 
L 311.107175 50.92 
" style="fill:none;stroke:#cccccc;stroke-linecap:round;stroke-opacity:0.5;stroke-width:0.5;"/>
     </g>
     <g id="text_5">
      <!-- 2020-05 -->
      <defs>
       <path d="M 10.796875 72.90625 
L 49.515625 72.90625 
L 49.515625 64.59375 
L 19.828125 64.59375 
L 19.828125 46.734375 
Q 21.96875 47.46875 24.109375 47.828125 
Q 26.265625 48.1875 28.421875 48.1875 
Q 40.625 48.1875 47.75 41.5 
Q 54.890625 34.8125 54.890625 23.390625 
Q 54.890625 11.625 47.5625 5.09375 
Q 40.234375 -1.421875 26.90625 -1.421875 
Q 22.3125 -1.421875 17.546875 -0.640625 
Q 12.796875 0.140625 7.71875 1.703125 
L 7.71875 11.625 
Q 12.109375 9.234375 16.796875 8.0625 
Q 21.484375 6.890625 26.703125 6.890625 
Q 35.15625 6.890625 40.078125 11.328125 
Q 45.015625 15.765625 45.015625 23.390625 
Q 45.015625 31 40.078125 35.4375 
Q 35.15625 39.890625 26.703125 39.890625 
Q 22.75 39.890625 18.8125 39.015625 
Q 14.890625 38.140625 10.796875 36.28125 
z
" id="DejaVuSans-53"/>
      </defs>
      <g style="fill:#262626;" transform="translate(274.339013 547.010053)rotate(-30)scale(0.22 -0.22)">
       <use xlink:href="#DejaVuSans-50"/>
       <use x="63.623047" xlink:href="#DejaVuSans-48"/>
       <use x="127.246094" xlink:href="#DejaVuSans-50"/>
       <use x="190.869141" xlink:href="#DejaVuSans-48"/>
       <use x="254.492188" xlink:href="#DejaVuSans-45"/>
       <use x="290.576172" xlink:href="#DejaVuSans-48"/>
       <use x="354.199219" xlink:href="#DejaVuSans-53"/>
      </g>
     </g>
    </g>
    <g id="xtick_6">
     <g id="line2d_6">
      <path clip-path="url(#p85aae8f09c)" d="M 348.369771 477.071992 
L 348.369771 50.92 
" style="fill:none;stroke:#cccccc;stroke-linecap:round;stroke-opacity:0.5;stroke-width:0.5;"/>
     </g>
     <g id="text_6">
      <!-- 2020-06 -->
      <defs>
       <path d="M 33.015625 40.375 
Q 26.375 40.375 22.484375 35.828125 
Q 18.609375 31.296875 18.609375 23.390625 
Q 18.609375 15.53125 22.484375 10.953125 
Q 26.375 6.390625 33.015625 6.390625 
Q 39.65625 6.390625 43.53125 10.953125 
Q 47.40625 15.53125 47.40625 23.390625 
Q 47.40625 31.296875 43.53125 35.828125 
Q 39.65625 40.375 33.015625 40.375 
z
M 52.59375 71.296875 
L 52.59375 62.3125 
Q 48.875 64.0625 45.09375 64.984375 
Q 41.3125 65.921875 37.59375 65.921875 
Q 27.828125 65.921875 22.671875 59.328125 
Q 17.53125 52.734375 16.796875 39.40625 
Q 19.671875 43.65625 24.015625 45.921875 
Q 28.375 48.1875 33.59375 48.1875 
Q 44.578125 48.1875 50.953125 41.515625 
Q 57.328125 34.859375 57.328125 23.390625 
Q 57.328125 12.15625 50.6875 5.359375 
Q 44.046875 -1.421875 33.015625 -1.421875 
Q 20.359375 -1.421875 13.671875 8.265625 
Q 6.984375 17.96875 6.984375 36.375 
Q 6.984375 53.65625 15.1875 63.9375 
Q 23.390625 74.21875 37.203125 74.21875 
Q 40.921875 74.21875 44.703125 73.484375 
Q 48.484375 72.75 52.59375 71.296875 
z
" id="DejaVuSans-54"/>
      </defs>
      <g style="fill:#262626;" transform="translate(311.601608 547.010053)rotate(-30)scale(0.22 -0.22)">
       <use xlink:href="#DejaVuSans-50"/>
       <use x="63.623047" xlink:href="#DejaVuSans-48"/>
       <use x="127.246094" xlink:href="#DejaVuSans-50"/>
       <use x="190.869141" xlink:href="#DejaVuSans-48"/>
       <use x="254.492188" xlink:href="#DejaVuSans-45"/>
       <use x="290.576172" xlink:href="#DejaVuSans-48"/>
       <use x="354.199219" xlink:href="#DejaVuSans-54"/>
      </g>
     </g>
    </g>
    <g id="xtick_7">
     <g id="line2d_7">
      <path clip-path="url(#p85aae8f09c)" d="M 385.632366 477.071992 
L 385.632366 50.92 
" style="fill:none;stroke:#cccccc;stroke-linecap:round;stroke-opacity:0.5;stroke-width:0.5;"/>
     </g>
     <g id="text_7">
      <!-- 2020-07 -->
      <defs>
       <path d="M 8.203125 72.90625 
L 55.078125 72.90625 
L 55.078125 68.703125 
L 28.609375 0 
L 18.3125 0 
L 43.21875 64.59375 
L 8.203125 64.59375 
z
" id="DejaVuSans-55"/>
      </defs>
      <g style="fill:#262626;" transform="translate(348.864204 547.010053)rotate(-30)scale(0.22 -0.22)">
       <use xlink:href="#DejaVuSans-50"/>
       <use x="63.623047" xlink:href="#DejaVuSans-48"/>
       <use x="127.246094" xlink:href="#DejaVuSans-50"/>
       <use x="190.869141" xlink:href="#DejaVuSans-48"/>
       <use x="254.492188" xlink:href="#DejaVuSans-45"/>
       <use x="290.576172" xlink:href="#DejaVuSans-48"/>
       <use x="354.199219" xlink:href="#DejaVuSans-55"/>
      </g>
     </g>
    </g>
    <g id="xtick_8">
     <g id="line2d_8">
      <path clip-path="url(#p85aae8f09c)" d="M 422.894961 477.071992 
L 422.894961 50.92 
" style="fill:none;stroke:#cccccc;stroke-linecap:round;stroke-opacity:0.5;stroke-width:0.5;"/>
     </g>
     <g id="text_8">
      <!-- 2020-08 -->
      <defs>
       <path d="M 31.78125 34.625 
Q 24.75 34.625 20.71875 30.859375 
Q 16.703125 27.09375 16.703125 20.515625 
Q 16.703125 13.921875 20.71875 10.15625 
Q 24.75 6.390625 31.78125 6.390625 
Q 38.8125 6.390625 42.859375 10.171875 
Q 46.921875 13.96875 46.921875 20.515625 
Q 46.921875 27.09375 42.890625 30.859375 
Q 38.875 34.625 31.78125 34.625 
z
M 21.921875 38.8125 
Q 15.578125 40.375 12.03125 44.71875 
Q 8.5 49.078125 8.5 55.328125 
Q 8.5 64.0625 14.71875 69.140625 
Q 20.953125 74.21875 31.78125 74.21875 
Q 42.671875 74.21875 48.875 69.140625 
Q 55.078125 64.0625 55.078125 55.328125 
Q 55.078125 49.078125 51.53125 44.71875 
Q 48 40.375 41.703125 38.8125 
Q 48.828125 37.15625 52.796875 32.3125 
Q 56.78125 27.484375 56.78125 20.515625 
Q 56.78125 9.90625 50.3125 4.234375 
Q 43.84375 -1.421875 31.78125 -1.421875 
Q 19.734375 -1.421875 13.25 4.234375 
Q 6.78125 9.90625 6.78125 20.515625 
Q 6.78125 27.484375 10.78125 32.3125 
Q 14.796875 37.15625 21.921875 38.8125 
z
M 18.3125 54.390625 
Q 18.3125 48.734375 21.84375 45.5625 
Q 25.390625 42.390625 31.78125 42.390625 
Q 38.140625 42.390625 41.71875 45.5625 
Q 45.3125 48.734375 45.3125 54.390625 
Q 45.3125 60.0625 41.71875 63.234375 
Q 38.140625 66.40625 31.78125 66.40625 
Q 25.390625 66.40625 21.84375 63.234375 
Q 18.3125 60.0625 18.3125 54.390625 
z
" id="DejaVuSans-56"/>
      </defs>
      <g style="fill:#262626;" transform="translate(386.126799 547.010053)rotate(-30)scale(0.22 -0.22)">
       <use xlink:href="#DejaVuSans-50"/>
       <use x="63.623047" xlink:href="#DejaVuSans-48"/>
       <use x="127.246094" xlink:href="#DejaVuSans-50"/>
       <use x="190.869141" xlink:href="#DejaVuSans-48"/>
       <use x="254.492188" xlink:href="#DejaVuSans-45"/>
       <use x="290.576172" xlink:href="#DejaVuSans-48"/>
       <use x="354.199219" xlink:href="#DejaVuSans-56"/>
      </g>
     </g>
    </g>
    <g id="xtick_9">
     <g id="line2d_9">
      <path clip-path="url(#p85aae8f09c)" d="M 460.157557 477.071992 
L 460.157557 50.92 
" style="fill:none;stroke:#cccccc;stroke-linecap:round;stroke-opacity:0.5;stroke-width:0.5;"/>
     </g>
     <g id="text_9">
      <!-- 2020-09 -->
      <defs>
       <path d="M 10.984375 1.515625 
L 10.984375 10.5 
Q 14.703125 8.734375 18.5 7.8125 
Q 22.3125 6.890625 25.984375 6.890625 
Q 35.75 6.890625 40.890625 13.453125 
Q 46.046875 20.015625 46.78125 33.40625 
Q 43.953125 29.203125 39.59375 26.953125 
Q 35.25 24.703125 29.984375 24.703125 
Q 19.046875 24.703125 12.671875 31.3125 
Q 6.296875 37.9375 6.296875 49.421875 
Q 6.296875 60.640625 12.9375 67.421875 
Q 19.578125 74.21875 30.609375 74.21875 
Q 43.265625 74.21875 49.921875 64.515625 
Q 56.59375 54.828125 56.59375 36.375 
Q 56.59375 19.140625 48.40625 8.859375 
Q 40.234375 -1.421875 26.421875 -1.421875 
Q 22.703125 -1.421875 18.890625 -0.6875 
Q 15.09375 0.046875 10.984375 1.515625 
z
M 30.609375 32.421875 
Q 37.25 32.421875 41.125 36.953125 
Q 45.015625 41.5 45.015625 49.421875 
Q 45.015625 57.28125 41.125 61.84375 
Q 37.25 66.40625 30.609375 66.40625 
Q 23.96875 66.40625 20.09375 61.84375 
Q 16.21875 57.28125 16.21875 49.421875 
Q 16.21875 41.5 20.09375 36.953125 
Q 23.96875 32.421875 30.609375 32.421875 
z
" id="DejaVuSans-57"/>
      </defs>
      <g style="fill:#262626;" transform="translate(423.389395 547.010053)rotate(-30)scale(0.22 -0.22)">
       <use xlink:href="#DejaVuSans-50"/>
       <use x="63.623047" xlink:href="#DejaVuSans-48"/>
       <use x="127.246094" xlink:href="#DejaVuSans-50"/>
       <use x="190.869141" xlink:href="#DejaVuSans-48"/>
       <use x="254.492188" xlink:href="#DejaVuSans-45"/>
       <use x="290.576172" xlink:href="#DejaVuSans-48"/>
       <use x="354.199219" xlink:href="#DejaVuSans-57"/>
      </g>
     </g>
    </g>
    <g id="xtick_10">
     <g id="line2d_10">
      <path clip-path="url(#p85aae8f09c)" d="M 497.420152 477.071992 
L 497.420152 50.92 
" style="fill:none;stroke:#cccccc;stroke-linecap:round;stroke-opacity:0.5;stroke-width:0.5;"/>
     </g>
     <g id="text_10">
      <!-- 2020-10 -->
      <g style="fill:#262626;" transform="translate(460.65199 547.010053)rotate(-30)scale(0.22 -0.22)">
       <use xlink:href="#DejaVuSans-50"/>
       <use x="63.623047" xlink:href="#DejaVuSans-48"/>
       <use x="127.246094" xlink:href="#DejaVuSans-50"/>
       <use x="190.869141" xlink:href="#DejaVuSans-48"/>
       <use x="254.492188" xlink:href="#DejaVuSans-45"/>
       <use x="290.576172" xlink:href="#DejaVuSans-49"/>
       <use x="354.199219" xlink:href="#DejaVuSans-48"/>
      </g>
     </g>
    </g>
    <g id="xtick_11">
     <g id="line2d_11">
      <path clip-path="url(#p85aae8f09c)" d="M 534.682748 477.071992 
L 534.682748 50.92 
" style="fill:none;stroke:#cccccc;stroke-linecap:round;stroke-opacity:0.5;stroke-width:0.5;"/>
     </g>
     <g id="text_11">
      <!-- 2020-11 -->
      <g style="fill:#262626;" transform="translate(497.914585 547.010053)rotate(-30)scale(0.22 -0.22)">
       <use xlink:href="#DejaVuSans-50"/>
       <use x="63.623047" xlink:href="#DejaVuSans-48"/>
       <use x="127.246094" xlink:href="#DejaVuSans-50"/>
       <use x="190.869141" xlink:href="#DejaVuSans-48"/>
       <use x="254.492188" xlink:href="#DejaVuSans-45"/>
       <use x="290.576172" xlink:href="#DejaVuSans-49"/>
       <use x="354.199219" xlink:href="#DejaVuSans-49"/>
      </g>
     </g>
    </g>
    <g id="xtick_12">
     <g id="line2d_12">
      <path clip-path="url(#p85aae8f09c)" d="M 571.945343 477.071992 
L 571.945343 50.92 
" style="fill:none;stroke:#cccccc;stroke-linecap:round;stroke-opacity:0.5;stroke-width:0.5;"/>
     </g>
     <g id="text_12">
      <!-- 2020-12 -->
      <g style="fill:#262626;" transform="translate(535.177181 547.010053)rotate(-30)scale(0.22 -0.22)">
       <use xlink:href="#DejaVuSans-50"/>
       <use x="63.623047" xlink:href="#DejaVuSans-48"/>
       <use x="127.246094" xlink:href="#DejaVuSans-50"/>
       <use x="190.869141" xlink:href="#DejaVuSans-48"/>
       <use x="254.492188" xlink:href="#DejaVuSans-45"/>
       <use x="290.576172" xlink:href="#DejaVuSans-49"/>
       <use x="354.199219" xlink:href="#DejaVuSans-50"/>
      </g>
     </g>
    </g>
    <g id="xtick_13">
     <g id="line2d_13">
      <path clip-path="url(#p85aae8f09c)" d="M 609.207939 477.071992 
L 609.207939 50.92 
" style="fill:none;stroke:#cccccc;stroke-linecap:round;stroke-opacity:0.5;stroke-width:0.5;"/>
     </g>
     <g id="text_13">
      <!-- 2021-01 -->
      <g style="fill:#262626;" transform="translate(572.439776 547.010053)rotate(-30)scale(0.22 -0.22)">
       <use xlink:href="#DejaVuSans-50"/>
       <use x="63.623047" xlink:href="#DejaVuSans-48"/>
       <use x="127.246094" xlink:href="#DejaVuSans-50"/>
       <use x="190.869141" xlink:href="#DejaVuSans-49"/>
       <use x="254.492188" xlink:href="#DejaVuSans-45"/>
       <use x="290.576172" xlink:href="#DejaVuSans-48"/>
       <use x="354.199219" xlink:href="#DejaVuSans-49"/>
      </g>
     </g>
    </g>
    <g id="xtick_14">
     <g id="line2d_14">
      <path clip-path="url(#p85aae8f09c)" d="M 646.470534 477.071992 
L 646.470534 50.92 
" style="fill:none;stroke:#cccccc;stroke-linecap:round;stroke-opacity:0.5;stroke-width:0.5;"/>
     </g>
     <g id="text_14">
      <!-- 2021-02 -->
      <g style="fill:#262626;" transform="translate(609.702372 547.010053)rotate(-30)scale(0.22 -0.22)">
       <use xlink:href="#DejaVuSans-50"/>
       <use x="63.623047" xlink:href="#DejaVuSans-48"/>
       <use x="127.246094" xlink:href="#DejaVuSans-50"/>
       <use x="190.869141" xlink:href="#DejaVuSans-49"/>
       <use x="254.492188" xlink:href="#DejaVuSans-45"/>
       <use x="290.576172" xlink:href="#DejaVuSans-48"/>
       <use x="354.199219" xlink:href="#DejaVuSans-50"/>
      </g>
     </g>
    </g>
    <g id="xtick_15">
     <g id="line2d_15">
      <path clip-path="url(#p85aae8f09c)" d="M 683.733129 477.071992 
L 683.733129 50.92 
" style="fill:none;stroke:#cccccc;stroke-linecap:round;stroke-opacity:0.5;stroke-width:0.5;"/>
     </g>
     <g id="text_15">
      <!-- 2021-03 -->
      <g style="fill:#262626;" transform="translate(646.964967 547.010053)rotate(-30)scale(0.22 -0.22)">
       <use xlink:href="#DejaVuSans-50"/>
       <use x="63.623047" xlink:href="#DejaVuSans-48"/>
       <use x="127.246094" xlink:href="#DejaVuSans-50"/>
       <use x="190.869141" xlink:href="#DejaVuSans-49"/>
       <use x="254.492188" xlink:href="#DejaVuSans-45"/>
       <use x="290.576172" xlink:href="#DejaVuSans-48"/>
       <use x="354.199219" xlink:href="#DejaVuSans-51"/>
      </g>
     </g>
    </g>
    <g id="xtick_16">
     <g id="line2d_16">
      <path clip-path="url(#p85aae8f09c)" d="M 720.995725 477.071992 
L 720.995725 50.92 
" style="fill:none;stroke:#cccccc;stroke-linecap:round;stroke-opacity:0.5;stroke-width:0.5;"/>
     </g>
     <g id="text_16">
      <!-- 2021-04 -->
      <g style="fill:#262626;" transform="translate(684.227563 547.010053)rotate(-30)scale(0.22 -0.22)">
       <use xlink:href="#DejaVuSans-50"/>
       <use x="63.623047" xlink:href="#DejaVuSans-48"/>
       <use x="127.246094" xlink:href="#DejaVuSans-50"/>
       <use x="190.869141" xlink:href="#DejaVuSans-49"/>
       <use x="254.492188" xlink:href="#DejaVuSans-45"/>
       <use x="290.576172" xlink:href="#DejaVuSans-48"/>
       <use x="354.199219" xlink:href="#DejaVuSans-52"/>
      </g>
     </g>
    </g>
    <g id="xtick_17">
     <g id="line2d_17">
      <path clip-path="url(#p85aae8f09c)" d="M 758.25832 477.071992 
L 758.25832 50.92 
" style="fill:none;stroke:#cccccc;stroke-linecap:round;stroke-opacity:0.5;stroke-width:0.5;"/>
     </g>
     <g id="text_17">
      <!-- 2021-05 -->
      <g style="fill:#262626;" transform="translate(721.490158 547.010053)rotate(-30)scale(0.22 -0.22)">
       <use xlink:href="#DejaVuSans-50"/>
       <use x="63.623047" xlink:href="#DejaVuSans-48"/>
       <use x="127.246094" xlink:href="#DejaVuSans-50"/>
       <use x="190.869141" xlink:href="#DejaVuSans-49"/>
       <use x="254.492188" xlink:href="#DejaVuSans-45"/>
       <use x="290.576172" xlink:href="#DejaVuSans-48"/>
       <use x="354.199219" xlink:href="#DejaVuSans-53"/>
      </g>
     </g>
    </g>
    <g id="xtick_18">
     <g id="line2d_18">
      <path clip-path="url(#p85aae8f09c)" d="M 795.520916 477.071992 
L 795.520916 50.92 
" style="fill:none;stroke:#cccccc;stroke-linecap:round;stroke-opacity:0.5;stroke-width:0.5;"/>
     </g>
     <g id="text_18">
      <!-- 2021-06 -->
      <g style="fill:#262626;" transform="translate(758.752753 547.010053)rotate(-30)scale(0.22 -0.22)">
       <use xlink:href="#DejaVuSans-50"/>
       <use x="63.623047" xlink:href="#DejaVuSans-48"/>
       <use x="127.246094" xlink:href="#DejaVuSans-50"/>
       <use x="190.869141" xlink:href="#DejaVuSans-49"/>
       <use x="254.492188" xlink:href="#DejaVuSans-45"/>
       <use x="290.576172" xlink:href="#DejaVuSans-48"/>
       <use x="354.199219" xlink:href="#DejaVuSans-54"/>
      </g>
     </g>
    </g>
    <g id="xtick_19">
     <g id="line2d_19">
      <path clip-path="url(#p85aae8f09c)" d="M 832.783511 477.071992 
L 832.783511 50.92 
" style="fill:none;stroke:#cccccc;stroke-linecap:round;stroke-opacity:0.5;stroke-width:0.5;"/>
     </g>
     <g id="text_19">
      <!-- 2021-07 -->
      <g style="fill:#262626;" transform="translate(796.015349 547.010053)rotate(-30)scale(0.22 -0.22)">
       <use xlink:href="#DejaVuSans-50"/>
       <use x="63.623047" xlink:href="#DejaVuSans-48"/>
       <use x="127.246094" xlink:href="#DejaVuSans-50"/>
       <use x="190.869141" xlink:href="#DejaVuSans-49"/>
       <use x="254.492188" xlink:href="#DejaVuSans-45"/>
       <use x="290.576172" xlink:href="#DejaVuSans-48"/>
       <use x="354.199219" xlink:href="#DejaVuSans-55"/>
      </g>
     </g>
    </g>
    <g id="xtick_20">
     <g id="line2d_20">
      <path clip-path="url(#p85aae8f09c)" d="M 870.046107 477.071992 
L 870.046107 50.92 
" style="fill:none;stroke:#cccccc;stroke-linecap:round;stroke-opacity:0.5;stroke-width:0.5;"/>
     </g>
     <g id="text_20">
      <!-- 2021-08 -->
      <g style="fill:#262626;" transform="translate(833.277944 547.010053)rotate(-30)scale(0.22 -0.22)">
       <use xlink:href="#DejaVuSans-50"/>
       <use x="63.623047" xlink:href="#DejaVuSans-48"/>
       <use x="127.246094" xlink:href="#DejaVuSans-50"/>
       <use x="190.869141" xlink:href="#DejaVuSans-49"/>
       <use x="254.492188" xlink:href="#DejaVuSans-45"/>
       <use x="290.576172" xlink:href="#DejaVuSans-48"/>
       <use x="354.199219" xlink:href="#DejaVuSans-56"/>
      </g>
     </g>
    </g>
    <g id="xtick_21">
     <g id="line2d_21">
      <path clip-path="url(#p85aae8f09c)" d="M 907.308702 477.071992 
L 907.308702 50.92 
" style="fill:none;stroke:#cccccc;stroke-linecap:round;stroke-opacity:0.5;stroke-width:0.5;"/>
     </g>
     <g id="text_21">
      <!-- 2021-09 -->
      <g style="fill:#262626;" transform="translate(870.54054 547.010053)rotate(-30)scale(0.22 -0.22)">
       <use xlink:href="#DejaVuSans-50"/>
       <use x="63.623047" xlink:href="#DejaVuSans-48"/>
       <use x="127.246094" xlink:href="#DejaVuSans-50"/>
       <use x="190.869141" xlink:href="#DejaVuSans-49"/>
       <use x="254.492188" xlink:href="#DejaVuSans-45"/>
       <use x="290.576172" xlink:href="#DejaVuSans-48"/>
       <use x="354.199219" xlink:href="#DejaVuSans-57"/>
      </g>
     </g>
    </g>
    <g id="xtick_22">
     <g id="line2d_22">
      <path clip-path="url(#p85aae8f09c)" d="M 944.571297 477.071992 
L 944.571297 50.92 
" style="fill:none;stroke:#cccccc;stroke-linecap:round;stroke-opacity:0.5;stroke-width:0.5;"/>
     </g>
     <g id="text_22">
      <!-- 2021-10 -->
      <g style="fill:#262626;" transform="translate(907.803135 547.010053)rotate(-30)scale(0.22 -0.22)">
       <use xlink:href="#DejaVuSans-50"/>
       <use x="63.623047" xlink:href="#DejaVuSans-48"/>
       <use x="127.246094" xlink:href="#DejaVuSans-50"/>
       <use x="190.869141" xlink:href="#DejaVuSans-49"/>
       <use x="254.492188" xlink:href="#DejaVuSans-45"/>
       <use x="290.576172" xlink:href="#DejaVuSans-49"/>
       <use x="354.199219" xlink:href="#DejaVuSans-48"/>
      </g>
     </g>
    </g>
    <g id="xtick_23">
     <g id="line2d_23">
      <path clip-path="url(#p85aae8f09c)" d="M 981.833893 477.071992 
L 981.833893 50.92 
" style="fill:none;stroke:#cccccc;stroke-linecap:round;stroke-opacity:0.5;stroke-width:0.5;"/>
     </g>
     <g id="text_23">
      <!-- 2021-11 -->
      <g style="fill:#262626;" transform="translate(945.065731 547.010053)rotate(-30)scale(0.22 -0.22)">
       <use xlink:href="#DejaVuSans-50"/>
       <use x="63.623047" xlink:href="#DejaVuSans-48"/>
       <use x="127.246094" xlink:href="#DejaVuSans-50"/>
       <use x="190.869141" xlink:href="#DejaVuSans-49"/>
       <use x="254.492188" xlink:href="#DejaVuSans-45"/>
       <use x="290.576172" xlink:href="#DejaVuSans-49"/>
       <use x="354.199219" xlink:href="#DejaVuSans-49"/>
      </g>
     </g>
    </g>
    <g id="xtick_24">
     <g id="line2d_24">
      <path clip-path="url(#p85aae8f09c)" d="M 1019.096488 477.071992 
L 1019.096488 50.92 
" style="fill:none;stroke:#cccccc;stroke-linecap:round;stroke-opacity:0.5;stroke-width:0.5;"/>
     </g>
     <g id="text_24">
      <!-- 2021-12 -->
      <g style="fill:#262626;" transform="translate(982.328326 547.010053)rotate(-30)scale(0.22 -0.22)">
       <use xlink:href="#DejaVuSans-50"/>
       <use x="63.623047" xlink:href="#DejaVuSans-48"/>
       <use x="127.246094" xlink:href="#DejaVuSans-50"/>
       <use x="190.869141" xlink:href="#DejaVuSans-49"/>
       <use x="254.492188" xlink:href="#DejaVuSans-45"/>
       <use x="290.576172" xlink:href="#DejaVuSans-49"/>
       <use x="354.199219" xlink:href="#DejaVuSans-50"/>
      </g>
     </g>
    </g>
    <g id="xtick_25">
     <g id="line2d_25">
      <path clip-path="url(#p85aae8f09c)" d="M 1056.359084 477.071992 
L 1056.359084 50.92 
" style="fill:none;stroke:#cccccc;stroke-linecap:round;stroke-opacity:0.5;stroke-width:0.5;"/>
     </g>
     <g id="text_25">
      <!-- 2022-01 -->
      <g style="fill:#262626;" transform="translate(1019.590922 547.010053)rotate(-30)scale(0.22 -0.22)">
       <use xlink:href="#DejaVuSans-50"/>
       <use x="63.623047" xlink:href="#DejaVuSans-48"/>
       <use x="127.246094" xlink:href="#DejaVuSans-50"/>
       <use x="190.869141" xlink:href="#DejaVuSans-50"/>
       <use x="254.492188" xlink:href="#DejaVuSans-45"/>
       <use x="290.576172" xlink:href="#DejaVuSans-48"/>
       <use x="354.199219" xlink:href="#DejaVuSans-49"/>
      </g>
     </g>
    </g>
    <g id="xtick_26">
     <g id="line2d_26">
      <path clip-path="url(#p85aae8f09c)" d="M 1093.621679 477.071992 
L 1093.621679 50.92 
" style="fill:none;stroke:#cccccc;stroke-linecap:round;stroke-opacity:0.5;stroke-width:0.5;"/>
     </g>
     <g id="text_26">
      <!-- 2022-02 -->
      <g style="fill:#262626;" transform="translate(1056.853517 547.010053)rotate(-30)scale(0.22 -0.22)">
       <use xlink:href="#DejaVuSans-50"/>
       <use x="63.623047" xlink:href="#DejaVuSans-48"/>
       <use x="127.246094" xlink:href="#DejaVuSans-50"/>
       <use x="190.869141" xlink:href="#DejaVuSans-50"/>
       <use x="254.492188" xlink:href="#DejaVuSans-45"/>
       <use x="290.576172" xlink:href="#DejaVuSans-48"/>
       <use x="354.199219" xlink:href="#DejaVuSans-50"/>
      </g>
     </g>
    </g>
    <g id="xtick_27">
     <g id="line2d_27">
      <path clip-path="url(#p85aae8f09c)" d="M 1130.884275 477.071992 
L 1130.884275 50.92 
" style="fill:none;stroke:#cccccc;stroke-linecap:round;stroke-opacity:0.5;stroke-width:0.5;"/>
     </g>
     <g id="text_27">
      <!-- 2022-03 -->
      <g style="fill:#262626;" transform="translate(1094.116112 547.010053)rotate(-30)scale(0.22 -0.22)">
       <use xlink:href="#DejaVuSans-50"/>
       <use x="63.623047" xlink:href="#DejaVuSans-48"/>
       <use x="127.246094" xlink:href="#DejaVuSans-50"/>
       <use x="190.869141" xlink:href="#DejaVuSans-50"/>
       <use x="254.492188" xlink:href="#DejaVuSans-45"/>
       <use x="290.576172" xlink:href="#DejaVuSans-48"/>
       <use x="354.199219" xlink:href="#DejaVuSans-51"/>
      </g>
     </g>
    </g>
    <g id="xtick_28">
     <g id="line2d_28">
      <path clip-path="url(#p85aae8f09c)" d="M 1168.14687 477.071992 
L 1168.14687 50.92 
" style="fill:none;stroke:#cccccc;stroke-linecap:round;stroke-opacity:0.5;stroke-width:0.5;"/>
     </g>
     <g id="text_28">
      <!-- 2022-04 -->
      <g style="fill:#262626;" transform="translate(1131.378708 547.010053)rotate(-30)scale(0.22 -0.22)">
       <use xlink:href="#DejaVuSans-50"/>
       <use x="63.623047" xlink:href="#DejaVuSans-48"/>
       <use x="127.246094" xlink:href="#DejaVuSans-50"/>
       <use x="190.869141" xlink:href="#DejaVuSans-50"/>
       <use x="254.492188" xlink:href="#DejaVuSans-45"/>
       <use x="290.576172" xlink:href="#DejaVuSans-48"/>
       <use x="354.199219" xlink:href="#DejaVuSans-52"/>
      </g>
     </g>
    </g>
    <g id="xtick_29">
     <g id="line2d_29">
      <path clip-path="url(#p85aae8f09c)" d="M 1205.409466 477.071992 
L 1205.409466 50.92 
" style="fill:none;stroke:#cccccc;stroke-linecap:round;stroke-opacity:0.5;stroke-width:0.5;"/>
     </g>
     <g id="text_29">
      <!-- 2022-05 -->
      <g style="fill:#262626;" transform="translate(1168.641303 547.010053)rotate(-30)scale(0.22 -0.22)">
       <use xlink:href="#DejaVuSans-50"/>
       <use x="63.623047" xlink:href="#DejaVuSans-48"/>
       <use x="127.246094" xlink:href="#DejaVuSans-50"/>
       <use x="190.869141" xlink:href="#DejaVuSans-50"/>
       <use x="254.492188" xlink:href="#DejaVuSans-45"/>
       <use x="290.576172" xlink:href="#DejaVuSans-48"/>
       <use x="354.199219" xlink:href="#DejaVuSans-53"/>
      </g>
     </g>
    </g>
    <g id="xtick_30">
     <g id="line2d_30">
      <path clip-path="url(#p85aae8f09c)" d="M 1242.672061 477.071992 
L 1242.672061 50.92 
" style="fill:none;stroke:#cccccc;stroke-linecap:round;stroke-opacity:0.5;stroke-width:0.5;"/>
     </g>
     <g id="text_30">
      <!-- 2022-06 -->
      <g style="fill:#262626;" transform="translate(1205.903899 547.010053)rotate(-30)scale(0.22 -0.22)">
       <use xlink:href="#DejaVuSans-50"/>
       <use x="63.623047" xlink:href="#DejaVuSans-48"/>
       <use x="127.246094" xlink:href="#DejaVuSans-50"/>
       <use x="190.869141" xlink:href="#DejaVuSans-50"/>
       <use x="254.492188" xlink:href="#DejaVuSans-45"/>
       <use x="290.576172" xlink:href="#DejaVuSans-48"/>
       <use x="354.199219" xlink:href="#DejaVuSans-54"/>
      </g>
     </g>
    </g>
    <g id="xtick_31">
     <g id="line2d_31">
      <path clip-path="url(#p85aae8f09c)" d="M 1279.934656 477.071992 
L 1279.934656 50.92 
" style="fill:none;stroke:#cccccc;stroke-linecap:round;stroke-opacity:0.5;stroke-width:0.5;"/>
     </g>
     <g id="text_31">
      <!-- 2022-07 -->
      <g style="fill:#262626;" transform="translate(1243.166494 547.010053)rotate(-30)scale(0.22 -0.22)">
       <use xlink:href="#DejaVuSans-50"/>
       <use x="63.623047" xlink:href="#DejaVuSans-48"/>
       <use x="127.246094" xlink:href="#DejaVuSans-50"/>
       <use x="190.869141" xlink:href="#DejaVuSans-50"/>
       <use x="254.492188" xlink:href="#DejaVuSans-45"/>
       <use x="290.576172" xlink:href="#DejaVuSans-48"/>
       <use x="354.199219" xlink:href="#DejaVuSans-55"/>
      </g>
     </g>
    </g>
    <g id="xtick_32">
     <g id="line2d_32">
      <path clip-path="url(#p85aae8f09c)" d="M 1317.197252 477.071992 
L 1317.197252 50.92 
" style="fill:none;stroke:#cccccc;stroke-linecap:round;stroke-opacity:0.5;stroke-width:0.5;"/>
     </g>
     <g id="text_32">
      <!-- 2022-08 -->
      <g style="fill:#262626;" transform="translate(1280.42909 547.010053)rotate(-30)scale(0.22 -0.22)">
       <use xlink:href="#DejaVuSans-50"/>
       <use x="63.623047" xlink:href="#DejaVuSans-48"/>
       <use x="127.246094" xlink:href="#DejaVuSans-50"/>
       <use x="190.869141" xlink:href="#DejaVuSans-50"/>
       <use x="254.492188" xlink:href="#DejaVuSans-45"/>
       <use x="290.576172" xlink:href="#DejaVuSans-48"/>
       <use x="354.199219" xlink:href="#DejaVuSans-56"/>
      </g>
     </g>
    </g>
    <g id="xtick_33">
     <g id="line2d_33">
      <path clip-path="url(#p85aae8f09c)" d="M 1354.459847 477.071992 
L 1354.459847 50.92 
" style="fill:none;stroke:#cccccc;stroke-linecap:round;stroke-opacity:0.5;stroke-width:0.5;"/>
     </g>
     <g id="text_33">
      <!-- 2022-09 -->
      <g style="fill:#262626;" transform="translate(1317.691685 547.010053)rotate(-30)scale(0.22 -0.22)">
       <use xlink:href="#DejaVuSans-50"/>
       <use x="63.623047" xlink:href="#DejaVuSans-48"/>
       <use x="127.246094" xlink:href="#DejaVuSans-50"/>
       <use x="190.869141" xlink:href="#DejaVuSans-50"/>
       <use x="254.492188" xlink:href="#DejaVuSans-45"/>
       <use x="290.576172" xlink:href="#DejaVuSans-48"/>
       <use x="354.199219" xlink:href="#DejaVuSans-57"/>
      </g>
     </g>
    </g>
    <g id="xtick_34"/>
    <g id="xtick_35"/>
    <g id="xtick_36"/>
    <g id="xtick_37"/>
    <g id="xtick_38"/>
    <g id="xtick_39"/>
    <g id="xtick_40"/>
    <g id="xtick_41"/>
    <g id="xtick_42"/>
    <g id="xtick_43"/>
    <g id="xtick_44"/>
    <g id="xtick_45"/>
    <g id="xtick_46"/>
    <g id="xtick_47"/>
    <g id="xtick_48"/>
    <g id="xtick_49"/>
    <g id="xtick_50"/>
    <g id="xtick_51"/>
    <g id="xtick_52"/>
    <g id="xtick_53"/>
    <g id="xtick_54"/>
    <g id="xtick_55"/>
    <g id="xtick_56"/>
    <g id="xtick_57"/>
    <g id="xtick_58"/>
    <g id="xtick_59"/>
    <g id="xtick_60"/>
    <g id="xtick_61"/>
    <g id="xtick_62"/>
    <g id="xtick_63"/>
    <g id="xtick_64"/>
    <g id="xtick_65"/>
    <g id="xtick_66"/>
    <g id="xtick_67"/>
    <g id="xtick_68"/>
    <g id="xtick_69"/>
    <g id="xtick_70"/>
    <g id="xtick_71"/>
    <g id="xtick_72"/>
    <g id="xtick_73"/>
    <g id="xtick_74"/>
    <g id="xtick_75"/>
    <g id="xtick_76"/>
    <g id="xtick_77"/>
    <g id="xtick_78"/>
    <g id="xtick_79"/>
    <g id="xtick_80"/>
    <g id="xtick_81"/>
    <g id="xtick_82"/>
    <g id="xtick_83"/>
    <g id="xtick_84"/>
    <g id="xtick_85"/>
    <g id="xtick_86"/>
    <g id="xtick_87"/>
    <g id="xtick_88"/>
    <g id="xtick_89"/>
    <g id="xtick_90"/>
    <g id="xtick_91"/>
    <g id="xtick_92"/>
    <g id="xtick_93"/>
    <g id="xtick_94"/>
    <g id="xtick_95"/>
    <g id="xtick_96"/>
    <g id="xtick_97"/>
    <g id="xtick_98"/>
    <g id="xtick_99"/>
    <g id="xtick_100"/>
    <g id="xtick_101"/>
    <g id="xtick_102"/>
    <g id="xtick_103"/>
    <g id="xtick_104"/>
    <g id="xtick_105"/>
    <g id="xtick_106"/>
    <g id="xtick_107"/>
    <g id="xtick_108"/>
    <g id="xtick_109"/>
    <g id="xtick_110"/>
    <g id="xtick_111"/>
    <g id="xtick_112"/>
    <g id="xtick_113"/>
    <g id="xtick_114"/>
    <g id="xtick_115"/>
    <g id="xtick_116"/>
    <g id="xtick_117"/>
    <g id="xtick_118"/>
    <g id="xtick_119"/>
    <g id="xtick_120"/>
    <g id="xtick_121"/>
    <g id="xtick_122"/>
    <g id="xtick_123"/>
    <g id="xtick_124"/>
    <g id="xtick_125"/>
    <g id="xtick_126"/>
    <g id="xtick_127"/>
    <g id="xtick_128"/>
    <g id="xtick_129"/>
    <g id="xtick_130"/>
    <g id="xtick_131"/>
    <g id="xtick_132"/>
    <g id="xtick_133"/>
    <g id="xtick_134"/>
    <g id="xtick_135"/>
    <g id="xtick_136"/>
    <g id="xtick_137"/>
    <g id="xtick_138"/>
    <g id="xtick_139"/>
    <g id="xtick_140"/>
    <g id="xtick_141"/>
    <g id="xtick_142"/>
    <g id="xtick_143"/>
    <g id="xtick_144"/>
    <g id="xtick_145"/>
    <g id="xtick_146"/>
    <g id="xtick_147"/>
    <g id="xtick_148"/>
    <g id="xtick_149"/>
    <g id="xtick_150"/>
    <g id="xtick_151"/>
    <g id="xtick_152"/>
    <g id="xtick_153"/>
    <g id="xtick_154"/>
    <g id="xtick_155"/>
    <g id="xtick_156"/>
    <g id="xtick_157"/>
    <g id="xtick_158"/>
    <g id="xtick_159"/>
    <g id="xtick_160"/>
    <g id="xtick_161"/>
    <g id="xtick_162"/>
    <g id="xtick_163"/>
    <g id="xtick_164"/>
    <g id="xtick_165"/>
    <g id="xtick_166"/>
    <g id="xtick_167"/>
    <g id="xtick_168"/>
    <g id="xtick_169"/>
    <g id="xtick_170"/>
    <g id="xtick_171"/>
    <g id="xtick_172"/>
    <g id="xtick_173"/>
    <g id="xtick_174"/>
    <g id="xtick_175"/>
   </g>
   <g id="matplotlib.axis_2">
    <g id="ytick_1">
     <g id="line2d_34">
      <path clip-path="url(#p85aae8f09c)" d="M 102.436641 349.99049 
L 1414.08 349.99049 
" style="fill:none;stroke:#cccccc;stroke-linecap:round;"/>
     </g>
     <g id="text_34">
      <!-- $\mathdefault{10^{3}}$ -->
      <g style="fill:#262626;" transform="translate(54.216641 358.348771)scale(0.22 -0.22)">
       <use transform="translate(0 0.765625)" xlink:href="#DejaVuSans-49"/>
       <use transform="translate(63.623047 0.765625)" xlink:href="#DejaVuSans-48"/>
       <use transform="translate(128.203125 39.046875)scale(0.7)" xlink:href="#DejaVuSans-51"/>
      </g>
     </g>
    </g>
    <g id="ytick_2">
     <g id="line2d_35">
      <path clip-path="url(#p85aae8f09c)" d="M 102.436641 206.762926 
L 1414.08 206.762926 
" style="fill:none;stroke:#cccccc;stroke-linecap:round;"/>
     </g>
     <g id="text_35">
      <!-- $\mathdefault{10^{4}}$ -->
      <g style="fill:#262626;" transform="translate(54.216641 215.121207)scale(0.22 -0.22)">
       <use transform="translate(0 0.684375)" xlink:href="#DejaVuSans-49"/>
       <use transform="translate(63.623047 0.684375)" xlink:href="#DejaVuSans-48"/>
       <use transform="translate(128.203125 38.965625)scale(0.7)" xlink:href="#DejaVuSans-52"/>
      </g>
     </g>
    </g>
    <g id="ytick_3">
     <g id="line2d_36">
      <path clip-path="url(#p85aae8f09c)" d="M 102.436641 63.535363 
L 1414.08 63.535363 
" style="fill:none;stroke:#cccccc;stroke-linecap:round;"/>
     </g>
     <g id="text_36">
      <!-- $\mathdefault{10^{5}}$ -->
      <g style="fill:#262626;" transform="translate(54.216641 71.893644)scale(0.22 -0.22)">
       <use transform="translate(0 0.684375)" xlink:href="#DejaVuSans-49"/>
       <use transform="translate(63.623047 0.684375)" xlink:href="#DejaVuSans-48"/>
       <use transform="translate(128.203125 38.965625)scale(0.7)" xlink:href="#DejaVuSans-53"/>
      </g>
     </g>
    </g>
    <g id="ytick_4">
     <g id="line2d_37">
      <path clip-path="url(#p85aae8f09c)" d="M 102.436641 450.102261 
L 1414.08 450.102261 
" style="fill:none;stroke:#cccccc;stroke-dasharray:1.85,0.8;stroke-dashoffset:0;stroke-opacity:0.5;stroke-width:0.5;"/>
     </g>
    </g>
    <g id="ytick_5">
     <g id="line2d_38">
      <path clip-path="url(#p85aae8f09c)" d="M 102.436641 424.881139 
L 1414.08 424.881139 
" style="fill:none;stroke:#cccccc;stroke-dasharray:1.85,0.8;stroke-dashoffset:0;stroke-opacity:0.5;stroke-width:0.5;"/>
     </g>
    </g>
    <g id="ytick_6">
     <g id="line2d_39">
      <path clip-path="url(#p85aae8f09c)" d="M 102.436641 406.986468 
L 1414.08 406.986468 
" style="fill:none;stroke:#cccccc;stroke-dasharray:1.85,0.8;stroke-dashoffset:0;stroke-opacity:0.5;stroke-width:0.5;"/>
     </g>
    </g>
    <g id="ytick_7">
     <g id="line2d_40">
      <path clip-path="url(#p85aae8f09c)" d="M 102.436641 393.106283 
L 1414.08 393.106283 
" style="fill:none;stroke:#cccccc;stroke-dasharray:1.85,0.8;stroke-dashoffset:0;stroke-opacity:0.5;stroke-width:0.5;"/>
     </g>
    </g>
    <g id="ytick_8">
     <g id="line2d_41">
      <path clip-path="url(#p85aae8f09c)" d="M 102.436641 381.765346 
L 1414.08 381.765346 
" style="fill:none;stroke:#cccccc;stroke-dasharray:1.85,0.8;stroke-dashoffset:0;stroke-opacity:0.5;stroke-width:0.5;"/>
     </g>
    </g>
    <g id="ytick_9">
     <g id="line2d_42">
      <path clip-path="url(#p85aae8f09c)" d="M 102.436641 372.17672 
L 1414.08 372.17672 
" style="fill:none;stroke:#cccccc;stroke-dasharray:1.85,0.8;stroke-dashoffset:0;stroke-opacity:0.5;stroke-width:0.5;"/>
     </g>
    </g>
    <g id="ytick_10">
     <g id="line2d_43">
      <path clip-path="url(#p85aae8f09c)" d="M 102.436641 363.870675 
L 1414.08 363.870675 
" style="fill:none;stroke:#cccccc;stroke-dasharray:1.85,0.8;stroke-dashoffset:0;stroke-opacity:0.5;stroke-width:0.5;"/>
     </g>
    </g>
    <g id="ytick_11">
     <g id="line2d_44">
      <path clip-path="url(#p85aae8f09c)" d="M 102.436641 356.544224 
L 1414.08 356.544224 
" style="fill:none;stroke:#cccccc;stroke-dasharray:1.85,0.8;stroke-dashoffset:0;stroke-opacity:0.5;stroke-width:0.5;"/>
     </g>
    </g>
    <g id="ytick_12">
     <g id="line2d_45">
      <path clip-path="url(#p85aae8f09c)" d="M 102.436641 306.874697 
L 1414.08 306.874697 
" style="fill:none;stroke:#cccccc;stroke-dasharray:1.85,0.8;stroke-dashoffset:0;stroke-opacity:0.5;stroke-width:0.5;"/>
     </g>
    </g>
    <g id="ytick_13">
     <g id="line2d_46">
      <path clip-path="url(#p85aae8f09c)" d="M 102.436641 281.653575 
L 1414.08 281.653575 
" style="fill:none;stroke:#cccccc;stroke-dasharray:1.85,0.8;stroke-dashoffset:0;stroke-opacity:0.5;stroke-width:0.5;"/>
     </g>
    </g>
    <g id="ytick_14">
     <g id="line2d_47">
      <path clip-path="url(#p85aae8f09c)" d="M 102.436641 263.758904 
L 1414.08 263.758904 
" style="fill:none;stroke:#cccccc;stroke-dasharray:1.85,0.8;stroke-dashoffset:0;stroke-opacity:0.5;stroke-width:0.5;"/>
     </g>
    </g>
    <g id="ytick_15">
     <g id="line2d_48">
      <path clip-path="url(#p85aae8f09c)" d="M 102.436641 249.878719 
L 1414.08 249.878719 
" style="fill:none;stroke:#cccccc;stroke-dasharray:1.85,0.8;stroke-dashoffset:0;stroke-opacity:0.5;stroke-width:0.5;"/>
     </g>
    </g>
    <g id="ytick_16">
     <g id="line2d_49">
      <path clip-path="url(#p85aae8f09c)" d="M 102.436641 238.537782 
L 1414.08 238.537782 
" style="fill:none;stroke:#cccccc;stroke-dasharray:1.85,0.8;stroke-dashoffset:0;stroke-opacity:0.5;stroke-width:0.5;"/>
     </g>
    </g>
    <g id="ytick_17">
     <g id="line2d_50">
      <path clip-path="url(#p85aae8f09c)" d="M 102.436641 228.949157 
L 1414.08 228.949157 
" style="fill:none;stroke:#cccccc;stroke-dasharray:1.85,0.8;stroke-dashoffset:0;stroke-opacity:0.5;stroke-width:0.5;"/>
     </g>
    </g>
    <g id="ytick_18">
     <g id="line2d_51">
      <path clip-path="url(#p85aae8f09c)" d="M 102.436641 220.643111 
L 1414.08 220.643111 
" style="fill:none;stroke:#cccccc;stroke-dasharray:1.85,0.8;stroke-dashoffset:0;stroke-opacity:0.5;stroke-width:0.5;"/>
     </g>
    </g>
    <g id="ytick_19">
     <g id="line2d_52">
      <path clip-path="url(#p85aae8f09c)" d="M 102.436641 213.31666 
L 1414.08 213.31666 
" style="fill:none;stroke:#cccccc;stroke-dasharray:1.85,0.8;stroke-dashoffset:0;stroke-opacity:0.5;stroke-width:0.5;"/>
     </g>
    </g>
    <g id="ytick_20">
     <g id="line2d_53">
      <path clip-path="url(#p85aae8f09c)" d="M 102.436641 163.647133 
L 1414.08 163.647133 
" style="fill:none;stroke:#cccccc;stroke-dasharray:1.85,0.8;stroke-dashoffset:0;stroke-opacity:0.5;stroke-width:0.5;"/>
     </g>
    </g>
    <g id="ytick_21">
     <g id="line2d_54">
      <path clip-path="url(#p85aae8f09c)" d="M 102.436641 138.426011 
L 1414.08 138.426011 
" style="fill:none;stroke:#cccccc;stroke-dasharray:1.85,0.8;stroke-dashoffset:0;stroke-opacity:0.5;stroke-width:0.5;"/>
     </g>
    </g>
    <g id="ytick_22">
     <g id="line2d_55">
      <path clip-path="url(#p85aae8f09c)" d="M 102.436641 120.53134 
L 1414.08 120.53134 
" style="fill:none;stroke:#cccccc;stroke-dasharray:1.85,0.8;stroke-dashoffset:0;stroke-opacity:0.5;stroke-width:0.5;"/>
     </g>
    </g>
    <g id="ytick_23">
     <g id="line2d_56">
      <path clip-path="url(#p85aae8f09c)" d="M 102.436641 106.651155 
L 1414.08 106.651155 
" style="fill:none;stroke:#cccccc;stroke-dasharray:1.85,0.8;stroke-dashoffset:0;stroke-opacity:0.5;stroke-width:0.5;"/>
     </g>
    </g>
    <g id="ytick_24">
     <g id="line2d_57">
      <path clip-path="url(#p85aae8f09c)" d="M 102.436641 95.310218 
L 1414.08 95.310218 
" style="fill:none;stroke:#cccccc;stroke-dasharray:1.85,0.8;stroke-dashoffset:0;stroke-opacity:0.5;stroke-width:0.5;"/>
     </g>
    </g>
    <g id="ytick_25">
     <g id="line2d_58">
      <path clip-path="url(#p85aae8f09c)" d="M 102.436641 85.721593 
L 1414.08 85.721593 
" style="fill:none;stroke:#cccccc;stroke-dasharray:1.85,0.8;stroke-dashoffset:0;stroke-opacity:0.5;stroke-width:0.5;"/>
     </g>
    </g>
    <g id="ytick_26">
     <g id="line2d_59">
      <path clip-path="url(#p85aae8f09c)" d="M 102.436641 77.415548 
L 1414.08 77.415548 
" style="fill:none;stroke:#cccccc;stroke-dasharray:1.85,0.8;stroke-dashoffset:0;stroke-opacity:0.5;stroke-width:0.5;"/>
     </g>
    </g>
    <g id="ytick_27">
     <g id="line2d_60">
      <path clip-path="url(#p85aae8f09c)" d="M 102.436641 70.089096 
L 1414.08 70.089096 
" style="fill:none;stroke:#cccccc;stroke-dasharray:1.85,0.8;stroke-dashoffset:0;stroke-opacity:0.5;stroke-width:0.5;"/>
     </g>
    </g>
    <g id="text_37">
     <!-- Number of unique mutations -->
     <defs>
      <path d="M 9.8125 72.90625 
L 23.09375 72.90625 
L 55.421875 11.921875 
L 55.421875 72.90625 
L 64.984375 72.90625 
L 64.984375 0 
L 51.703125 0 
L 19.390625 60.984375 
L 19.390625 0 
L 9.8125 0 
z
" id="DejaVuSans-78"/>
      <path d="M 8.5 21.578125 
L 8.5 54.6875 
L 17.484375 54.6875 
L 17.484375 21.921875 
Q 17.484375 14.15625 20.5 10.265625 
Q 23.53125 6.390625 29.59375 6.390625 
Q 36.859375 6.390625 41.078125 11.03125 
Q 45.3125 15.671875 45.3125 23.6875 
L 45.3125 54.6875 
L 54.296875 54.6875 
L 54.296875 0 
L 45.3125 0 
L 45.3125 8.40625 
Q 42.046875 3.421875 37.71875 1 
Q 33.40625 -1.421875 27.6875 -1.421875 
Q 18.265625 -1.421875 13.375 4.4375 
Q 8.5 10.296875 8.5 21.578125 
z
M 31.109375 56 
z
" id="DejaVuSans-117"/>
      <path d="M 52 44.1875 
Q 55.375 50.25 60.0625 53.125 
Q 64.75 56 71.09375 56 
Q 79.640625 56 84.28125 50.015625 
Q 88.921875 44.046875 88.921875 33.015625 
L 88.921875 0 
L 79.890625 0 
L 79.890625 32.71875 
Q 79.890625 40.578125 77.09375 44.375 
Q 74.3125 48.1875 68.609375 48.1875 
Q 61.625 48.1875 57.5625 43.546875 
Q 53.515625 38.921875 53.515625 30.90625 
L 53.515625 0 
L 44.484375 0 
L 44.484375 32.71875 
Q 44.484375 40.625 41.703125 44.40625 
Q 38.921875 48.1875 33.109375 48.1875 
Q 26.21875 48.1875 22.15625 43.53125 
Q 18.109375 38.875 18.109375 30.90625 
L 18.109375 0 
L 9.078125 0 
L 9.078125 54.6875 
L 18.109375 54.6875 
L 18.109375 46.1875 
Q 21.1875 51.21875 25.484375 53.609375 
Q 29.78125 56 35.6875 56 
Q 41.65625 56 45.828125 52.96875 
Q 50 49.953125 52 44.1875 
z
" id="DejaVuSans-109"/>
      <path d="M 48.6875 27.296875 
Q 48.6875 37.203125 44.609375 42.84375 
Q 40.53125 48.484375 33.40625 48.484375 
Q 26.265625 48.484375 22.1875 42.84375 
Q 18.109375 37.203125 18.109375 27.296875 
Q 18.109375 17.390625 22.1875 11.75 
Q 26.265625 6.109375 33.40625 6.109375 
Q 40.53125 6.109375 44.609375 11.75 
Q 48.6875 17.390625 48.6875 27.296875 
z
M 18.109375 46.390625 
Q 20.953125 51.265625 25.265625 53.625 
Q 29.59375 56 35.59375 56 
Q 45.5625 56 51.78125 48.09375 
Q 58.015625 40.1875 58.015625 27.296875 
Q 58.015625 14.40625 51.78125 6.484375 
Q 45.5625 -1.421875 35.59375 -1.421875 
Q 29.59375 -1.421875 25.265625 0.953125 
Q 20.953125 3.328125 18.109375 8.203125 
L 18.109375 0 
L 9.078125 0 
L 9.078125 75.984375 
L 18.109375 75.984375 
z
" id="DejaVuSans-98"/>
      <path d="M 56.203125 29.59375 
L 56.203125 25.203125 
L 14.890625 25.203125 
Q 15.484375 15.921875 20.484375 11.0625 
Q 25.484375 6.203125 34.421875 6.203125 
Q 39.59375 6.203125 44.453125 7.46875 
Q 49.3125 8.734375 54.109375 11.28125 
L 54.109375 2.78125 
Q 49.265625 0.734375 44.1875 -0.34375 
Q 39.109375 -1.421875 33.890625 -1.421875 
Q 20.796875 -1.421875 13.15625 6.1875 
Q 5.515625 13.8125 5.515625 26.8125 
Q 5.515625 40.234375 12.765625 48.109375 
Q 20.015625 56 32.328125 56 
Q 43.359375 56 49.78125 48.890625 
Q 56.203125 41.796875 56.203125 29.59375 
z
M 47.21875 32.234375 
Q 47.125 39.59375 43.09375 43.984375 
Q 39.0625 48.390625 32.421875 48.390625 
Q 24.90625 48.390625 20.390625 44.140625 
Q 15.875 39.890625 15.1875 32.171875 
z
" id="DejaVuSans-101"/>
      <path d="M 41.109375 46.296875 
Q 39.59375 47.171875 37.8125 47.578125 
Q 36.03125 48 33.890625 48 
Q 26.265625 48 22.1875 43.046875 
Q 18.109375 38.09375 18.109375 28.8125 
L 18.109375 0 
L 9.078125 0 
L 9.078125 54.6875 
L 18.109375 54.6875 
L 18.109375 46.1875 
Q 20.953125 51.171875 25.484375 53.578125 
Q 30.03125 56 36.53125 56 
Q 37.453125 56 38.578125 55.875 
Q 39.703125 55.765625 41.0625 55.515625 
z
" id="DejaVuSans-114"/>
      <path id="DejaVuSans-32"/>
      <path d="M 30.609375 48.390625 
Q 23.390625 48.390625 19.1875 42.75 
Q 14.984375 37.109375 14.984375 27.296875 
Q 14.984375 17.484375 19.15625 11.84375 
Q 23.34375 6.203125 30.609375 6.203125 
Q 37.796875 6.203125 41.984375 11.859375 
Q 46.1875 17.53125 46.1875 27.296875 
Q 46.1875 37.015625 41.984375 42.703125 
Q 37.796875 48.390625 30.609375 48.390625 
z
M 30.609375 56 
Q 42.328125 56 49.015625 48.375 
Q 55.71875 40.765625 55.71875 27.296875 
Q 55.71875 13.875 49.015625 6.21875 
Q 42.328125 -1.421875 30.609375 -1.421875 
Q 18.84375 -1.421875 12.171875 6.21875 
Q 5.515625 13.875 5.515625 27.296875 
Q 5.515625 40.765625 12.171875 48.375 
Q 18.84375 56 30.609375 56 
z
" id="DejaVuSans-111"/>
      <path d="M 37.109375 75.984375 
L 37.109375 68.5 
L 28.515625 68.5 
Q 23.6875 68.5 21.796875 66.546875 
Q 19.921875 64.59375 19.921875 59.515625 
L 19.921875 54.6875 
L 34.71875 54.6875 
L 34.71875 47.703125 
L 19.921875 47.703125 
L 19.921875 0 
L 10.890625 0 
L 10.890625 47.703125 
L 2.296875 47.703125 
L 2.296875 54.6875 
L 10.890625 54.6875 
L 10.890625 58.5 
Q 10.890625 67.625 15.140625 71.796875 
Q 19.390625 75.984375 28.609375 75.984375 
z
" id="DejaVuSans-102"/>
      <path d="M 54.890625 33.015625 
L 54.890625 0 
L 45.90625 0 
L 45.90625 32.71875 
Q 45.90625 40.484375 42.875 44.328125 
Q 39.84375 48.1875 33.796875 48.1875 
Q 26.515625 48.1875 22.3125 43.546875 
Q 18.109375 38.921875 18.109375 30.90625 
L 18.109375 0 
L 9.078125 0 
L 9.078125 54.6875 
L 18.109375 54.6875 
L 18.109375 46.1875 
Q 21.34375 51.125 25.703125 53.5625 
Q 30.078125 56 35.796875 56 
Q 45.21875 56 50.046875 50.171875 
Q 54.890625 44.34375 54.890625 33.015625 
z
" id="DejaVuSans-110"/>
      <path d="M 9.421875 54.6875 
L 18.40625 54.6875 
L 18.40625 0 
L 9.421875 0 
z
M 9.421875 75.984375 
L 18.40625 75.984375 
L 18.40625 64.59375 
L 9.421875 64.59375 
z
" id="DejaVuSans-105"/>
      <path d="M 14.796875 27.296875 
Q 14.796875 17.390625 18.875 11.75 
Q 22.953125 6.109375 30.078125 6.109375 
Q 37.203125 6.109375 41.296875 11.75 
Q 45.40625 17.390625 45.40625 27.296875 
Q 45.40625 37.203125 41.296875 42.84375 
Q 37.203125 48.484375 30.078125 48.484375 
Q 22.953125 48.484375 18.875 42.84375 
Q 14.796875 37.203125 14.796875 27.296875 
z
M 45.40625 8.203125 
Q 42.578125 3.328125 38.25 0.953125 
Q 33.9375 -1.421875 27.875 -1.421875 
Q 17.96875 -1.421875 11.734375 6.484375 
Q 5.515625 14.40625 5.515625 27.296875 
Q 5.515625 40.1875 11.734375 48.09375 
Q 17.96875 56 27.875 56 
Q 33.9375 56 38.25 53.625 
Q 42.578125 51.265625 45.40625 46.390625 
L 45.40625 54.6875 
L 54.390625 54.6875 
L 54.390625 -20.796875 
L 45.40625 -20.796875 
z
" id="DejaVuSans-113"/>
      <path d="M 18.3125 70.21875 
L 18.3125 54.6875 
L 36.8125 54.6875 
L 36.8125 47.703125 
L 18.3125 47.703125 
L 18.3125 18.015625 
Q 18.3125 11.328125 20.140625 9.421875 
Q 21.96875 7.515625 27.59375 7.515625 
L 36.8125 7.515625 
L 36.8125 0 
L 27.59375 0 
Q 17.1875 0 13.234375 3.875 
Q 9.28125 7.765625 9.28125 18.015625 
L 9.28125 47.703125 
L 2.6875 47.703125 
L 2.6875 54.6875 
L 9.28125 54.6875 
L 9.28125 70.21875 
z
" id="DejaVuSans-116"/>
      <path d="M 34.28125 27.484375 
Q 23.390625 27.484375 19.1875 25 
Q 14.984375 22.515625 14.984375 16.5 
Q 14.984375 11.71875 18.140625 8.90625 
Q 21.296875 6.109375 26.703125 6.109375 
Q 34.1875 6.109375 38.703125 11.40625 
Q 43.21875 16.703125 43.21875 25.484375 
L 43.21875 27.484375 
z
M 52.203125 31.203125 
L 52.203125 0 
L 43.21875 0 
L 43.21875 8.296875 
Q 40.140625 3.328125 35.546875 0.953125 
Q 30.953125 -1.421875 24.3125 -1.421875 
Q 15.921875 -1.421875 10.953125 3.296875 
Q 6 8.015625 6 15.921875 
Q 6 25.140625 12.171875 29.828125 
Q 18.359375 34.515625 30.609375 34.515625 
L 43.21875 34.515625 
L 43.21875 35.40625 
Q 43.21875 41.609375 39.140625 45 
Q 35.0625 48.390625 27.6875 48.390625 
Q 23 48.390625 18.546875 47.265625 
Q 14.109375 46.140625 10.015625 43.890625 
L 10.015625 52.203125 
Q 14.9375 54.109375 19.578125 55.046875 
Q 24.21875 56 28.609375 56 
Q 40.484375 56 46.34375 49.84375 
Q 52.203125 43.703125 52.203125 31.203125 
z
" id="DejaVuSans-97"/>
      <path d="M 44.28125 53.078125 
L 44.28125 44.578125 
Q 40.484375 46.53125 36.375 47.5 
Q 32.28125 48.484375 27.875 48.484375 
Q 21.1875 48.484375 17.84375 46.4375 
Q 14.5 44.390625 14.5 40.28125 
Q 14.5 37.15625 16.890625 35.375 
Q 19.28125 33.59375 26.515625 31.984375 
L 29.59375 31.296875 
Q 39.15625 29.25 43.1875 25.515625 
Q 47.21875 21.78125 47.21875 15.09375 
Q 47.21875 7.46875 41.1875 3.015625 
Q 35.15625 -1.421875 24.609375 -1.421875 
Q 20.21875 -1.421875 15.453125 -0.5625 
Q 10.6875 0.296875 5.421875 2 
L 5.421875 11.28125 
Q 10.40625 8.6875 15.234375 7.390625 
Q 20.0625 6.109375 24.8125 6.109375 
Q 31.15625 6.109375 34.5625 8.28125 
Q 37.984375 10.453125 37.984375 14.40625 
Q 37.984375 18.0625 35.515625 20.015625 
Q 33.0625 21.96875 24.703125 23.78125 
L 21.578125 24.515625 
Q 13.234375 26.265625 9.515625 29.90625 
Q 5.8125 33.546875 5.8125 39.890625 
Q 5.8125 47.609375 11.28125 51.796875 
Q 16.75 56 26.8125 56 
Q 31.78125 56 36.171875 55.265625 
Q 40.578125 54.546875 44.28125 53.078125 
z
" id="DejaVuSans-115"/>
     </defs>
     <g style="fill:#262626;" transform="translate(45.225391 436.949746)rotate(-90)scale(0.24 -0.24)">
      <use xlink:href="#DejaVuSans-78"/>
      <use x="74.804688" xlink:href="#DejaVuSans-117"/>
      <use x="138.183594" xlink:href="#DejaVuSans-109"/>
      <use x="235.595703" xlink:href="#DejaVuSans-98"/>
      <use x="299.072266" xlink:href="#DejaVuSans-101"/>
      <use x="360.595703" xlink:href="#DejaVuSans-114"/>
      <use x="401.708984" xlink:href="#DejaVuSans-32"/>
      <use x="433.496094" xlink:href="#DejaVuSans-111"/>
      <use x="494.677734" xlink:href="#DejaVuSans-102"/>
      <use x="529.882812" xlink:href="#DejaVuSans-32"/>
      <use x="561.669922" xlink:href="#DejaVuSans-117"/>
      <use x="625.048828" xlink:href="#DejaVuSans-110"/>
      <use x="688.427734" xlink:href="#DejaVuSans-105"/>
      <use x="716.210938" xlink:href="#DejaVuSans-113"/>
      <use x="779.6875" xlink:href="#DejaVuSans-117"/>
      <use x="843.066406" xlink:href="#DejaVuSans-101"/>
      <use x="904.589844" xlink:href="#DejaVuSans-32"/>
      <use x="936.376953" xlink:href="#DejaVuSans-109"/>
      <use x="1033.789062" xlink:href="#DejaVuSans-117"/>
      <use x="1097.167969" xlink:href="#DejaVuSans-116"/>
      <use x="1136.376953" xlink:href="#DejaVuSans-97"/>
      <use x="1197.65625" xlink:href="#DejaVuSans-116"/>
      <use x="1236.865234" xlink:href="#DejaVuSans-105"/>
      <use x="1264.648438" xlink:href="#DejaVuSans-111"/>
      <use x="1325.830078" xlink:href="#DejaVuSans-110"/>
      <use x="1389.208984" xlink:href="#DejaVuSans-115"/>
     </g>
    </g>
   </g>
   <g id="line2d_61">
    <path clip-path="url(#p85aae8f09c)" d="M 162.056793 457.701447 
L 199.319389 452.318376 
L 236.581984 344.231793 
L 273.84458 313.187 
L 311.107175 307.311649 
L 348.369771 295.27512 
L 385.632366 287.474423 
L 422.894961 278.342838 
L 460.157557 268.089353 
L 497.420152 253.35808 
L 534.682748 242.519102 
L 571.945343 232.864197 
L 609.207939 215.891916 
L 646.470534 211.78745 
L 683.733129 209.075805 
L 720.995725 206.119356 
L 758.25832 203.444326 
L 795.520916 201.49951 
L 832.783511 198.026066 
L 870.046107 192.342683 
L 907.308702 188.907144 
L 944.571297 185.633746 
L 981.833893 181.941182 
L 1019.096488 178.034782 
L 1056.359084 174.440613 
L 1093.621679 172.313218 
L 1130.884275 171.165543 
L 1168.14687 170.721397 
L 1205.409466 170.318473 
L 1242.672061 169.712081 
L 1279.934656 169.193094 
L 1317.197252 168.762763 
L 1354.459847 168.65143 
" style="fill:none;stroke:#de8f05;stroke-linecap:round;stroke-width:1.5;"/>
    <defs>
     <path d="M 0 3 
C 0.795609 3 1.55874 2.683901 2.12132 2.12132 
C 2.683901 1.55874 3 0.795609 3 0 
C 3 -0.795609 2.683901 -1.55874 2.12132 -2.12132 
C 1.55874 -2.683901 0.795609 -3 0 -3 
C -0.795609 -3 -1.55874 -2.683901 -2.12132 -2.12132 
C -2.683901 -1.55874 -3 -0.795609 -3 0 
C -3 0.795609 -2.683901 1.55874 -2.12132 2.12132 
C -1.55874 2.683901 -0.795609 3 0 3 
z
" id="m78e4db575e" style="stroke:#ffffff;stroke-width:0.75;"/>
    </defs>
    <g clip-path="url(#p85aae8f09c)">
     <use style="fill:#de8f05;stroke:#ffffff;stroke-width:0.75;" x="162.056793" xlink:href="#m78e4db575e" y="457.701447"/>
     <use style="fill:#de8f05;stroke:#ffffff;stroke-width:0.75;" x="199.319389" xlink:href="#m78e4db575e" y="452.318376"/>
     <use style="fill:#de8f05;stroke:#ffffff;stroke-width:0.75;" x="236.581984" xlink:href="#m78e4db575e" y="344.231793"/>
     <use style="fill:#de8f05;stroke:#ffffff;stroke-width:0.75;" x="273.84458" xlink:href="#m78e4db575e" y="313.187"/>
     <use style="fill:#de8f05;stroke:#ffffff;stroke-width:0.75;" x="311.107175" xlink:href="#m78e4db575e" y="307.311649"/>
     <use style="fill:#de8f05;stroke:#ffffff;stroke-width:0.75;" x="348.369771" xlink:href="#m78e4db575e" y="295.27512"/>
     <use style="fill:#de8f05;stroke:#ffffff;stroke-width:0.75;" x="385.632366" xlink:href="#m78e4db575e" y="287.474423"/>
     <use style="fill:#de8f05;stroke:#ffffff;stroke-width:0.75;" x="422.894961" xlink:href="#m78e4db575e" y="278.342838"/>
     <use style="fill:#de8f05;stroke:#ffffff;stroke-width:0.75;" x="460.157557" xlink:href="#m78e4db575e" y="268.089353"/>
     <use style="fill:#de8f05;stroke:#ffffff;stroke-width:0.75;" x="497.420152" xlink:href="#m78e4db575e" y="253.35808"/>
     <use style="fill:#de8f05;stroke:#ffffff;stroke-width:0.75;" x="534.682748" xlink:href="#m78e4db575e" y="242.519102"/>
     <use style="fill:#de8f05;stroke:#ffffff;stroke-width:0.75;" x="571.945343" xlink:href="#m78e4db575e" y="232.864197"/>
     <use style="fill:#de8f05;stroke:#ffffff;stroke-width:0.75;" x="609.207939" xlink:href="#m78e4db575e" y="215.891916"/>
     <use style="fill:#de8f05;stroke:#ffffff;stroke-width:0.75;" x="646.470534" xlink:href="#m78e4db575e" y="211.78745"/>
     <use style="fill:#de8f05;stroke:#ffffff;stroke-width:0.75;" x="683.733129" xlink:href="#m78e4db575e" y="209.075805"/>
     <use style="fill:#de8f05;stroke:#ffffff;stroke-width:0.75;" x="720.995725" xlink:href="#m78e4db575e" y="206.119356"/>
     <use style="fill:#de8f05;stroke:#ffffff;stroke-width:0.75;" x="758.25832" xlink:href="#m78e4db575e" y="203.444326"/>
     <use style="fill:#de8f05;stroke:#ffffff;stroke-width:0.75;" x="795.520916" xlink:href="#m78e4db575e" y="201.49951"/>
     <use style="fill:#de8f05;stroke:#ffffff;stroke-width:0.75;" x="832.783511" xlink:href="#m78e4db575e" y="198.026066"/>
     <use style="fill:#de8f05;stroke:#ffffff;stroke-width:0.75;" x="870.046107" xlink:href="#m78e4db575e" y="192.342683"/>
     <use style="fill:#de8f05;stroke:#ffffff;stroke-width:0.75;" x="907.308702" xlink:href="#m78e4db575e" y="188.907144"/>
     <use style="fill:#de8f05;stroke:#ffffff;stroke-width:0.75;" x="944.571297" xlink:href="#m78e4db575e" y="185.633746"/>
     <use style="fill:#de8f05;stroke:#ffffff;stroke-width:0.75;" x="981.833893" xlink:href="#m78e4db575e" y="181.941182"/>
     <use style="fill:#de8f05;stroke:#ffffff;stroke-width:0.75;" x="1019.096488" xlink:href="#m78e4db575e" y="178.034782"/>
     <use style="fill:#de8f05;stroke:#ffffff;stroke-width:0.75;" x="1056.359084" xlink:href="#m78e4db575e" y="174.440613"/>
     <use style="fill:#de8f05;stroke:#ffffff;stroke-width:0.75;" x="1093.621679" xlink:href="#m78e4db575e" y="172.313218"/>
     <use style="fill:#de8f05;stroke:#ffffff;stroke-width:0.75;" x="1130.884275" xlink:href="#m78e4db575e" y="171.165543"/>
     <use style="fill:#de8f05;stroke:#ffffff;stroke-width:0.75;" x="1168.14687" xlink:href="#m78e4db575e" y="170.721397"/>
     <use style="fill:#de8f05;stroke:#ffffff;stroke-width:0.75;" x="1205.409466" xlink:href="#m78e4db575e" y="170.318473"/>
     <use style="fill:#de8f05;stroke:#ffffff;stroke-width:0.75;" x="1242.672061" xlink:href="#m78e4db575e" y="169.712081"/>
     <use style="fill:#de8f05;stroke:#ffffff;stroke-width:0.75;" x="1279.934656" xlink:href="#m78e4db575e" y="169.193094"/>
     <use style="fill:#de8f05;stroke:#ffffff;stroke-width:0.75;" x="1317.197252" xlink:href="#m78e4db575e" y="168.762763"/>
     <use style="fill:#de8f05;stroke:#ffffff;stroke-width:0.75;" x="1354.459847" xlink:href="#m78e4db575e" y="168.65143"/>
    </g>
   </g>
   <g id="line2d_62">
    <path clip-path="url(#p85aae8f09c)" d="M 162.056793 351.949302 
L 199.319389 350.11502 
L 236.581984 293.569428 
L 273.84458 274.585688 
L 311.107175 271.393243 
L 348.369771 264.195856 
L 385.632366 257.407659 
L 422.894961 249.816547 
L 460.157557 241.772042 
L 497.420152 232.13975 
L 534.682748 223.433947 
L 571.945343 216.842816 
L 609.207939 208.32501 
L 646.470534 206.949816 
L 683.733129 205.518949 
L 720.995725 203.965451 
L 758.25832 202.624159 
L 795.520916 202.004527 
L 832.783511 200.98722 
L 870.046107 198.73274 
L 907.308702 196.683947 
L 944.571297 195.11175 
L 981.833893 193.553157 
L 1019.096488 192.480966 
L 1056.359084 191.841519 
L 1093.621679 191.121446 
L 1130.884275 190.726046 
L 1168.14687 190.524493 
L 1205.409466 190.228151 
L 1242.672061 189.876292 
L 1279.934656 189.427478 
L 1317.197252 189.023957 
L 1354.459847 188.92582 
" style="fill:none;stroke:#56b4e9;stroke-linecap:round;stroke-width:1.5;"/>
    <defs>
     <path d="M 0 3 
C 0.795609 3 1.55874 2.683901 2.12132 2.12132 
C 2.683901 1.55874 3 0.795609 3 0 
C 3 -0.795609 2.683901 -1.55874 2.12132 -2.12132 
C 1.55874 -2.683901 0.795609 -3 0 -3 
C -0.795609 -3 -1.55874 -2.683901 -2.12132 -2.12132 
C -2.683901 -1.55874 -3 -0.795609 -3 0 
C -3 0.795609 -2.683901 1.55874 -2.12132 2.12132 
C -1.55874 2.683901 -0.795609 3 0 3 
z
" id="mffb083dfe1" style="stroke:#ffffff;stroke-width:0.75;"/>
    </defs>
    <g clip-path="url(#p85aae8f09c)">
     <use style="fill:#56b4e9;stroke:#ffffff;stroke-width:0.75;" x="162.056793" xlink:href="#mffb083dfe1" y="351.949302"/>
     <use style="fill:#56b4e9;stroke:#ffffff;stroke-width:0.75;" x="199.319389" xlink:href="#mffb083dfe1" y="350.11502"/>
     <use style="fill:#56b4e9;stroke:#ffffff;stroke-width:0.75;" x="236.581984" xlink:href="#mffb083dfe1" y="293.569428"/>
     <use style="fill:#56b4e9;stroke:#ffffff;stroke-width:0.75;" x="273.84458" xlink:href="#mffb083dfe1" y="274.585688"/>
     <use style="fill:#56b4e9;stroke:#ffffff;stroke-width:0.75;" x="311.107175" xlink:href="#mffb083dfe1" y="271.393243"/>
     <use style="fill:#56b4e9;stroke:#ffffff;stroke-width:0.75;" x="348.369771" xlink:href="#mffb083dfe1" y="264.195856"/>
     <use style="fill:#56b4e9;stroke:#ffffff;stroke-width:0.75;" x="385.632366" xlink:href="#mffb083dfe1" y="257.407659"/>
     <use style="fill:#56b4e9;stroke:#ffffff;stroke-width:0.75;" x="422.894961" xlink:href="#mffb083dfe1" y="249.816547"/>
     <use style="fill:#56b4e9;stroke:#ffffff;stroke-width:0.75;" x="460.157557" xlink:href="#mffb083dfe1" y="241.772042"/>
     <use style="fill:#56b4e9;stroke:#ffffff;stroke-width:0.75;" x="497.420152" xlink:href="#mffb083dfe1" y="232.13975"/>
     <use style="fill:#56b4e9;stroke:#ffffff;stroke-width:0.75;" x="534.682748" xlink:href="#mffb083dfe1" y="223.433947"/>
     <use style="fill:#56b4e9;stroke:#ffffff;stroke-width:0.75;" x="571.945343" xlink:href="#mffb083dfe1" y="216.842816"/>
     <use style="fill:#56b4e9;stroke:#ffffff;stroke-width:0.75;" x="609.207939" xlink:href="#mffb083dfe1" y="208.32501"/>
     <use style="fill:#56b4e9;stroke:#ffffff;stroke-width:0.75;" x="646.470534" xlink:href="#mffb083dfe1" y="206.949816"/>
     <use style="fill:#56b4e9;stroke:#ffffff;stroke-width:0.75;" x="683.733129" xlink:href="#mffb083dfe1" y="205.518949"/>
     <use style="fill:#56b4e9;stroke:#ffffff;stroke-width:0.75;" x="720.995725" xlink:href="#mffb083dfe1" y="203.965451"/>
     <use style="fill:#56b4e9;stroke:#ffffff;stroke-width:0.75;" x="758.25832" xlink:href="#mffb083dfe1" y="202.624159"/>
     <use style="fill:#56b4e9;stroke:#ffffff;stroke-width:0.75;" x="795.520916" xlink:href="#mffb083dfe1" y="202.004527"/>
     <use style="fill:#56b4e9;stroke:#ffffff;stroke-width:0.75;" x="832.783511" xlink:href="#mffb083dfe1" y="200.98722"/>
     <use style="fill:#56b4e9;stroke:#ffffff;stroke-width:0.75;" x="870.046107" xlink:href="#mffb083dfe1" y="198.73274"/>
     <use style="fill:#56b4e9;stroke:#ffffff;stroke-width:0.75;" x="907.308702" xlink:href="#mffb083dfe1" y="196.683947"/>
     <use style="fill:#56b4e9;stroke:#ffffff;stroke-width:0.75;" x="944.571297" xlink:href="#mffb083dfe1" y="195.11175"/>
     <use style="fill:#56b4e9;stroke:#ffffff;stroke-width:0.75;" x="981.833893" xlink:href="#mffb083dfe1" y="193.553157"/>
     <use style="fill:#56b4e9;stroke:#ffffff;stroke-width:0.75;" x="1019.096488" xlink:href="#mffb083dfe1" y="192.480966"/>
     <use style="fill:#56b4e9;stroke:#ffffff;stroke-width:0.75;" x="1056.359084" xlink:href="#mffb083dfe1" y="191.841519"/>
     <use style="fill:#56b4e9;stroke:#ffffff;stroke-width:0.75;" x="1093.621679" xlink:href="#mffb083dfe1" y="191.121446"/>
     <use style="fill:#56b4e9;stroke:#ffffff;stroke-width:0.75;" x="1130.884275" xlink:href="#mffb083dfe1" y="190.726046"/>
     <use style="fill:#56b4e9;stroke:#ffffff;stroke-width:0.75;" x="1168.14687" xlink:href="#mffb083dfe1" y="190.524493"/>
     <use style="fill:#56b4e9;stroke:#ffffff;stroke-width:0.75;" x="1205.409466" xlink:href="#mffb083dfe1" y="190.228151"/>
     <use style="fill:#56b4e9;stroke:#ffffff;stroke-width:0.75;" x="1242.672061" xlink:href="#mffb083dfe1" y="189.876292"/>
     <use style="fill:#56b4e9;stroke:#ffffff;stroke-width:0.75;" x="1279.934656" xlink:href="#mffb083dfe1" y="189.427478"/>
     <use style="fill:#56b4e9;stroke:#ffffff;stroke-width:0.75;" x="1317.197252" xlink:href="#mffb083dfe1" y="189.023957"/>
     <use style="fill:#56b4e9;stroke:#ffffff;stroke-width:0.75;" x="1354.459847" xlink:href="#mffb083dfe1" y="188.92582"/>
    </g>
   </g>
   <g id="line2d_63">
    <path clip-path="url(#p85aae8f09c)" d="M 162.056793 342.004054 
L 199.319389 337.723437 
L 236.581984 266.427877 
L 273.84458 241.968922 
L 311.107175 239.142002 
L 348.369771 234.329215 
L 385.632366 233.348713 
L 422.894961 230.880463 
L 460.157557 229.082592 
L 497.420152 224.417543 
L 534.682748 219.319922 
L 571.945343 213.885996 
L 609.207939 206.322846 
L 646.470534 204.001141 
L 683.733129 203.009462 
L 720.995725 202.357018 
L 758.25832 201.722819 
L 795.520916 200.794782 
L 832.783511 199.464127 
L 870.046107 199.287367 
L 907.308702 198.869564 
L 944.571297 198.721807 
L 981.833893 198.634412 
L 1019.096488 197.972037 
L 1056.359084 197.140542 
L 1093.621679 196.636357 
L 1130.884275 196.599367 
L 1168.14687 196.70511 
L 1205.409466 196.752752 
L 1242.672061 196.879978 
L 1279.934656 197.028738 
L 1317.197252 197.268565 
L 1354.459847 197.364755 
" style="fill:none;stroke:#029e73;stroke-linecap:round;stroke-width:1.5;"/>
    <defs>
     <path d="M 0 3 
C 0.795609 3 1.55874 2.683901 2.12132 2.12132 
C 2.683901 1.55874 3 0.795609 3 0 
C 3 -0.795609 2.683901 -1.55874 2.12132 -2.12132 
C 1.55874 -2.683901 0.795609 -3 0 -3 
C -0.795609 -3 -1.55874 -2.683901 -2.12132 -2.12132 
C -2.683901 -1.55874 -3 -0.795609 -3 0 
C -3 0.795609 -2.683901 1.55874 -2.12132 2.12132 
C -1.55874 2.683901 -0.795609 3 0 3 
z
" id="m00fedc7291" style="stroke:#ffffff;stroke-width:0.75;"/>
    </defs>
    <g clip-path="url(#p85aae8f09c)">
     <use style="fill:#029e73;stroke:#ffffff;stroke-width:0.75;" x="162.056793" xlink:href="#m00fedc7291" y="342.004054"/>
     <use style="fill:#029e73;stroke:#ffffff;stroke-width:0.75;" x="199.319389" xlink:href="#m00fedc7291" y="337.723437"/>
     <use style="fill:#029e73;stroke:#ffffff;stroke-width:0.75;" x="236.581984" xlink:href="#m00fedc7291" y="266.427877"/>
     <use style="fill:#029e73;stroke:#ffffff;stroke-width:0.75;" x="273.84458" xlink:href="#m00fedc7291" y="241.968922"/>
     <use style="fill:#029e73;stroke:#ffffff;stroke-width:0.75;" x="311.107175" xlink:href="#m00fedc7291" y="239.142002"/>
     <use style="fill:#029e73;stroke:#ffffff;stroke-width:0.75;" x="348.369771" xlink:href="#m00fedc7291" y="234.329215"/>
     <use style="fill:#029e73;stroke:#ffffff;stroke-width:0.75;" x="385.632366" xlink:href="#m00fedc7291" y="233.348713"/>
     <use style="fill:#029e73;stroke:#ffffff;stroke-width:0.75;" x="422.894961" xlink:href="#m00fedc7291" y="230.880463"/>
     <use style="fill:#029e73;stroke:#ffffff;stroke-width:0.75;" x="460.157557" xlink:href="#m00fedc7291" y="229.082592"/>
     <use style="fill:#029e73;stroke:#ffffff;stroke-width:0.75;" x="497.420152" xlink:href="#m00fedc7291" y="224.417543"/>
     <use style="fill:#029e73;stroke:#ffffff;stroke-width:0.75;" x="534.682748" xlink:href="#m00fedc7291" y="219.319922"/>
     <use style="fill:#029e73;stroke:#ffffff;stroke-width:0.75;" x="571.945343" xlink:href="#m00fedc7291" y="213.885996"/>
     <use style="fill:#029e73;stroke:#ffffff;stroke-width:0.75;" x="609.207939" xlink:href="#m00fedc7291" y="206.322846"/>
     <use style="fill:#029e73;stroke:#ffffff;stroke-width:0.75;" x="646.470534" xlink:href="#m00fedc7291" y="204.001141"/>
     <use style="fill:#029e73;stroke:#ffffff;stroke-width:0.75;" x="683.733129" xlink:href="#m00fedc7291" y="203.009462"/>
     <use style="fill:#029e73;stroke:#ffffff;stroke-width:0.75;" x="720.995725" xlink:href="#m00fedc7291" y="202.357018"/>
     <use style="fill:#029e73;stroke:#ffffff;stroke-width:0.75;" x="758.25832" xlink:href="#m00fedc7291" y="201.722819"/>
     <use style="fill:#029e73;stroke:#ffffff;stroke-width:0.75;" x="795.520916" xlink:href="#m00fedc7291" y="200.794782"/>
     <use style="fill:#029e73;stroke:#ffffff;stroke-width:0.75;" x="832.783511" xlink:href="#m00fedc7291" y="199.464127"/>
     <use style="fill:#029e73;stroke:#ffffff;stroke-width:0.75;" x="870.046107" xlink:href="#m00fedc7291" y="199.287367"/>
     <use style="fill:#029e73;stroke:#ffffff;stroke-width:0.75;" x="907.308702" xlink:href="#m00fedc7291" y="198.869564"/>
     <use style="fill:#029e73;stroke:#ffffff;stroke-width:0.75;" x="944.571297" xlink:href="#m00fedc7291" y="198.721807"/>
     <use style="fill:#029e73;stroke:#ffffff;stroke-width:0.75;" x="981.833893" xlink:href="#m00fedc7291" y="198.634412"/>
     <use style="fill:#029e73;stroke:#ffffff;stroke-width:0.75;" x="1019.096488" xlink:href="#m00fedc7291" y="197.972037"/>
     <use style="fill:#029e73;stroke:#ffffff;stroke-width:0.75;" x="1056.359084" xlink:href="#m00fedc7291" y="197.140542"/>
     <use style="fill:#029e73;stroke:#ffffff;stroke-width:0.75;" x="1093.621679" xlink:href="#m00fedc7291" y="196.636357"/>
     <use style="fill:#029e73;stroke:#ffffff;stroke-width:0.75;" x="1130.884275" xlink:href="#m00fedc7291" y="196.599367"/>
     <use style="fill:#029e73;stroke:#ffffff;stroke-width:0.75;" x="1168.14687" xlink:href="#m00fedc7291" y="196.70511"/>
     <use style="fill:#029e73;stroke:#ffffff;stroke-width:0.75;" x="1205.409466" xlink:href="#m00fedc7291" y="196.752752"/>
     <use style="fill:#029e73;stroke:#ffffff;stroke-width:0.75;" x="1242.672061" xlink:href="#m00fedc7291" y="196.879978"/>
     <use style="fill:#029e73;stroke:#ffffff;stroke-width:0.75;" x="1279.934656" xlink:href="#m00fedc7291" y="197.028738"/>
     <use style="fill:#029e73;stroke:#ffffff;stroke-width:0.75;" x="1317.197252" xlink:href="#m00fedc7291" y="197.268565"/>
     <use style="fill:#029e73;stroke:#ffffff;stroke-width:0.75;" x="1354.459847" xlink:href="#m00fedc7291" y="197.364755"/>
    </g>
   </g>
   <g id="line2d_64">
    <path clip-path="url(#p85aae8f09c)" d="M 162.056793 298.642562 
L 199.319389 295.300935 
L 236.581984 225.442134 
L 273.84458 201.711347 
L 311.107175 198.253499 
L 348.369771 191.397785 
L 385.632366 187.253461 
L 422.894961 181.728693 
L 460.157557 175.945868 
L 497.420152 167.142942 
L 534.682748 159.296302 
L 571.945343 152.319157 
L 609.207939 141.70834 
L 646.470534 139.160175 
L 683.733129 137.481513 
L 720.995725 135.791293 
L 758.25832 134.256212 
L 795.520916 133.094045 
L 832.783511 131.143809 
L 870.046107 128.369958 
L 907.308702 126.334546 
L 944.571297 124.570712 
L 981.833893 122.641189 
L 1019.096488 120.579566 
L 1056.359084 118.695716 
L 1093.621679 117.457954 
L 1130.884275 116.849654 
L 1168.14687 116.631647 
L 1205.409466 116.385299 
L 1242.672061 116.057379 
L 1279.934656 115.741258 
L 1317.197252 115.499838 
L 1354.459847 115.448226 
" style="fill:none;stroke:#949494;stroke-linecap:round;stroke-width:1.5;"/>
   </g>
   <g id="line2d_65">
    <path clip-path="url(#p85aae8f09c)" d="M 102.436641 70.290545 
L 1414.08 70.290545 
" style="fill:none;stroke:#d55e00;stroke-dasharray:5.55,2.4;stroke-dashoffset:0;stroke-width:1.5;"/>
   </g>
   <g id="text_38">
    <!-- High quality SNVs (VAF &gt;= 10 %) -->
    <defs>
     <path d="M 9.8125 72.90625 
L 19.671875 72.90625 
L 19.671875 43.015625 
L 55.515625 43.015625 
L 55.515625 72.90625 
L 65.375 72.90625 
L 65.375 0 
L 55.515625 0 
L 55.515625 34.71875 
L 19.671875 34.71875 
L 19.671875 0 
L 9.8125 0 
z
" id="DejaVuSans-72"/>
     <path d="M 45.40625 27.984375 
Q 45.40625 37.75 41.375 43.109375 
Q 37.359375 48.484375 30.078125 48.484375 
Q 22.859375 48.484375 18.828125 43.109375 
Q 14.796875 37.75 14.796875 27.984375 
Q 14.796875 18.265625 18.828125 12.890625 
Q 22.859375 7.515625 30.078125 7.515625 
Q 37.359375 7.515625 41.375 12.890625 
Q 45.40625 18.265625 45.40625 27.984375 
z
M 54.390625 6.78125 
Q 54.390625 -7.171875 48.1875 -13.984375 
Q 42 -20.796875 29.203125 -20.796875 
Q 24.46875 -20.796875 20.265625 -20.09375 
Q 16.0625 -19.390625 12.109375 -17.921875 
L 12.109375 -9.1875 
Q 16.0625 -11.328125 19.921875 -12.34375 
Q 23.78125 -13.375 27.78125 -13.375 
Q 36.625 -13.375 41.015625 -8.765625 
Q 45.40625 -4.15625 45.40625 5.171875 
L 45.40625 9.625 
Q 42.625 4.78125 38.28125 2.390625 
Q 33.9375 0 27.875 0 
Q 17.828125 0 11.671875 7.65625 
Q 5.515625 15.328125 5.515625 27.984375 
Q 5.515625 40.671875 11.671875 48.328125 
Q 17.828125 56 27.875 56 
Q 33.9375 56 38.28125 53.609375 
Q 42.625 51.21875 45.40625 46.390625 
L 45.40625 54.6875 
L 54.390625 54.6875 
z
" id="DejaVuSans-103"/>
     <path d="M 54.890625 33.015625 
L 54.890625 0 
L 45.90625 0 
L 45.90625 32.71875 
Q 45.90625 40.484375 42.875 44.328125 
Q 39.84375 48.1875 33.796875 48.1875 
Q 26.515625 48.1875 22.3125 43.546875 
Q 18.109375 38.921875 18.109375 30.90625 
L 18.109375 0 
L 9.078125 0 
L 9.078125 75.984375 
L 18.109375 75.984375 
L 18.109375 46.1875 
Q 21.34375 51.125 25.703125 53.5625 
Q 30.078125 56 35.796875 56 
Q 45.21875 56 50.046875 50.171875 
Q 54.890625 44.34375 54.890625 33.015625 
z
" id="DejaVuSans-104"/>
     <path d="M 9.421875 75.984375 
L 18.40625 75.984375 
L 18.40625 0 
L 9.421875 0 
z
" id="DejaVuSans-108"/>
     <path d="M 32.171875 -5.078125 
Q 28.375 -14.84375 24.75 -17.8125 
Q 21.140625 -20.796875 15.09375 -20.796875 
L 7.90625 -20.796875 
L 7.90625 -13.28125 
L 13.1875 -13.28125 
Q 16.890625 -13.28125 18.9375 -11.515625 
Q 21 -9.765625 23.484375 -3.21875 
L 25.09375 0.875 
L 2.984375 54.6875 
L 12.5 54.6875 
L 29.59375 11.921875 
L 46.6875 54.6875 
L 56.203125 54.6875 
z
" id="DejaVuSans-121"/>
     <path d="M 53.515625 70.515625 
L 53.515625 60.890625 
Q 47.90625 63.578125 42.921875 64.890625 
Q 37.9375 66.21875 33.296875 66.21875 
Q 25.25 66.21875 20.875 63.09375 
Q 16.5 59.96875 16.5 54.203125 
Q 16.5 49.359375 19.40625 46.890625 
Q 22.3125 44.4375 30.421875 42.921875 
L 36.375 41.703125 
Q 47.40625 39.59375 52.65625 34.296875 
Q 57.90625 29 57.90625 20.125 
Q 57.90625 9.515625 50.796875 4.046875 
Q 43.703125 -1.421875 29.984375 -1.421875 
Q 24.8125 -1.421875 18.96875 -0.25 
Q 13.140625 0.921875 6.890625 3.21875 
L 6.890625 13.375 
Q 12.890625 10.015625 18.65625 8.296875 
Q 24.421875 6.59375 29.984375 6.59375 
Q 38.421875 6.59375 43.015625 9.90625 
Q 47.609375 13.234375 47.609375 19.390625 
Q 47.609375 24.75 44.3125 27.78125 
Q 41.015625 30.8125 33.5 32.328125 
L 27.484375 33.5 
Q 16.453125 35.6875 11.515625 40.375 
Q 6.59375 45.0625 6.59375 53.421875 
Q 6.59375 63.09375 13.40625 68.65625 
Q 20.21875 74.21875 32.171875 74.21875 
Q 37.3125 74.21875 42.625 73.28125 
Q 47.953125 72.359375 53.515625 70.515625 
z
" id="DejaVuSans-83"/>
     <path d="M 28.609375 0 
L 0.78125 72.90625 
L 11.078125 72.90625 
L 34.1875 11.53125 
L 57.328125 72.90625 
L 67.578125 72.90625 
L 39.796875 0 
z
" id="DejaVuSans-86"/>
     <path d="M 31 75.875 
Q 24.46875 64.65625 21.28125 53.65625 
Q 18.109375 42.671875 18.109375 31.390625 
Q 18.109375 20.125 21.3125 9.0625 
Q 24.515625 -2 31 -13.1875 
L 23.1875 -13.1875 
Q 15.875 -1.703125 12.234375 9.375 
Q 8.59375 20.453125 8.59375 31.390625 
Q 8.59375 42.28125 12.203125 53.3125 
Q 15.828125 64.359375 23.1875 75.875 
z
" id="DejaVuSans-40"/>
     <path d="M 34.1875 63.1875 
L 20.796875 26.90625 
L 47.609375 26.90625 
z
M 28.609375 72.90625 
L 39.796875 72.90625 
L 67.578125 0 
L 57.328125 0 
L 50.6875 18.703125 
L 17.828125 18.703125 
L 11.1875 0 
L 0.78125 0 
z
" id="DejaVuSans-65"/>
     <path d="M 9.8125 72.90625 
L 51.703125 72.90625 
L 51.703125 64.59375 
L 19.671875 64.59375 
L 19.671875 43.109375 
L 48.578125 43.109375 
L 48.578125 34.8125 
L 19.671875 34.8125 
L 19.671875 0 
L 9.8125 0 
z
" id="DejaVuSans-70"/>
     <path d="M 10.59375 49.21875 
L 10.59375 58.109375 
L 73.1875 35.40625 
L 73.1875 27.296875 
L 10.59375 4.59375 
L 10.59375 13.484375 
L 60.890625 31.296875 
z
" id="DejaVuSans-62"/>
     <path d="M 10.59375 45.40625 
L 73.1875 45.40625 
L 73.1875 37.203125 
L 10.59375 37.203125 
z
M 10.59375 25.484375 
L 73.1875 25.484375 
L 73.1875 17.1875 
L 10.59375 17.1875 
z
" id="DejaVuSans-61"/>
     <path d="M 72.703125 32.078125 
Q 68.453125 32.078125 66.03125 28.46875 
Q 63.625 24.859375 63.625 18.40625 
Q 63.625 12.0625 66.03125 8.421875 
Q 68.453125 4.78125 72.703125 4.78125 
Q 76.859375 4.78125 79.265625 8.421875 
Q 81.6875 12.0625 81.6875 18.40625 
Q 81.6875 24.8125 79.265625 28.4375 
Q 76.859375 32.078125 72.703125 32.078125 
z
M 72.703125 38.28125 
Q 80.421875 38.28125 84.953125 32.90625 
Q 89.5 27.546875 89.5 18.40625 
Q 89.5 9.28125 84.9375 3.921875 
Q 80.375 -1.421875 72.703125 -1.421875 
Q 64.890625 -1.421875 60.34375 3.921875 
Q 55.8125 9.28125 55.8125 18.40625 
Q 55.8125 27.59375 60.375 32.9375 
Q 64.9375 38.28125 72.703125 38.28125 
z
M 22.3125 68.015625 
Q 18.109375 68.015625 15.6875 64.375 
Q 13.28125 60.75 13.28125 54.390625 
Q 13.28125 47.953125 15.671875 44.328125 
Q 18.0625 40.71875 22.3125 40.71875 
Q 26.5625 40.71875 28.96875 44.328125 
Q 31.390625 47.953125 31.390625 54.390625 
Q 31.390625 60.6875 28.953125 64.34375 
Q 26.515625 68.015625 22.3125 68.015625 
z
M 66.40625 74.21875 
L 74.21875 74.21875 
L 28.609375 -1.421875 
L 20.796875 -1.421875 
z
M 22.3125 74.21875 
Q 30.03125 74.21875 34.609375 68.875 
Q 39.203125 63.53125 39.203125 54.390625 
Q 39.203125 45.171875 34.640625 39.84375 
Q 30.078125 34.515625 22.3125 34.515625 
Q 14.546875 34.515625 10.03125 39.859375 
Q 5.515625 45.21875 5.515625 54.390625 
Q 5.515625 63.484375 10.046875 68.84375 
Q 14.59375 74.21875 22.3125 74.21875 
z
" id="DejaVuSans-37"/>
     <path d="M 8.015625 75.875 
L 15.828125 75.875 
Q 23.140625 64.359375 26.78125 53.3125 
Q 30.421875 42.28125 30.421875 31.390625 
Q 30.421875 20.453125 26.78125 9.375 
Q 23.140625 -1.703125 15.828125 -13.1875 
L 8.015625 -13.1875 
Q 14.5 -2 17.703125 9.0625 
Q 20.90625 20.125 20.90625 31.390625 
Q 20.90625 42.671875 17.703125 53.65625 
Q 14.5 64.65625 8.015625 75.875 
z
" id="DejaVuSans-41"/>
    </defs>
    <g style="fill:#262626;" transform="translate(556.232695 44.92)scale(0.24 -0.24)">
     <use xlink:href="#DejaVuSans-72"/>
     <use x="75.195312" xlink:href="#DejaVuSans-105"/>
     <use x="102.978516" xlink:href="#DejaVuSans-103"/>
     <use x="166.455078" xlink:href="#DejaVuSans-104"/>
     <use x="229.833984" xlink:href="#DejaVuSans-32"/>
     <use x="261.621094" xlink:href="#DejaVuSans-113"/>
     <use x="325.097656" xlink:href="#DejaVuSans-117"/>
     <use x="388.476562" xlink:href="#DejaVuSans-97"/>
     <use x="449.755859" xlink:href="#DejaVuSans-108"/>
     <use x="477.539062" xlink:href="#DejaVuSans-105"/>
     <use x="505.322266" xlink:href="#DejaVuSans-116"/>
     <use x="544.53125" xlink:href="#DejaVuSans-121"/>
     <use x="603.710938" xlink:href="#DejaVuSans-32"/>
     <use x="635.498047" xlink:href="#DejaVuSans-83"/>
     <use x="698.974609" xlink:href="#DejaVuSans-78"/>
     <use x="773.779297" xlink:href="#DejaVuSans-86"/>
     <use x="842.1875" xlink:href="#DejaVuSans-115"/>
     <use x="894.287109" xlink:href="#DejaVuSans-32"/>
     <use x="926.074219" xlink:href="#DejaVuSans-40"/>
     <use x="965.087891" xlink:href="#DejaVuSans-86"/>
     <use x="1033.402344" xlink:href="#DejaVuSans-65"/>
     <use x="1101.810547" xlink:href="#DejaVuSans-70"/>
     <use x="1159.330078" xlink:href="#DejaVuSans-32"/>
     <use x="1191.117188" xlink:href="#DejaVuSans-62"/>
     <use x="1274.90625" xlink:href="#DejaVuSans-61"/>
     <use x="1358.695312" xlink:href="#DejaVuSans-32"/>
     <use x="1390.482422" xlink:href="#DejaVuSans-49"/>
     <use x="1454.105469" xlink:href="#DejaVuSans-48"/>
     <use x="1517.728516" xlink:href="#DejaVuSans-32"/>
     <use x="1549.515625" xlink:href="#DejaVuSans-37"/>
     <use x="1644.535156" xlink:href="#DejaVuSans-41"/>
    </g>
   </g>
   <g id="legend_1">
    <g id="patch_3">
     <path d="M 1119.022187 466.071992 
L 1398.68 466.071992 
Q 1403.08 466.071992 1403.08 461.671992 
L 1403.08 302.412617 
Q 1403.08 298.012617 1398.68 298.012617 
L 1119.022187 298.012617 
Q 1114.622187 298.012617 1114.622187 302.412617 
L 1114.622187 461.671992 
Q 1114.622187 466.071992 1119.022187 466.071992 
z
" style="fill:#ffffff;opacity:0.8;stroke:#cccccc;stroke-linejoin:miter;"/>
    </g>
    <g id="line2d_66">
     <path d="M 1123.422187 315.829179 
L 1167.422187 315.829179 
" style="fill:none;stroke:#de8f05;stroke-linecap:round;stroke-width:1.5;"/>
    </g>
    <g id="line2d_67">
     <g>
      <use style="fill:#de8f05;stroke:#ffffff;stroke-width:0.75;" x="1145.422187" xlink:href="#m78e4db575e" y="315.829179"/>
     </g>
    </g>
    <g id="text_39">
     <!-- Subclonal + clonal -->
     <defs>
      <path d="M 48.78125 52.59375 
L 48.78125 44.1875 
Q 44.96875 46.296875 41.140625 47.34375 
Q 37.3125 48.390625 33.40625 48.390625 
Q 24.65625 48.390625 19.8125 42.84375 
Q 14.984375 37.3125 14.984375 27.296875 
Q 14.984375 17.28125 19.8125 11.734375 
Q 24.65625 6.203125 33.40625 6.203125 
Q 37.3125 6.203125 41.140625 7.25 
Q 44.96875 8.296875 48.78125 10.40625 
L 48.78125 2.09375 
Q 45.015625 0.34375 40.984375 -0.53125 
Q 36.96875 -1.421875 32.421875 -1.421875 
Q 20.0625 -1.421875 12.78125 6.34375 
Q 5.515625 14.109375 5.515625 27.296875 
Q 5.515625 40.671875 12.859375 48.328125 
Q 20.21875 56 33.015625 56 
Q 37.15625 56 41.109375 55.140625 
Q 45.0625 54.296875 48.78125 52.59375 
z
" id="DejaVuSans-99"/>
      <path d="M 46 62.703125 
L 46 35.5 
L 73.1875 35.5 
L 73.1875 27.203125 
L 46 27.203125 
L 46 0 
L 37.796875 0 
L 37.796875 27.203125 
L 10.59375 27.203125 
L 10.59375 35.5 
L 37.796875 35.5 
L 37.796875 62.703125 
z
" id="DejaVuSans-43"/>
     </defs>
     <g style="fill:#262626;" transform="translate(1185.022187 323.529179)scale(0.22 -0.22)">
      <use xlink:href="#DejaVuSans-83"/>
      <use x="63.476562" xlink:href="#DejaVuSans-117"/>
      <use x="126.855469" xlink:href="#DejaVuSans-98"/>
      <use x="190.332031" xlink:href="#DejaVuSans-99"/>
      <use x="245.3125" xlink:href="#DejaVuSans-108"/>
      <use x="273.095703" xlink:href="#DejaVuSans-111"/>
      <use x="334.277344" xlink:href="#DejaVuSans-110"/>
      <use x="397.65625" xlink:href="#DejaVuSans-97"/>
      <use x="458.935547" xlink:href="#DejaVuSans-108"/>
      <use x="486.71875" xlink:href="#DejaVuSans-32"/>
      <use x="518.505859" xlink:href="#DejaVuSans-43"/>
      <use x="602.294922" xlink:href="#DejaVuSans-32"/>
      <use x="634.082031" xlink:href="#DejaVuSans-99"/>
      <use x="689.0625" xlink:href="#DejaVuSans-108"/>
      <use x="716.845703" xlink:href="#DejaVuSans-111"/>
      <use x="778.027344" xlink:href="#DejaVuSans-110"/>
      <use x="841.40625" xlink:href="#DejaVuSans-97"/>
      <use x="902.685547" xlink:href="#DejaVuSans-108"/>
     </g>
    </g>
    <g id="line2d_68">
     <path d="M 1123.422187 348.121054 
L 1167.422187 348.121054 
" style="fill:none;stroke:#56b4e9;stroke-linecap:round;stroke-width:1.5;"/>
    </g>
    <g id="line2d_69">
     <g>
      <use style="fill:#56b4e9;stroke:#ffffff;stroke-width:0.75;" x="1145.422187" xlink:href="#mffb083dfe1" y="348.121054"/>
     </g>
    </g>
    <g id="text_40">
     <!-- Only clonal -->
     <defs>
      <path d="M 39.40625 66.21875 
Q 28.65625 66.21875 22.328125 58.203125 
Q 16.015625 50.203125 16.015625 36.375 
Q 16.015625 22.609375 22.328125 14.59375 
Q 28.65625 6.59375 39.40625 6.59375 
Q 50.140625 6.59375 56.421875 14.59375 
Q 62.703125 22.609375 62.703125 36.375 
Q 62.703125 50.203125 56.421875 58.203125 
Q 50.140625 66.21875 39.40625 66.21875 
z
M 39.40625 74.21875 
Q 54.734375 74.21875 63.90625 63.9375 
Q 73.09375 53.65625 73.09375 36.375 
Q 73.09375 19.140625 63.90625 8.859375 
Q 54.734375 -1.421875 39.40625 -1.421875 
Q 24.03125 -1.421875 14.8125 8.828125 
Q 5.609375 19.09375 5.609375 36.375 
Q 5.609375 53.65625 14.8125 63.9375 
Q 24.03125 74.21875 39.40625 74.21875 
z
" id="DejaVuSans-79"/>
     </defs>
     <g style="fill:#262626;" transform="translate(1185.022187 355.821054)scale(0.22 -0.22)">
      <use xlink:href="#DejaVuSans-79"/>
      <use x="78.710938" xlink:href="#DejaVuSans-110"/>
      <use x="142.089844" xlink:href="#DejaVuSans-108"/>
      <use x="169.873047" xlink:href="#DejaVuSans-121"/>
      <use x="229.052734" xlink:href="#DejaVuSans-32"/>
      <use x="260.839844" xlink:href="#DejaVuSans-99"/>
      <use x="315.820312" xlink:href="#DejaVuSans-108"/>
      <use x="343.603516" xlink:href="#DejaVuSans-111"/>
      <use x="404.785156" xlink:href="#DejaVuSans-110"/>
      <use x="468.164062" xlink:href="#DejaVuSans-97"/>
      <use x="529.443359" xlink:href="#DejaVuSans-108"/>
     </g>
    </g>
    <g id="line2d_70">
     <path d="M 1123.422187 380.412929 
L 1167.422187 380.412929 
" style="fill:none;stroke:#029e73;stroke-linecap:round;stroke-width:1.5;"/>
    </g>
    <g id="line2d_71">
     <g>
      <use style="fill:#029e73;stroke:#ffffff;stroke-width:0.75;" x="1145.422187" xlink:href="#m00fedc7291" y="380.412929"/>
     </g>
    </g>
    <g id="text_41">
     <!-- Only subclonal -->
     <g style="fill:#262626;" transform="translate(1185.022187 388.112929)scale(0.22 -0.22)">
      <use xlink:href="#DejaVuSans-79"/>
      <use x="78.710938" xlink:href="#DejaVuSans-110"/>
      <use x="142.089844" xlink:href="#DejaVuSans-108"/>
      <use x="169.873047" xlink:href="#DejaVuSans-121"/>
      <use x="229.052734" xlink:href="#DejaVuSans-32"/>
      <use x="260.839844" xlink:href="#DejaVuSans-115"/>
      <use x="312.939453" xlink:href="#DejaVuSans-117"/>
      <use x="376.318359" xlink:href="#DejaVuSans-98"/>
      <use x="439.794922" xlink:href="#DejaVuSans-99"/>
      <use x="494.775391" xlink:href="#DejaVuSans-108"/>
      <use x="522.558594" xlink:href="#DejaVuSans-111"/>
      <use x="583.740234" xlink:href="#DejaVuSans-110"/>
      <use x="647.119141" xlink:href="#DejaVuSans-97"/>
      <use x="708.398438" xlink:href="#DejaVuSans-108"/>
     </g>
    </g>
    <g id="line2d_72">
     <path d="M 1123.422187 412.704804 
L 1167.422187 412.704804 
" style="fill:none;stroke:#949494;stroke-linecap:round;stroke-width:1.5;"/>
    </g>
    <g id="line2d_73"/>
    <g id="text_42">
     <!-- All -->
     <g style="fill:#262626;" transform="translate(1185.022187 420.404804)scale(0.22 -0.22)">
      <use xlink:href="#DejaVuSans-65"/>
      <use x="68.408203" xlink:href="#DejaVuSans-108"/>
      <use x="96.191406" xlink:href="#DejaVuSans-108"/>
     </g>
    </g>
    <g id="line2d_74">
     <path d="M 1123.422187 444.996679 
L 1167.422187 444.996679 
" style="fill:none;stroke:#d55e00;stroke-dasharray:5.55,2.4;stroke-dashoffset:0;stroke-width:1.5;"/>
    </g>
    <g id="line2d_75"/>
    <g id="text_43">
     <!-- Max. number SNVs -->
     <defs>
      <path d="M 9.8125 72.90625 
L 24.515625 72.90625 
L 43.109375 23.296875 
L 61.8125 72.90625 
L 76.515625 72.90625 
L 76.515625 0 
L 66.890625 0 
L 66.890625 64.015625 
L 48.09375 14.015625 
L 38.1875 14.015625 
L 19.390625 64.015625 
L 19.390625 0 
L 9.8125 0 
z
" id="DejaVuSans-77"/>
      <path d="M 54.890625 54.6875 
L 35.109375 28.078125 
L 55.90625 0 
L 45.3125 0 
L 29.390625 21.484375 
L 13.484375 0 
L 2.875 0 
L 24.125 28.609375 
L 4.6875 54.6875 
L 15.28125 54.6875 
L 29.78125 35.203125 
L 44.28125 54.6875 
z
" id="DejaVuSans-120"/>
      <path d="M 10.6875 12.40625 
L 21 12.40625 
L 21 0 
L 10.6875 0 
z
" id="DejaVuSans-46"/>
     </defs>
     <g style="fill:#262626;" transform="translate(1185.022187 452.696679)scale(0.22 -0.22)">
      <use xlink:href="#DejaVuSans-77"/>
      <use x="86.279297" xlink:href="#DejaVuSans-97"/>
      <use x="147.558594" xlink:href="#DejaVuSans-120"/>
      <use x="206.738281" xlink:href="#DejaVuSans-46"/>
      <use x="238.525391" xlink:href="#DejaVuSans-32"/>
      <use x="270.3125" xlink:href="#DejaVuSans-110"/>
      <use x="333.691406" xlink:href="#DejaVuSans-117"/>
      <use x="397.070312" xlink:href="#DejaVuSans-109"/>
      <use x="494.482422" xlink:href="#DejaVuSans-98"/>
      <use x="557.958984" xlink:href="#DejaVuSans-101"/>
      <use x="619.482422" xlink:href="#DejaVuSans-114"/>
      <use x="660.595703" xlink:href="#DejaVuSans-32"/>
      <use x="692.382812" xlink:href="#DejaVuSans-83"/>
      <use x="755.859375" xlink:href="#DejaVuSans-78"/>
      <use x="830.664062" xlink:href="#DejaVuSans-86"/>
      <use x="899.072266" xlink:href="#DejaVuSans-115"/>
     </g>
    </g>
   </g>
  </g>
 </g>
 <defs>
  <clipPath id="p85aae8f09c">
   <rect height="426.151992" width="1311.643359" x="102.436641" y="50.92"/>
  </clipPath>
 </defs>
</svg>
