<?xml version="1.0" encoding="utf-8" standalone="no"?>
<!DOCTYPE svg PUBLIC "-//W3C//DTD SVG 1.1//EN"
  "http://www.w3.org/Graphics/SVG/1.1/DTD/svg11.dtd">
<!-- Created with matplotlib (https://matplotlib.org/) -->
<svg height="576pt" version="1.1" viewBox="0 0 1440 576" width="1440pt" xmlns="http://www.w3.org/2000/svg" xmlns:xlink="http://www.w3.org/1999/xlink">
 <defs>
  <style type="text/css">
*{stroke-linecap:butt;stroke-linejoin:round;}
  </style>
 </defs>
 <g id="figure_1">
  <g id="patch_1">
   <path d="M 0 576 
L 1440 576 
L 1440 0 
L 0 0 
z
" style="fill:#ffffff;"/>
  </g>
  <g id="axes_1">
   <g id="patch_2">
    <path d="M 108.436641 471.071992 
L 1414.08 471.071992 
L 1414.08 50.92 
L 108.436641 50.92 
z
" style="fill:#ffffff;"/>
   </g>
   <g id="matplotlib.axis_1">
    <g id="xtick_1">
     <g id="line2d_1">
      <path clip-path="url(#p39f0f14ce7)" d="M 167.784066 471.071992 
L 167.784066 50.92 
" style="fill:none;stroke:#cccccc;stroke-linecap:round;stroke-opacity:0.5;stroke-width:0.5;"/>
     </g>
     <g id="text_1">
      <!-- 2020-01 -->
      <defs>
       <path d="M 19.1875 8.296875 
L 53.609375 8.296875 
L 53.609375 0 
L 7.328125 0 
L 7.328125 8.296875 
Q 12.9375 14.109375 22.625 23.890625 
Q 32.328125 33.6875 34.8125 36.53125 
Q 39.546875 41.84375 41.421875 45.53125 
Q 43.3125 49.21875 43.3125 52.78125 
Q 43.3125 58.59375 39.234375 62.25 
Q 35.15625 65.921875 28.609375 65.921875 
Q 23.96875 65.921875 18.8125 64.3125 
Q 13.671875 62.703125 7.8125 59.421875 
L 7.8125 69.390625 
Q 13.765625 71.78125 18.9375 73 
Q 24.125 74.21875 28.421875 74.21875 
Q 39.75 74.21875 46.484375 68.546875 
Q 53.21875 62.890625 53.21875 53.421875 
Q 53.21875 48.921875 51.53125 44.890625 
Q 49.859375 40.875 45.40625 35.40625 
Q 44.1875 33.984375 37.640625 27.21875 
Q 31.109375 20.453125 19.1875 8.296875 
z
" id="DejaVuSans-50"/>
       <path d="M 31.78125 66.40625 
Q 24.171875 66.40625 20.328125 58.90625 
Q 16.5 51.421875 16.5 36.375 
Q 16.5 21.390625 20.328125 13.890625 
Q 24.171875 6.390625 31.78125 6.390625 
Q 39.453125 6.390625 43.28125 13.890625 
Q 47.125 21.390625 47.125 36.375 
Q 47.125 51.421875 43.28125 58.90625 
Q 39.453125 66.40625 31.78125 66.40625 
z
M 31.78125 74.21875 
Q 44.046875 74.21875 50.515625 64.515625 
Q 56.984375 54.828125 56.984375 36.375 
Q 56.984375 17.96875 50.515625 8.265625 
Q 44.046875 -1.421875 31.78125 -1.421875 
Q 19.53125 -1.421875 13.0625 8.265625 
Q 6.59375 17.96875 6.59375 36.375 
Q 6.59375 54.828125 13.0625 64.515625 
Q 19.53125 74.21875 31.78125 74.21875 
z
" id="DejaVuSans-48"/>
       <path d="M 4.890625 31.390625 
L 31.203125 31.390625 
L 31.203125 23.390625 
L 4.890625 23.390625 
z
" id="DejaVuSans-45"/>
       <path d="M 12.40625 8.296875 
L 28.515625 8.296875 
L 28.515625 63.921875 
L 10.984375 60.40625 
L 10.984375 69.390625 
L 28.421875 72.90625 
L 38.28125 72.90625 
L 38.28125 8.296875 
L 54.390625 8.296875 
L 54.390625 0 
L 12.40625 0 
z
" id="DejaVuSans-49"/>
      </defs>
      <g style="fill:#262626;" transform="translate(131.015904 547.010053)rotate(-30)scale(0.22 -0.22)">
       <use xlink:href="#DejaVuSans-50"/>
       <use x="63.623047" xlink:href="#DejaVuSans-48"/>
       <use x="127.246094" xlink:href="#DejaVuSans-50"/>
       <use x="190.869141" xlink:href="#DejaVuSans-48"/>
       <use x="254.492188" xlink:href="#DejaVuSans-45"/>
       <use x="290.576172" xlink:href="#DejaVuSans-48"/>
       <use x="354.199219" xlink:href="#DejaVuSans-49"/>
      </g>
     </g>
    </g>
    <g id="xtick_2">
     <g id="line2d_2">
      <path clip-path="url(#p39f0f14ce7)" d="M 204.876207 471.071992 
L 204.876207 50.92 
" style="fill:none;stroke:#cccccc;stroke-linecap:round;stroke-opacity:0.5;stroke-width:0.5;"/>
     </g>
     <g id="text_2">
      <!-- 2020-02 -->
      <g style="fill:#262626;" transform="translate(168.108045 547.010053)rotate(-30)scale(0.22 -0.22)">
       <use xlink:href="#DejaVuSans-50"/>
       <use x="63.623047" xlink:href="#DejaVuSans-48"/>
       <use x="127.246094" xlink:href="#DejaVuSans-50"/>
       <use x="190.869141" xlink:href="#DejaVuSans-48"/>
       <use x="254.492188" xlink:href="#DejaVuSans-45"/>
       <use x="290.576172" xlink:href="#DejaVuSans-48"/>
       <use x="354.199219" xlink:href="#DejaVuSans-50"/>
      </g>
     </g>
    </g>
    <g id="xtick_3">
     <g id="line2d_3">
      <path clip-path="url(#p39f0f14ce7)" d="M 241.968348 471.071992 
L 241.968348 50.92 
" style="fill:none;stroke:#cccccc;stroke-linecap:round;stroke-opacity:0.5;stroke-width:0.5;"/>
     </g>
     <g id="text_3">
      <!-- 2020-03 -->
      <defs>
       <path d="M 40.578125 39.3125 
Q 47.65625 37.796875 51.625 33 
Q 55.609375 28.21875 55.609375 21.1875 
Q 55.609375 10.40625 48.1875 4.484375 
Q 40.765625 -1.421875 27.09375 -1.421875 
Q 22.515625 -1.421875 17.65625 -0.515625 
Q 12.796875 0.390625 7.625 2.203125 
L 7.625 11.71875 
Q 11.71875 9.328125 16.59375 8.109375 
Q 21.484375 6.890625 26.8125 6.890625 
Q 36.078125 6.890625 40.9375 10.546875 
Q 45.796875 14.203125 45.796875 21.1875 
Q 45.796875 27.640625 41.28125 31.265625 
Q 36.765625 34.90625 28.71875 34.90625 
L 20.21875 34.90625 
L 20.21875 43.015625 
L 29.109375 43.015625 
Q 36.375 43.015625 40.234375 45.921875 
Q 44.09375 48.828125 44.09375 54.296875 
Q 44.09375 59.90625 40.109375 62.90625 
Q 36.140625 65.921875 28.71875 65.921875 
Q 24.65625 65.921875 20.015625 65.03125 
Q 15.375 64.15625 9.8125 62.3125 
L 9.8125 71.09375 
Q 15.4375 72.65625 20.34375 73.4375 
Q 25.25 74.21875 29.59375 74.21875 
Q 40.828125 74.21875 47.359375 69.109375 
Q 53.90625 64.015625 53.90625 55.328125 
Q 53.90625 49.265625 50.4375 45.09375 
Q 46.96875 40.921875 40.578125 39.3125 
z
" id="DejaVuSans-51"/>
      </defs>
      <g style="fill:#262626;" transform="translate(205.200186 547.010053)rotate(-30)scale(0.22 -0.22)">
       <use xlink:href="#DejaVuSans-50"/>
       <use x="63.623047" xlink:href="#DejaVuSans-48"/>
       <use x="127.246094" xlink:href="#DejaVuSans-50"/>
       <use x="190.869141" xlink:href="#DejaVuSans-48"/>
       <use x="254.492188" xlink:href="#DejaVuSans-45"/>
       <use x="290.576172" xlink:href="#DejaVuSans-48"/>
       <use x="354.199219" xlink:href="#DejaVuSans-51"/>
      </g>
     </g>
    </g>
    <g id="xtick_4">
     <g id="line2d_4">
      <path clip-path="url(#p39f0f14ce7)" d="M 279.060489 471.071992 
L 279.060489 50.92 
" style="fill:none;stroke:#cccccc;stroke-linecap:round;stroke-opacity:0.5;stroke-width:0.5;"/>
     </g>
     <g id="text_4">
      <!-- 2020-04 -->
      <defs>
       <path d="M 37.796875 64.3125 
L 12.890625 25.390625 
L 37.796875 25.390625 
z
M 35.203125 72.90625 
L 47.609375 72.90625 
L 47.609375 25.390625 
L 58.015625 25.390625 
L 58.015625 17.1875 
L 47.609375 17.1875 
L 47.609375 0 
L 37.796875 0 
L 37.796875 17.1875 
L 4.890625 17.1875 
L 4.890625 26.703125 
z
" id="DejaVuSans-52"/>
      </defs>
      <g style="fill:#262626;" transform="translate(242.292326 547.010053)rotate(-30)scale(0.22 -0.22)">
       <use xlink:href="#DejaVuSans-50"/>
       <use x="63.623047" xlink:href="#DejaVuSans-48"/>
       <use x="127.246094" xlink:href="#DejaVuSans-50"/>
       <use x="190.869141" xlink:href="#DejaVuSans-48"/>
       <use x="254.492188" xlink:href="#DejaVuSans-45"/>
       <use x="290.576172" xlink:href="#DejaVuSans-48"/>
       <use x="354.199219" xlink:href="#DejaVuSans-52"/>
      </g>
     </g>
    </g>
    <g id="xtick_5">
     <g id="line2d_5">
      <path clip-path="url(#p39f0f14ce7)" d="M 316.15263 471.071992 
L 316.15263 50.92 
" style="fill:none;stroke:#cccccc;stroke-linecap:round;stroke-opacity:0.5;stroke-width:0.5;"/>
     </g>
     <g id="text_5">
      <!-- 2020-05 -->
      <defs>
       <path d="M 10.796875 72.90625 
L 49.515625 72.90625 
L 49.515625 64.59375 
L 19.828125 64.59375 
L 19.828125 46.734375 
Q 21.96875 47.46875 24.109375 47.828125 
Q 26.265625 48.1875 28.421875 48.1875 
Q 40.625 48.1875 47.75 41.5 
Q 54.890625 34.8125 54.890625 23.390625 
Q 54.890625 11.625 47.5625 5.09375 
Q 40.234375 -1.421875 26.90625 -1.421875 
Q 22.3125 -1.421875 17.546875 -0.640625 
Q 12.796875 0.140625 7.71875 1.703125 
L 7.71875 11.625 
Q 12.109375 9.234375 16.796875 8.0625 
Q 21.484375 6.890625 26.703125 6.890625 
Q 35.15625 6.890625 40.078125 11.328125 
Q 45.015625 15.765625 45.015625 23.390625 
Q 45.015625 31 40.078125 35.4375 
Q 35.15625 39.890625 26.703125 39.890625 
Q 22.75 39.890625 18.8125 39.015625 
Q 14.890625 38.140625 10.796875 36.28125 
z
" id="DejaVuSans-53"/>
      </defs>
      <g style="fill:#262626;" transform="translate(279.384467 547.010053)rotate(-30)scale(0.22 -0.22)">
       <use xlink:href="#DejaVuSans-50"/>
       <use x="63.623047" xlink:href="#DejaVuSans-48"/>
       <use x="127.246094" xlink:href="#DejaVuSans-50"/>
       <use x="190.869141" xlink:href="#DejaVuSans-48"/>
       <use x="254.492188" xlink:href="#DejaVuSans-45"/>
       <use x="290.576172" xlink:href="#DejaVuSans-48"/>
       <use x="354.199219" xlink:href="#DejaVuSans-53"/>
      </g>
     </g>
    </g>
    <g id="xtick_6">
     <g id="line2d_6">
      <path clip-path="url(#p39f0f14ce7)" d="M 353.244771 471.071992 
L 353.244771 50.92 
" style="fill:none;stroke:#cccccc;stroke-linecap:round;stroke-opacity:0.5;stroke-width:0.5;"/>
     </g>
     <g id="text_6">
      <!-- 2020-06 -->
      <defs>
       <path d="M 33.015625 40.375 
Q 26.375 40.375 22.484375 35.828125 
Q 18.609375 31.296875 18.609375 23.390625 
Q 18.609375 15.53125 22.484375 10.953125 
Q 26.375 6.390625 33.015625 6.390625 
Q 39.65625 6.390625 43.53125 10.953125 
Q 47.40625 15.53125 47.40625 23.390625 
Q 47.40625 31.296875 43.53125 35.828125 
Q 39.65625 40.375 33.015625 40.375 
z
M 52.59375 71.296875 
L 52.59375 62.3125 
Q 48.875 64.0625 45.09375 64.984375 
Q 41.3125 65.921875 37.59375 65.921875 
Q 27.828125 65.921875 22.671875 59.328125 
Q 17.53125 52.734375 16.796875 39.40625 
Q 19.671875 43.65625 24.015625 45.921875 
Q 28.375 48.1875 33.59375 48.1875 
Q 44.578125 48.1875 50.953125 41.515625 
Q 57.328125 34.859375 57.328125 23.390625 
Q 57.328125 12.15625 50.6875 5.359375 
Q 44.046875 -1.421875 33.015625 -1.421875 
Q 20.359375 -1.421875 13.671875 8.265625 
Q 6.984375 17.96875 6.984375 36.375 
Q 6.984375 53.65625 15.1875 63.9375 
Q 23.390625 74.21875 37.203125 74.21875 
Q 40.921875 74.21875 44.703125 73.484375 
Q 48.484375 72.75 52.59375 71.296875 
z
" id="DejaVuSans-54"/>
      </defs>
      <g style="fill:#262626;" transform="translate(316.476608 547.010053)rotate(-30)scale(0.22 -0.22)">
       <use xlink:href="#DejaVuSans-50"/>
       <use x="63.623047" xlink:href="#DejaVuSans-48"/>
       <use x="127.246094" xlink:href="#DejaVuSans-50"/>
       <use x="190.869141" xlink:href="#DejaVuSans-48"/>
       <use x="254.492188" xlink:href="#DejaVuSans-45"/>
       <use x="290.576172" xlink:href="#DejaVuSans-48"/>
       <use x="354.199219" xlink:href="#DejaVuSans-54"/>
      </g>
     </g>
    </g>
    <g id="xtick_7">
     <g id="line2d_7">
      <path clip-path="url(#p39f0f14ce7)" d="M 390.336911 471.071992 
L 390.336911 50.92 
" style="fill:none;stroke:#cccccc;stroke-linecap:round;stroke-opacity:0.5;stroke-width:0.5;"/>
     </g>
     <g id="text_7">
      <!-- 2020-07 -->
      <defs>
       <path d="M 8.203125 72.90625 
L 55.078125 72.90625 
L 55.078125 68.703125 
L 28.609375 0 
L 18.3125 0 
L 43.21875 64.59375 
L 8.203125 64.59375 
z
" id="DejaVuSans-55"/>
      </defs>
      <g style="fill:#262626;" transform="translate(353.568749 547.010053)rotate(-30)scale(0.22 -0.22)">
       <use xlink:href="#DejaVuSans-50"/>
       <use x="63.623047" xlink:href="#DejaVuSans-48"/>
       <use x="127.246094" xlink:href="#DejaVuSans-50"/>
       <use x="190.869141" xlink:href="#DejaVuSans-48"/>
       <use x="254.492188" xlink:href="#DejaVuSans-45"/>
       <use x="290.576172" xlink:href="#DejaVuSans-48"/>
       <use x="354.199219" xlink:href="#DejaVuSans-55"/>
      </g>
     </g>
    </g>
    <g id="xtick_8">
     <g id="line2d_8">
      <path clip-path="url(#p39f0f14ce7)" d="M 427.429052 471.071992 
L 427.429052 50.92 
" style="fill:none;stroke:#cccccc;stroke-linecap:round;stroke-opacity:0.5;stroke-width:0.5;"/>
     </g>
     <g id="text_8">
      <!-- 2020-08 -->
      <defs>
       <path d="M 31.78125 34.625 
Q 24.75 34.625 20.71875 30.859375 
Q 16.703125 27.09375 16.703125 20.515625 
Q 16.703125 13.921875 20.71875 10.15625 
Q 24.75 6.390625 31.78125 6.390625 
Q 38.8125 6.390625 42.859375 10.171875 
Q 46.921875 13.96875 46.921875 20.515625 
Q 46.921875 27.09375 42.890625 30.859375 
Q 38.875 34.625 31.78125 34.625 
z
M 21.921875 38.8125 
Q 15.578125 40.375 12.03125 44.71875 
Q 8.5 49.078125 8.5 55.328125 
Q 8.5 64.0625 14.71875 69.140625 
Q 20.953125 74.21875 31.78125 74.21875 
Q 42.671875 74.21875 48.875 69.140625 
Q 55.078125 64.0625 55.078125 55.328125 
Q 55.078125 49.078125 51.53125 44.71875 
Q 48 40.375 41.703125 38.8125 
Q 48.828125 37.15625 52.796875 32.3125 
Q 56.78125 27.484375 56.78125 20.515625 
Q 56.78125 9.90625 50.3125 4.234375 
Q 43.84375 -1.421875 31.78125 -1.421875 
Q 19.734375 -1.421875 13.25 4.234375 
Q 6.78125 9.90625 6.78125 20.515625 
Q 6.78125 27.484375 10.78125 32.3125 
Q 14.796875 37.15625 21.921875 38.8125 
z
M 18.3125 54.390625 
Q 18.3125 48.734375 21.84375 45.5625 
Q 25.390625 42.390625 31.78125 42.390625 
Q 38.140625 42.390625 41.71875 45.5625 
Q 45.3125 48.734375 45.3125 54.390625 
Q 45.3125 60.0625 41.71875 63.234375 
Q 38.140625 66.40625 31.78125 66.40625 
Q 25.390625 66.40625 21.84375 63.234375 
Q 18.3125 60.0625 18.3125 54.390625 
z
" id="DejaVuSans-56"/>
      </defs>
      <g style="fill:#262626;" transform="translate(390.66089 547.010053)rotate(-30)scale(0.22 -0.22)">
       <use xlink:href="#DejaVuSans-50"/>
       <use x="63.623047" xlink:href="#DejaVuSans-48"/>
       <use x="127.246094" xlink:href="#DejaVuSans-50"/>
       <use x="190.869141" xlink:href="#DejaVuSans-48"/>
       <use x="254.492188" xlink:href="#DejaVuSans-45"/>
       <use x="290.576172" xlink:href="#DejaVuSans-48"/>
       <use x="354.199219" xlink:href="#DejaVuSans-56"/>
      </g>
     </g>
    </g>
    <g id="xtick_9">
     <g id="line2d_9">
      <path clip-path="url(#p39f0f14ce7)" d="M 464.521193 471.071992 
L 464.521193 50.92 
" style="fill:none;stroke:#cccccc;stroke-linecap:round;stroke-opacity:0.5;stroke-width:0.5;"/>
     </g>
     <g id="text_9">
      <!-- 2020-09 -->
      <defs>
       <path d="M 10.984375 1.515625 
L 10.984375 10.5 
Q 14.703125 8.734375 18.5 7.8125 
Q 22.3125 6.890625 25.984375 6.890625 
Q 35.75 6.890625 40.890625 13.453125 
Q 46.046875 20.015625 46.78125 33.40625 
Q 43.953125 29.203125 39.59375 26.953125 
Q 35.25 24.703125 29.984375 24.703125 
Q 19.046875 24.703125 12.671875 31.3125 
Q 6.296875 37.9375 6.296875 49.421875 
Q 6.296875 60.640625 12.9375 67.421875 
Q 19.578125 74.21875 30.609375 74.21875 
Q 43.265625 74.21875 49.921875 64.515625 
Q 56.59375 54.828125 56.59375 36.375 
Q 56.59375 19.140625 48.40625 8.859375 
Q 40.234375 -1.421875 26.421875 -1.421875 
Q 22.703125 -1.421875 18.890625 -0.6875 
Q 15.09375 0.046875 10.984375 1.515625 
z
M 30.609375 32.421875 
Q 37.25 32.421875 41.125 36.953125 
Q 45.015625 41.5 45.015625 49.421875 
Q 45.015625 57.28125 41.125 61.84375 
Q 37.25 66.40625 30.609375 66.40625 
Q 23.96875 66.40625 20.09375 61.84375 
Q 16.21875 57.28125 16.21875 49.421875 
Q 16.21875 41.5 20.09375 36.953125 
Q 23.96875 32.421875 30.609375 32.421875 
z
" id="DejaVuSans-57"/>
      </defs>
      <g style="fill:#262626;" transform="translate(427.753031 547.010053)rotate(-30)scale(0.22 -0.22)">
       <use xlink:href="#DejaVuSans-50"/>
       <use x="63.623047" xlink:href="#DejaVuSans-48"/>
       <use x="127.246094" xlink:href="#DejaVuSans-50"/>
       <use x="190.869141" xlink:href="#DejaVuSans-48"/>
       <use x="254.492188" xlink:href="#DejaVuSans-45"/>
       <use x="290.576172" xlink:href="#DejaVuSans-48"/>
       <use x="354.199219" xlink:href="#DejaVuSans-57"/>
      </g>
     </g>
    </g>
    <g id="xtick_10">
     <g id="line2d_10">
      <path clip-path="url(#p39f0f14ce7)" d="M 501.613334 471.071992 
L 501.613334 50.92 
" style="fill:none;stroke:#cccccc;stroke-linecap:round;stroke-opacity:0.5;stroke-width:0.5;"/>
     </g>
     <g id="text_10">
      <!-- 2020-10 -->
      <g style="fill:#262626;" transform="translate(464.845172 547.010053)rotate(-30)scale(0.22 -0.22)">
       <use xlink:href="#DejaVuSans-50"/>
       <use x="63.623047" xlink:href="#DejaVuSans-48"/>
       <use x="127.246094" xlink:href="#DejaVuSans-50"/>
       <use x="190.869141" xlink:href="#DejaVuSans-48"/>
       <use x="254.492188" xlink:href="#DejaVuSans-45"/>
       <use x="290.576172" xlink:href="#DejaVuSans-49"/>
       <use x="354.199219" xlink:href="#DejaVuSans-48"/>
      </g>
     </g>
    </g>
    <g id="xtick_11">
     <g id="line2d_11">
      <path clip-path="url(#p39f0f14ce7)" d="M 538.705475 471.071992 
L 538.705475 50.92 
" style="fill:none;stroke:#cccccc;stroke-linecap:round;stroke-opacity:0.5;stroke-width:0.5;"/>
     </g>
     <g id="text_11">
      <!-- 2020-11 -->
      <g style="fill:#262626;" transform="translate(501.937313 547.010053)rotate(-30)scale(0.22 -0.22)">
       <use xlink:href="#DejaVuSans-50"/>
       <use x="63.623047" xlink:href="#DejaVuSans-48"/>
       <use x="127.246094" xlink:href="#DejaVuSans-50"/>
       <use x="190.869141" xlink:href="#DejaVuSans-48"/>
       <use x="254.492188" xlink:href="#DejaVuSans-45"/>
       <use x="290.576172" xlink:href="#DejaVuSans-49"/>
       <use x="354.199219" xlink:href="#DejaVuSans-49"/>
      </g>
     </g>
    </g>
    <g id="xtick_12">
     <g id="line2d_12">
      <path clip-path="url(#p39f0f14ce7)" d="M 575.797616 471.071992 
L 575.797616 50.92 
" style="fill:none;stroke:#cccccc;stroke-linecap:round;stroke-opacity:0.5;stroke-width:0.5;"/>
     </g>
     <g id="text_12">
      <!-- 2020-12 -->
      <g style="fill:#262626;" transform="translate(539.029454 547.010053)rotate(-30)scale(0.22 -0.22)">
       <use xlink:href="#DejaVuSans-50"/>
       <use x="63.623047" xlink:href="#DejaVuSans-48"/>
       <use x="127.246094" xlink:href="#DejaVuSans-50"/>
       <use x="190.869141" xlink:href="#DejaVuSans-48"/>
       <use x="254.492188" xlink:href="#DejaVuSans-45"/>
       <use x="290.576172" xlink:href="#DejaVuSans-49"/>
       <use x="354.199219" xlink:href="#DejaVuSans-50"/>
      </g>
     </g>
    </g>
    <g id="xtick_13">
     <g id="line2d_13">
      <path clip-path="url(#p39f0f14ce7)" d="M 612.889757 471.071992 
L 612.889757 50.92 
" style="fill:none;stroke:#cccccc;stroke-linecap:round;stroke-opacity:0.5;stroke-width:0.5;"/>
     </g>
     <g id="text_13">
      <!-- 2021-01 -->
      <g style="fill:#262626;" transform="translate(576.121594 547.010053)rotate(-30)scale(0.22 -0.22)">
       <use xlink:href="#DejaVuSans-50"/>
       <use x="63.623047" xlink:href="#DejaVuSans-48"/>
       <use x="127.246094" xlink:href="#DejaVuSans-50"/>
       <use x="190.869141" xlink:href="#DejaVuSans-49"/>
       <use x="254.492188" xlink:href="#DejaVuSans-45"/>
       <use x="290.576172" xlink:href="#DejaVuSans-48"/>
       <use x="354.199219" xlink:href="#DejaVuSans-49"/>
      </g>
     </g>
    </g>
    <g id="xtick_14">
     <g id="line2d_14">
      <path clip-path="url(#p39f0f14ce7)" d="M 649.981898 471.071992 
L 649.981898 50.92 
" style="fill:none;stroke:#cccccc;stroke-linecap:round;stroke-opacity:0.5;stroke-width:0.5;"/>
     </g>
     <g id="text_14">
      <!-- 2021-02 -->
      <g style="fill:#262626;" transform="translate(613.213735 547.010053)rotate(-30)scale(0.22 -0.22)">
       <use xlink:href="#DejaVuSans-50"/>
       <use x="63.623047" xlink:href="#DejaVuSans-48"/>
       <use x="127.246094" xlink:href="#DejaVuSans-50"/>
       <use x="190.869141" xlink:href="#DejaVuSans-49"/>
       <use x="254.492188" xlink:href="#DejaVuSans-45"/>
       <use x="290.576172" xlink:href="#DejaVuSans-48"/>
       <use x="354.199219" xlink:href="#DejaVuSans-50"/>
      </g>
     </g>
    </g>
    <g id="xtick_15">
     <g id="line2d_15">
      <path clip-path="url(#p39f0f14ce7)" d="M 687.074039 471.071992 
L 687.074039 50.92 
" style="fill:none;stroke:#cccccc;stroke-linecap:round;stroke-opacity:0.5;stroke-width:0.5;"/>
     </g>
     <g id="text_15">
      <!-- 2021-03 -->
      <g style="fill:#262626;" transform="translate(650.305876 547.010053)rotate(-30)scale(0.22 -0.22)">
       <use xlink:href="#DejaVuSans-50"/>
       <use x="63.623047" xlink:href="#DejaVuSans-48"/>
       <use x="127.246094" xlink:href="#DejaVuSans-50"/>
       <use x="190.869141" xlink:href="#DejaVuSans-49"/>
       <use x="254.492188" xlink:href="#DejaVuSans-45"/>
       <use x="290.576172" xlink:href="#DejaVuSans-48"/>
       <use x="354.199219" xlink:href="#DejaVuSans-51"/>
      </g>
     </g>
    </g>
    <g id="xtick_16">
     <g id="line2d_16">
      <path clip-path="url(#p39f0f14ce7)" d="M 724.166179 471.071992 
L 724.166179 50.92 
" style="fill:none;stroke:#cccccc;stroke-linecap:round;stroke-opacity:0.5;stroke-width:0.5;"/>
     </g>
     <g id="text_16">
      <!-- 2021-04 -->
      <g style="fill:#262626;" transform="translate(687.398017 547.010053)rotate(-30)scale(0.22 -0.22)">
       <use xlink:href="#DejaVuSans-50"/>
       <use x="63.623047" xlink:href="#DejaVuSans-48"/>
       <use x="127.246094" xlink:href="#DejaVuSans-50"/>
       <use x="190.869141" xlink:href="#DejaVuSans-49"/>
       <use x="254.492188" xlink:href="#DejaVuSans-45"/>
       <use x="290.576172" xlink:href="#DejaVuSans-48"/>
       <use x="354.199219" xlink:href="#DejaVuSans-52"/>
      </g>
     </g>
    </g>
    <g id="xtick_17">
     <g id="line2d_17">
      <path clip-path="url(#p39f0f14ce7)" d="M 761.25832 471.071992 
L 761.25832 50.92 
" style="fill:none;stroke:#cccccc;stroke-linecap:round;stroke-opacity:0.5;stroke-width:0.5;"/>
     </g>
     <g id="text_17">
      <!-- 2021-05 -->
      <g style="fill:#262626;" transform="translate(724.490158 547.010053)rotate(-30)scale(0.22 -0.22)">
       <use xlink:href="#DejaVuSans-50"/>
       <use x="63.623047" xlink:href="#DejaVuSans-48"/>
       <use x="127.246094" xlink:href="#DejaVuSans-50"/>
       <use x="190.869141" xlink:href="#DejaVuSans-49"/>
       <use x="254.492188" xlink:href="#DejaVuSans-45"/>
       <use x="290.576172" xlink:href="#DejaVuSans-48"/>
       <use x="354.199219" xlink:href="#DejaVuSans-53"/>
      </g>
     </g>
    </g>
    <g id="xtick_18">
     <g id="line2d_18">
      <path clip-path="url(#p39f0f14ce7)" d="M 798.350461 471.071992 
L 798.350461 50.92 
" style="fill:none;stroke:#cccccc;stroke-linecap:round;stroke-opacity:0.5;stroke-width:0.5;"/>
     </g>
     <g id="text_18">
      <!-- 2021-06 -->
      <g style="fill:#262626;" transform="translate(761.582299 547.010053)rotate(-30)scale(0.22 -0.22)">
       <use xlink:href="#DejaVuSans-50"/>
       <use x="63.623047" xlink:href="#DejaVuSans-48"/>
       <use x="127.246094" xlink:href="#DejaVuSans-50"/>
       <use x="190.869141" xlink:href="#DejaVuSans-49"/>
       <use x="254.492188" xlink:href="#DejaVuSans-45"/>
       <use x="290.576172" xlink:href="#DejaVuSans-48"/>
       <use x="354.199219" xlink:href="#DejaVuSans-54"/>
      </g>
     </g>
    </g>
    <g id="xtick_19">
     <g id="line2d_19">
      <path clip-path="url(#p39f0f14ce7)" d="M 835.442602 471.071992 
L 835.442602 50.92 
" style="fill:none;stroke:#cccccc;stroke-linecap:round;stroke-opacity:0.5;stroke-width:0.5;"/>
     </g>
     <g id="text_19">
      <!-- 2021-07 -->
      <g style="fill:#262626;" transform="translate(798.67444 547.010053)rotate(-30)scale(0.22 -0.22)">
       <use xlink:href="#DejaVuSans-50"/>
       <use x="63.623047" xlink:href="#DejaVuSans-48"/>
       <use x="127.246094" xlink:href="#DejaVuSans-50"/>
       <use x="190.869141" xlink:href="#DejaVuSans-49"/>
       <use x="254.492188" xlink:href="#DejaVuSans-45"/>
       <use x="290.576172" xlink:href="#DejaVuSans-48"/>
       <use x="354.199219" xlink:href="#DejaVuSans-55"/>
      </g>
     </g>
    </g>
    <g id="xtick_20">
     <g id="line2d_20">
      <path clip-path="url(#p39f0f14ce7)" d="M 872.534743 471.071992 
L 872.534743 50.92 
" style="fill:none;stroke:#cccccc;stroke-linecap:round;stroke-opacity:0.5;stroke-width:0.5;"/>
     </g>
     <g id="text_20">
      <!-- 2021-08 -->
      <g style="fill:#262626;" transform="translate(835.766581 547.010053)rotate(-30)scale(0.22 -0.22)">
       <use xlink:href="#DejaVuSans-50"/>
       <use x="63.623047" xlink:href="#DejaVuSans-48"/>
       <use x="127.246094" xlink:href="#DejaVuSans-50"/>
       <use x="190.869141" xlink:href="#DejaVuSans-49"/>
       <use x="254.492188" xlink:href="#DejaVuSans-45"/>
       <use x="290.576172" xlink:href="#DejaVuSans-48"/>
       <use x="354.199219" xlink:href="#DejaVuSans-56"/>
      </g>
     </g>
    </g>
    <g id="xtick_21">
     <g id="line2d_21">
      <path clip-path="url(#p39f0f14ce7)" d="M 909.626884 471.071992 
L 909.626884 50.92 
" style="fill:none;stroke:#cccccc;stroke-linecap:round;stroke-opacity:0.5;stroke-width:0.5;"/>
     </g>
     <g id="text_21">
      <!-- 2021-09 -->
      <g style="fill:#262626;" transform="translate(872.858722 547.010053)rotate(-30)scale(0.22 -0.22)">
       <use xlink:href="#DejaVuSans-50"/>
       <use x="63.623047" xlink:href="#DejaVuSans-48"/>
       <use x="127.246094" xlink:href="#DejaVuSans-50"/>
       <use x="190.869141" xlink:href="#DejaVuSans-49"/>
       <use x="254.492188" xlink:href="#DejaVuSans-45"/>
       <use x="290.576172" xlink:href="#DejaVuSans-48"/>
       <use x="354.199219" xlink:href="#DejaVuSans-57"/>
      </g>
     </g>
    </g>
    <g id="xtick_22">
     <g id="line2d_22">
      <path clip-path="url(#p39f0f14ce7)" d="M 946.719025 471.071992 
L 946.719025 50.92 
" style="fill:none;stroke:#cccccc;stroke-linecap:round;stroke-opacity:0.5;stroke-width:0.5;"/>
     </g>
     <g id="text_22">
      <!-- 2021-10 -->
      <g style="fill:#262626;" transform="translate(909.950862 547.010053)rotate(-30)scale(0.22 -0.22)">
       <use xlink:href="#DejaVuSans-50"/>
       <use x="63.623047" xlink:href="#DejaVuSans-48"/>
       <use x="127.246094" xlink:href="#DejaVuSans-50"/>
       <use x="190.869141" xlink:href="#DejaVuSans-49"/>
       <use x="254.492188" xlink:href="#DejaVuSans-45"/>
       <use x="290.576172" xlink:href="#DejaVuSans-49"/>
       <use x="354.199219" xlink:href="#DejaVuSans-48"/>
      </g>
     </g>
    </g>
    <g id="xtick_23">
     <g id="line2d_23">
      <path clip-path="url(#p39f0f14ce7)" d="M 983.811166 471.071992 
L 983.811166 50.92 
" style="fill:none;stroke:#cccccc;stroke-linecap:round;stroke-opacity:0.5;stroke-width:0.5;"/>
     </g>
     <g id="text_23">
      <!-- 2021-11 -->
      <g style="fill:#262626;" transform="translate(947.043003 547.010053)rotate(-30)scale(0.22 -0.22)">
       <use xlink:href="#DejaVuSans-50"/>
       <use x="63.623047" xlink:href="#DejaVuSans-48"/>
       <use x="127.246094" xlink:href="#DejaVuSans-50"/>
       <use x="190.869141" xlink:href="#DejaVuSans-49"/>
       <use x="254.492188" xlink:href="#DejaVuSans-45"/>
       <use x="290.576172" xlink:href="#DejaVuSans-49"/>
       <use x="354.199219" xlink:href="#DejaVuSans-49"/>
      </g>
     </g>
    </g>
    <g id="xtick_24">
     <g id="line2d_24">
      <path clip-path="url(#p39f0f14ce7)" d="M 1020.903307 471.071992 
L 1020.903307 50.92 
" style="fill:none;stroke:#cccccc;stroke-linecap:round;stroke-opacity:0.5;stroke-width:0.5;"/>
     </g>
     <g id="text_24">
      <!-- 2021-12 -->
      <g style="fill:#262626;" transform="translate(984.135144 547.010053)rotate(-30)scale(0.22 -0.22)">
       <use xlink:href="#DejaVuSans-50"/>
       <use x="63.623047" xlink:href="#DejaVuSans-48"/>
       <use x="127.246094" xlink:href="#DejaVuSans-50"/>
       <use x="190.869141" xlink:href="#DejaVuSans-49"/>
       <use x="254.492188" xlink:href="#DejaVuSans-45"/>
       <use x="290.576172" xlink:href="#DejaVuSans-49"/>
       <use x="354.199219" xlink:href="#DejaVuSans-50"/>
      </g>
     </g>
    </g>
    <g id="xtick_25">
     <g id="line2d_25">
      <path clip-path="url(#p39f0f14ce7)" d="M 1057.995447 471.071992 
L 1057.995447 50.92 
" style="fill:none;stroke:#cccccc;stroke-linecap:round;stroke-opacity:0.5;stroke-width:0.5;"/>
     </g>
     <g id="text_25">
      <!-- 2022-01 -->
      <g style="fill:#262626;" transform="translate(1021.227285 547.010053)rotate(-30)scale(0.22 -0.22)">
       <use xlink:href="#DejaVuSans-50"/>
       <use x="63.623047" xlink:href="#DejaVuSans-48"/>
       <use x="127.246094" xlink:href="#DejaVuSans-50"/>
       <use x="190.869141" xlink:href="#DejaVuSans-50"/>
       <use x="254.492188" xlink:href="#DejaVuSans-45"/>
       <use x="290.576172" xlink:href="#DejaVuSans-48"/>
       <use x="354.199219" xlink:href="#DejaVuSans-49"/>
      </g>
     </g>
    </g>
    <g id="xtick_26">
     <g id="line2d_26">
      <path clip-path="url(#p39f0f14ce7)" d="M 1095.087588 471.071992 
L 1095.087588 50.92 
" style="fill:none;stroke:#cccccc;stroke-linecap:round;stroke-opacity:0.5;stroke-width:0.5;"/>
     </g>
     <g id="text_26">
      <!-- 2022-02 -->
      <g style="fill:#262626;" transform="translate(1058.319426 547.010053)rotate(-30)scale(0.22 -0.22)">
       <use xlink:href="#DejaVuSans-50"/>
       <use x="63.623047" xlink:href="#DejaVuSans-48"/>
       <use x="127.246094" xlink:href="#DejaVuSans-50"/>
       <use x="190.869141" xlink:href="#DejaVuSans-50"/>
       <use x="254.492188" xlink:href="#DejaVuSans-45"/>
       <use x="290.576172" xlink:href="#DejaVuSans-48"/>
       <use x="354.199219" xlink:href="#DejaVuSans-50"/>
      </g>
     </g>
    </g>
    <g id="xtick_27">
     <g id="line2d_27">
      <path clip-path="url(#p39f0f14ce7)" d="M 1132.179729 471.071992 
L 1132.179729 50.92 
" style="fill:none;stroke:#cccccc;stroke-linecap:round;stroke-opacity:0.5;stroke-width:0.5;"/>
     </g>
     <g id="text_27">
      <!-- 2022-03 -->
      <g style="fill:#262626;" transform="translate(1095.411567 547.010053)rotate(-30)scale(0.22 -0.22)">
       <use xlink:href="#DejaVuSans-50"/>
       <use x="63.623047" xlink:href="#DejaVuSans-48"/>
       <use x="127.246094" xlink:href="#DejaVuSans-50"/>
       <use x="190.869141" xlink:href="#DejaVuSans-50"/>
       <use x="254.492188" xlink:href="#DejaVuSans-45"/>
       <use x="290.576172" xlink:href="#DejaVuSans-48"/>
       <use x="354.199219" xlink:href="#DejaVuSans-51"/>
      </g>
     </g>
    </g>
    <g id="xtick_28">
     <g id="line2d_28">
      <path clip-path="url(#p39f0f14ce7)" d="M 1169.27187 471.071992 
L 1169.27187 50.92 
" style="fill:none;stroke:#cccccc;stroke-linecap:round;stroke-opacity:0.5;stroke-width:0.5;"/>
     </g>
     <g id="text_28">
      <!-- 2022-04 -->
      <g style="fill:#262626;" transform="translate(1132.503708 547.010053)rotate(-30)scale(0.22 -0.22)">
       <use xlink:href="#DejaVuSans-50"/>
       <use x="63.623047" xlink:href="#DejaVuSans-48"/>
       <use x="127.246094" xlink:href="#DejaVuSans-50"/>
       <use x="190.869141" xlink:href="#DejaVuSans-50"/>
       <use x="254.492188" xlink:href="#DejaVuSans-45"/>
       <use x="290.576172" xlink:href="#DejaVuSans-48"/>
       <use x="354.199219" xlink:href="#DejaVuSans-52"/>
      </g>
     </g>
    </g>
    <g id="xtick_29">
     <g id="line2d_29">
      <path clip-path="url(#p39f0f14ce7)" d="M 1206.364011 471.071992 
L 1206.364011 50.92 
" style="fill:none;stroke:#cccccc;stroke-linecap:round;stroke-opacity:0.5;stroke-width:0.5;"/>
     </g>
     <g id="text_29">
      <!-- 2022-05 -->
      <g style="fill:#262626;" transform="translate(1169.595849 547.010053)rotate(-30)scale(0.22 -0.22)">
       <use xlink:href="#DejaVuSans-50"/>
       <use x="63.623047" xlink:href="#DejaVuSans-48"/>
       <use x="127.246094" xlink:href="#DejaVuSans-50"/>
       <use x="190.869141" xlink:href="#DejaVuSans-50"/>
       <use x="254.492188" xlink:href="#DejaVuSans-45"/>
       <use x="290.576172" xlink:href="#DejaVuSans-48"/>
       <use x="354.199219" xlink:href="#DejaVuSans-53"/>
      </g>
     </g>
    </g>
    <g id="xtick_30">
     <g id="line2d_30">
      <path clip-path="url(#p39f0f14ce7)" d="M 1243.456152 471.071992 
L 1243.456152 50.92 
" style="fill:none;stroke:#cccccc;stroke-linecap:round;stroke-opacity:0.5;stroke-width:0.5;"/>
     </g>
     <g id="text_30">
      <!-- 2022-06 -->
      <g style="fill:#262626;" transform="translate(1206.68799 547.010053)rotate(-30)scale(0.22 -0.22)">
       <use xlink:href="#DejaVuSans-50"/>
       <use x="63.623047" xlink:href="#DejaVuSans-48"/>
       <use x="127.246094" xlink:href="#DejaVuSans-50"/>
       <use x="190.869141" xlink:href="#DejaVuSans-50"/>
       <use x="254.492188" xlink:href="#DejaVuSans-45"/>
       <use x="290.576172" xlink:href="#DejaVuSans-48"/>
       <use x="354.199219" xlink:href="#DejaVuSans-54"/>
      </g>
     </g>
    </g>
    <g id="xtick_31">
     <g id="line2d_31">
      <path clip-path="url(#p39f0f14ce7)" d="M 1280.548293 471.071992 
L 1280.548293 50.92 
" style="fill:none;stroke:#cccccc;stroke-linecap:round;stroke-opacity:0.5;stroke-width:0.5;"/>
     </g>
     <g id="text_31">
      <!-- 2022-07 -->
      <g style="fill:#262626;" transform="translate(1243.780131 547.010053)rotate(-30)scale(0.22 -0.22)">
       <use xlink:href="#DejaVuSans-50"/>
       <use x="63.623047" xlink:href="#DejaVuSans-48"/>
       <use x="127.246094" xlink:href="#DejaVuSans-50"/>
       <use x="190.869141" xlink:href="#DejaVuSans-50"/>
       <use x="254.492188" xlink:href="#DejaVuSans-45"/>
       <use x="290.576172" xlink:href="#DejaVuSans-48"/>
       <use x="354.199219" xlink:href="#DejaVuSans-55"/>
      </g>
     </g>
    </g>
    <g id="xtick_32">
     <g id="line2d_32">
      <path clip-path="url(#p39f0f14ce7)" d="M 1317.640434 471.071992 
L 1317.640434 50.92 
" style="fill:none;stroke:#cccccc;stroke-linecap:round;stroke-opacity:0.5;stroke-width:0.5;"/>
     </g>
     <g id="text_32">
      <!-- 2022-08 -->
      <g style="fill:#262626;" transform="translate(1280.872271 547.010053)rotate(-30)scale(0.22 -0.22)">
       <use xlink:href="#DejaVuSans-50"/>
       <use x="63.623047" xlink:href="#DejaVuSans-48"/>
       <use x="127.246094" xlink:href="#DejaVuSans-50"/>
       <use x="190.869141" xlink:href="#DejaVuSans-50"/>
       <use x="254.492188" xlink:href="#DejaVuSans-45"/>
       <use x="290.576172" xlink:href="#DejaVuSans-48"/>
       <use x="354.199219" xlink:href="#DejaVuSans-56"/>
      </g>
     </g>
    </g>
    <g id="xtick_33">
     <g id="line2d_33">
      <path clip-path="url(#p39f0f14ce7)" d="M 1354.732575 471.071992 
L 1354.732575 50.92 
" style="fill:none;stroke:#cccccc;stroke-linecap:round;stroke-opacity:0.5;stroke-width:0.5;"/>
     </g>
     <g id="text_33">
      <!-- 2022-09 -->
      <g style="fill:#262626;" transform="translate(1317.964412 547.010053)rotate(-30)scale(0.22 -0.22)">
       <use xlink:href="#DejaVuSans-50"/>
       <use x="63.623047" xlink:href="#DejaVuSans-48"/>
       <use x="127.246094" xlink:href="#DejaVuSans-50"/>
       <use x="190.869141" xlink:href="#DejaVuSans-50"/>
       <use x="254.492188" xlink:href="#DejaVuSans-45"/>
       <use x="290.576172" xlink:href="#DejaVuSans-48"/>
       <use x="354.199219" xlink:href="#DejaVuSans-57"/>
      </g>
     </g>
    </g>
    <g id="xtick_34"/>
    <g id="xtick_35"/>
    <g id="xtick_36"/>
    <g id="xtick_37"/>
    <g id="xtick_38"/>
    <g id="xtick_39"/>
    <g id="xtick_40"/>
    <g id="xtick_41"/>
    <g id="xtick_42"/>
    <g id="xtick_43"/>
    <g id="xtick_44"/>
    <g id="xtick_45"/>
    <g id="xtick_46"/>
    <g id="xtick_47"/>
    <g id="xtick_48"/>
    <g id="xtick_49"/>
    <g id="xtick_50"/>
    <g id="xtick_51"/>
    <g id="xtick_52"/>
    <g id="xtick_53"/>
    <g id="xtick_54"/>
    <g id="xtick_55"/>
    <g id="xtick_56"/>
    <g id="xtick_57"/>
    <g id="xtick_58"/>
    <g id="xtick_59"/>
    <g id="xtick_60"/>
    <g id="xtick_61"/>
    <g id="xtick_62"/>
    <g id="xtick_63"/>
    <g id="xtick_64"/>
    <g id="xtick_65"/>
    <g id="xtick_66"/>
    <g id="xtick_67"/>
    <g id="xtick_68"/>
    <g id="xtick_69"/>
    <g id="xtick_70"/>
    <g id="xtick_71"/>
    <g id="xtick_72"/>
    <g id="xtick_73"/>
    <g id="xtick_74"/>
    <g id="xtick_75"/>
    <g id="xtick_76"/>
    <g id="xtick_77"/>
    <g id="xtick_78"/>
    <g id="xtick_79"/>
    <g id="xtick_80"/>
    <g id="xtick_81"/>
    <g id="xtick_82"/>
    <g id="xtick_83"/>
    <g id="xtick_84"/>
    <g id="xtick_85"/>
    <g id="xtick_86"/>
    <g id="xtick_87"/>
    <g id="xtick_88"/>
    <g id="xtick_89"/>
    <g id="xtick_90"/>
    <g id="xtick_91"/>
    <g id="xtick_92"/>
    <g id="xtick_93"/>
    <g id="xtick_94"/>
    <g id="xtick_95"/>
    <g id="xtick_96"/>
    <g id="xtick_97"/>
    <g id="xtick_98"/>
    <g id="xtick_99"/>
    <g id="xtick_100"/>
    <g id="xtick_101"/>
    <g id="xtick_102"/>
    <g id="xtick_103"/>
    <g id="xtick_104"/>
    <g id="xtick_105"/>
    <g id="xtick_106"/>
    <g id="xtick_107"/>
    <g id="xtick_108"/>
    <g id="xtick_109"/>
    <g id="xtick_110"/>
    <g id="xtick_111"/>
    <g id="xtick_112"/>
    <g id="xtick_113"/>
    <g id="xtick_114"/>
    <g id="xtick_115"/>
    <g id="xtick_116"/>
    <g id="xtick_117"/>
    <g id="xtick_118"/>
    <g id="xtick_119"/>
    <g id="xtick_120"/>
    <g id="xtick_121"/>
    <g id="xtick_122"/>
    <g id="xtick_123"/>
    <g id="xtick_124"/>
    <g id="xtick_125"/>
    <g id="xtick_126"/>
    <g id="xtick_127"/>
    <g id="xtick_128"/>
    <g id="xtick_129"/>
    <g id="xtick_130"/>
    <g id="xtick_131"/>
    <g id="xtick_132"/>
    <g id="xtick_133"/>
    <g id="xtick_134"/>
    <g id="xtick_135"/>
    <g id="xtick_136"/>
    <g id="xtick_137"/>
    <g id="xtick_138"/>
    <g id="xtick_139"/>
    <g id="xtick_140"/>
    <g id="xtick_141"/>
    <g id="xtick_142"/>
    <g id="xtick_143"/>
    <g id="xtick_144"/>
    <g id="xtick_145"/>
    <g id="xtick_146"/>
    <g id="xtick_147"/>
    <g id="xtick_148"/>
    <g id="xtick_149"/>
    <g id="xtick_150"/>
    <g id="xtick_151"/>
    <g id="xtick_152"/>
    <g id="xtick_153"/>
    <g id="xtick_154"/>
    <g id="xtick_155"/>
    <g id="xtick_156"/>
    <g id="xtick_157"/>
    <g id="xtick_158"/>
    <g id="xtick_159"/>
    <g id="xtick_160"/>
    <g id="xtick_161"/>
    <g id="xtick_162"/>
    <g id="xtick_163"/>
    <g id="xtick_164"/>
    <g id="xtick_165"/>
    <g id="xtick_166"/>
    <g id="xtick_167"/>
    <g id="xtick_168"/>
    <g id="xtick_169"/>
    <g id="xtick_170"/>
    <g id="xtick_171"/>
    <g id="xtick_172"/>
    <g id="xtick_173"/>
    <g id="xtick_174"/>
    <g id="xtick_175"/>
   </g>
   <g id="matplotlib.axis_2">
    <g id="ytick_1">
     <g id="line2d_34">
      <path clip-path="url(#p39f0f14ce7)" d="M 108.436641 364.503956 
L 1414.08 364.503956 
" style="fill:none;stroke:#cccccc;stroke-linecap:round;stroke-width:2;"/>
     </g>
     <g id="text_34">
      <!-- $\mathdefault{10^{3}}$ -->
      <g style="fill:#262626;" transform="translate(54.216641 372.862237)scale(0.22 -0.22)">
       <use transform="translate(0 0.765625)" xlink:href="#DejaVuSans-49"/>
       <use transform="translate(63.623047 0.765625)" xlink:href="#DejaVuSans-48"/>
       <use transform="translate(128.203125 39.046875)scale(0.7)" xlink:href="#DejaVuSans-51"/>
      </g>
     </g>
    </g>
    <g id="ytick_2">
     <g id="line2d_35">
      <path clip-path="url(#p39f0f14ce7)" d="M 108.436641 213.704741 
L 1414.08 213.704741 
" style="fill:none;stroke:#cccccc;stroke-linecap:round;stroke-width:2;"/>
     </g>
     <g id="text_35">
      <!-- $\mathdefault{10^{4}}$ -->
      <g style="fill:#262626;" transform="translate(54.216641 222.063022)scale(0.22 -0.22)">
       <use transform="translate(0 0.684375)" xlink:href="#DejaVuSans-49"/>
       <use transform="translate(63.623047 0.684375)" xlink:href="#DejaVuSans-48"/>
       <use transform="translate(128.203125 38.965625)scale(0.7)" xlink:href="#DejaVuSans-52"/>
      </g>
     </g>
    </g>
    <g id="ytick_3">
     <g id="line2d_36">
      <path clip-path="url(#p39f0f14ce7)" d="M 108.436641 62.905526 
L 1414.08 62.905526 
" style="fill:none;stroke:#cccccc;stroke-linecap:round;stroke-width:2;"/>
     </g>
     <g id="text_36">
      <!-- $\mathdefault{10^{5}}$ -->
      <g style="fill:#262626;" transform="translate(54.216641 71.263807)scale(0.22 -0.22)">
       <use transform="translate(0 0.684375)" xlink:href="#DejaVuSans-49"/>
       <use transform="translate(63.623047 0.684375)" xlink:href="#DejaVuSans-48"/>
       <use transform="translate(128.203125 38.965625)scale(0.7)" xlink:href="#DejaVuSans-53"/>
      </g>
     </g>
    </g>
    <g id="ytick_4">
     <g id="line2d_37">
      <path clip-path="url(#p39f0f14ce7)" d="M 108.436641 469.908084 
L 1414.08 469.908084 
" style="fill:none;stroke:#cccccc;stroke-dasharray:1.85,0.8;stroke-dashoffset:0;stroke-opacity:0.5;stroke-width:0.5;"/>
     </g>
    </g>
    <g id="ytick_5">
     <g id="line2d_38">
      <path clip-path="url(#p39f0f14ce7)" d="M 108.436641 443.353661 
L 1414.08 443.353661 
" style="fill:none;stroke:#cccccc;stroke-dasharray:1.85,0.8;stroke-dashoffset:0;stroke-opacity:0.5;stroke-width:0.5;"/>
     </g>
    </g>
    <g id="ytick_6">
     <g id="line2d_39">
      <path clip-path="url(#p39f0f14ce7)" d="M 108.436641 424.512997 
L 1414.08 424.512997 
" style="fill:none;stroke:#cccccc;stroke-dasharray:1.85,0.8;stroke-dashoffset:0;stroke-opacity:0.5;stroke-width:0.5;"/>
     </g>
    </g>
    <g id="ytick_7">
     <g id="line2d_40">
      <path clip-path="url(#p39f0f14ce7)" d="M 108.436641 409.899043 
L 1414.08 409.899043 
" style="fill:none;stroke:#cccccc;stroke-dasharray:1.85,0.8;stroke-dashoffset:0;stroke-opacity:0.5;stroke-width:0.5;"/>
     </g>
    </g>
    <g id="ytick_8">
     <g id="line2d_41">
      <path clip-path="url(#p39f0f14ce7)" d="M 108.436641 397.958574 
L 1414.08 397.958574 
" style="fill:none;stroke:#cccccc;stroke-dasharray:1.85,0.8;stroke-dashoffset:0;stroke-opacity:0.5;stroke-width:0.5;"/>
     </g>
    </g>
    <g id="ytick_9">
     <g id="line2d_42">
      <path clip-path="url(#p39f0f14ce7)" d="M 108.436641 387.86305 
L 1414.08 387.86305 
" style="fill:none;stroke:#cccccc;stroke-dasharray:1.85,0.8;stroke-dashoffset:0;stroke-opacity:0.5;stroke-width:0.5;"/>
     </g>
    </g>
    <g id="ytick_10">
     <g id="line2d_43">
      <path clip-path="url(#p39f0f14ce7)" d="M 108.436641 379.11791 
L 1414.08 379.11791 
" style="fill:none;stroke:#cccccc;stroke-dasharray:1.85,0.8;stroke-dashoffset:0;stroke-opacity:0.5;stroke-width:0.5;"/>
     </g>
    </g>
    <g id="ytick_11">
     <g id="line2d_44">
      <path clip-path="url(#p39f0f14ce7)" d="M 108.436641 371.40415 
L 1414.08 371.40415 
" style="fill:none;stroke:#cccccc;stroke-dasharray:1.85,0.8;stroke-dashoffset:0;stroke-opacity:0.5;stroke-width:0.5;"/>
     </g>
    </g>
    <g id="ytick_12">
     <g id="line2d_45">
      <path clip-path="url(#p39f0f14ce7)" d="M 108.436641 319.108869 
L 1414.08 319.108869 
" style="fill:none;stroke:#cccccc;stroke-dasharray:1.85,0.8;stroke-dashoffset:0;stroke-opacity:0.5;stroke-width:0.5;"/>
     </g>
    </g>
    <g id="ytick_13">
     <g id="line2d_46">
      <path clip-path="url(#p39f0f14ce7)" d="M 108.436641 292.554446 
L 1414.08 292.554446 
" style="fill:none;stroke:#cccccc;stroke-dasharray:1.85,0.8;stroke-dashoffset:0;stroke-opacity:0.5;stroke-width:0.5;"/>
     </g>
    </g>
    <g id="ytick_14">
     <g id="line2d_47">
      <path clip-path="url(#p39f0f14ce7)" d="M 108.436641 273.713782 
L 1414.08 273.713782 
" style="fill:none;stroke:#cccccc;stroke-dasharray:1.85,0.8;stroke-dashoffset:0;stroke-opacity:0.5;stroke-width:0.5;"/>
     </g>
    </g>
    <g id="ytick_15">
     <g id="line2d_48">
      <path clip-path="url(#p39f0f14ce7)" d="M 108.436641 259.099828 
L 1414.08 259.099828 
" style="fill:none;stroke:#cccccc;stroke-dasharray:1.85,0.8;stroke-dashoffset:0;stroke-opacity:0.5;stroke-width:0.5;"/>
     </g>
    </g>
    <g id="ytick_16">
     <g id="line2d_49">
      <path clip-path="url(#p39f0f14ce7)" d="M 108.436641 247.159358 
L 1414.08 247.159358 
" style="fill:none;stroke:#cccccc;stroke-dasharray:1.85,0.8;stroke-dashoffset:0;stroke-opacity:0.5;stroke-width:0.5;"/>
     </g>
    </g>
    <g id="ytick_17">
     <g id="line2d_50">
      <path clip-path="url(#p39f0f14ce7)" d="M 108.436641 237.063835 
L 1414.08 237.063835 
" style="fill:none;stroke:#cccccc;stroke-dasharray:1.85,0.8;stroke-dashoffset:0;stroke-opacity:0.5;stroke-width:0.5;"/>
     </g>
    </g>
    <g id="ytick_18">
     <g id="line2d_51">
      <path clip-path="url(#p39f0f14ce7)" d="M 108.436641 228.318695 
L 1414.08 228.318695 
" style="fill:none;stroke:#cccccc;stroke-dasharray:1.85,0.8;stroke-dashoffset:0;stroke-opacity:0.5;stroke-width:0.5;"/>
     </g>
    </g>
    <g id="ytick_19">
     <g id="line2d_52">
      <path clip-path="url(#p39f0f14ce7)" d="M 108.436641 220.604935 
L 1414.08 220.604935 
" style="fill:none;stroke:#cccccc;stroke-dasharray:1.85,0.8;stroke-dashoffset:0;stroke-opacity:0.5;stroke-width:0.5;"/>
     </g>
    </g>
    <g id="ytick_20">
     <g id="line2d_53">
      <path clip-path="url(#p39f0f14ce7)" d="M 108.436641 168.309654 
L 1414.08 168.309654 
" style="fill:none;stroke:#cccccc;stroke-dasharray:1.85,0.8;stroke-dashoffset:0;stroke-opacity:0.5;stroke-width:0.5;"/>
     </g>
    </g>
    <g id="ytick_21">
     <g id="line2d_54">
      <path clip-path="url(#p39f0f14ce7)" d="M 108.436641 141.75523 
L 1414.08 141.75523 
" style="fill:none;stroke:#cccccc;stroke-dasharray:1.85,0.8;stroke-dashoffset:0;stroke-opacity:0.5;stroke-width:0.5;"/>
     </g>
    </g>
    <g id="ytick_22">
     <g id="line2d_55">
      <path clip-path="url(#p39f0f14ce7)" d="M 108.436641 122.914567 
L 1414.08 122.914567 
" style="fill:none;stroke:#cccccc;stroke-dasharray:1.85,0.8;stroke-dashoffset:0;stroke-opacity:0.5;stroke-width:0.5;"/>
     </g>
    </g>
    <g id="ytick_23">
     <g id="line2d_56">
      <path clip-path="url(#p39f0f14ce7)" d="M 108.436641 108.300613 
L 1414.08 108.300613 
" style="fill:none;stroke:#cccccc;stroke-dasharray:1.85,0.8;stroke-dashoffset:0;stroke-opacity:0.5;stroke-width:0.5;"/>
     </g>
    </g>
    <g id="ytick_24">
     <g id="line2d_57">
      <path clip-path="url(#p39f0f14ce7)" d="M 108.436641 96.360143 
L 1414.08 96.360143 
" style="fill:none;stroke:#cccccc;stroke-dasharray:1.85,0.8;stroke-dashoffset:0;stroke-opacity:0.5;stroke-width:0.5;"/>
     </g>
    </g>
    <g id="ytick_25">
     <g id="line2d_58">
      <path clip-path="url(#p39f0f14ce7)" d="M 108.436641 86.26462 
L 1414.08 86.26462 
" style="fill:none;stroke:#cccccc;stroke-dasharray:1.85,0.8;stroke-dashoffset:0;stroke-opacity:0.5;stroke-width:0.5;"/>
     </g>
    </g>
    <g id="ytick_26">
     <g id="line2d_59">
      <path clip-path="url(#p39f0f14ce7)" d="M 108.436641 77.51948 
L 1414.08 77.51948 
" style="fill:none;stroke:#cccccc;stroke-dasharray:1.85,0.8;stroke-dashoffset:0;stroke-opacity:0.5;stroke-width:0.5;"/>
     </g>
    </g>
    <g id="ytick_27">
     <g id="line2d_60">
      <path clip-path="url(#p39f0f14ce7)" d="M 108.436641 69.80572 
L 1414.08 69.80572 
" style="fill:none;stroke:#cccccc;stroke-dasharray:1.85,0.8;stroke-dashoffset:0;stroke-opacity:0.5;stroke-width:0.5;"/>
     </g>
    </g>
    <g id="text_37">
     <!-- Number of unique mutations -->
     <defs>
      <path d="M 9.8125 72.90625 
L 23.09375 72.90625 
L 55.421875 11.921875 
L 55.421875 72.90625 
L 64.984375 72.90625 
L 64.984375 0 
L 51.703125 0 
L 19.390625 60.984375 
L 19.390625 0 
L 9.8125 0 
z
" id="DejaVuSans-78"/>
      <path d="M 8.5 21.578125 
L 8.5 54.6875 
L 17.484375 54.6875 
L 17.484375 21.921875 
Q 17.484375 14.15625 20.5 10.265625 
Q 23.53125 6.390625 29.59375 6.390625 
Q 36.859375 6.390625 41.078125 11.03125 
Q 45.3125 15.671875 45.3125 23.6875 
L 45.3125 54.6875 
L 54.296875 54.6875 
L 54.296875 0 
L 45.3125 0 
L 45.3125 8.40625 
Q 42.046875 3.421875 37.71875 1 
Q 33.40625 -1.421875 27.6875 -1.421875 
Q 18.265625 -1.421875 13.375 4.4375 
Q 8.5 10.296875 8.5 21.578125 
z
M 31.109375 56 
z
" id="DejaVuSans-117"/>
      <path d="M 52 44.1875 
Q 55.375 50.25 60.0625 53.125 
Q 64.75 56 71.09375 56 
Q 79.640625 56 84.28125 50.015625 
Q 88.921875 44.046875 88.921875 33.015625 
L 88.921875 0 
L 79.890625 0 
L 79.890625 32.71875 
Q 79.890625 40.578125 77.09375 44.375 
Q 74.3125 48.1875 68.609375 48.1875 
Q 61.625 48.1875 57.5625 43.546875 
Q 53.515625 38.921875 53.515625 30.90625 
L 53.515625 0 
L 44.484375 0 
L 44.484375 32.71875 
Q 44.484375 40.625 41.703125 44.40625 
Q 38.921875 48.1875 33.109375 48.1875 
Q 26.21875 48.1875 22.15625 43.53125 
Q 18.109375 38.875 18.109375 30.90625 
L 18.109375 0 
L 9.078125 0 
L 9.078125 54.6875 
L 18.109375 54.6875 
L 18.109375 46.1875 
Q 21.1875 51.21875 25.484375 53.609375 
Q 29.78125 56 35.6875 56 
Q 41.65625 56 45.828125 52.96875 
Q 50 49.953125 52 44.1875 
z
" id="DejaVuSans-109"/>
      <path d="M 48.6875 27.296875 
Q 48.6875 37.203125 44.609375 42.84375 
Q 40.53125 48.484375 33.40625 48.484375 
Q 26.265625 48.484375 22.1875 42.84375 
Q 18.109375 37.203125 18.109375 27.296875 
Q 18.109375 17.390625 22.1875 11.75 
Q 26.265625 6.109375 33.40625 6.109375 
Q 40.53125 6.109375 44.609375 11.75 
Q 48.6875 17.390625 48.6875 27.296875 
z
M 18.109375 46.390625 
Q 20.953125 51.265625 25.265625 53.625 
Q 29.59375 56 35.59375 56 
Q 45.5625 56 51.78125 48.09375 
Q 58.015625 40.1875 58.015625 27.296875 
Q 58.015625 14.40625 51.78125 6.484375 
Q 45.5625 -1.421875 35.59375 -1.421875 
Q 29.59375 -1.421875 25.265625 0.953125 
Q 20.953125 3.328125 18.109375 8.203125 
L 18.109375 0 
L 9.078125 0 
L 9.078125 75.984375 
L 18.109375 75.984375 
z
" id="DejaVuSans-98"/>
      <path d="M 56.203125 29.59375 
L 56.203125 25.203125 
L 14.890625 25.203125 
Q 15.484375 15.921875 20.484375 11.0625 
Q 25.484375 6.203125 34.421875 6.203125 
Q 39.59375 6.203125 44.453125 7.46875 
Q 49.3125 8.734375 54.109375 11.28125 
L 54.109375 2.78125 
Q 49.265625 0.734375 44.1875 -0.34375 
Q 39.109375 -1.421875 33.890625 -1.421875 
Q 20.796875 -1.421875 13.15625 6.1875 
Q 5.515625 13.8125 5.515625 26.8125 
Q 5.515625 40.234375 12.765625 48.109375 
Q 20.015625 56 32.328125 56 
Q 43.359375 56 49.78125 48.890625 
Q 56.203125 41.796875 56.203125 29.59375 
z
M 47.21875 32.234375 
Q 47.125 39.59375 43.09375 43.984375 
Q 39.0625 48.390625 32.421875 48.390625 
Q 24.90625 48.390625 20.390625 44.140625 
Q 15.875 39.890625 15.1875 32.171875 
z
" id="DejaVuSans-101"/>
      <path d="M 41.109375 46.296875 
Q 39.59375 47.171875 37.8125 47.578125 
Q 36.03125 48 33.890625 48 
Q 26.265625 48 22.1875 43.046875 
Q 18.109375 38.09375 18.109375 28.8125 
L 18.109375 0 
L 9.078125 0 
L 9.078125 54.6875 
L 18.109375 54.6875 
L 18.109375 46.1875 
Q 20.953125 51.171875 25.484375 53.578125 
Q 30.03125 56 36.53125 56 
Q 37.453125 56 38.578125 55.875 
Q 39.703125 55.765625 41.0625 55.515625 
z
" id="DejaVuSans-114"/>
      <path id="DejaVuSans-32"/>
      <path d="M 30.609375 48.390625 
Q 23.390625 48.390625 19.1875 42.75 
Q 14.984375 37.109375 14.984375 27.296875 
Q 14.984375 17.484375 19.15625 11.84375 
Q 23.34375 6.203125 30.609375 6.203125 
Q 37.796875 6.203125 41.984375 11.859375 
Q 46.1875 17.53125 46.1875 27.296875 
Q 46.1875 37.015625 41.984375 42.703125 
Q 37.796875 48.390625 30.609375 48.390625 
z
M 30.609375 56 
Q 42.328125 56 49.015625 48.375 
Q 55.71875 40.765625 55.71875 27.296875 
Q 55.71875 13.875 49.015625 6.21875 
Q 42.328125 -1.421875 30.609375 -1.421875 
Q 18.84375 -1.421875 12.171875 6.21875 
Q 5.515625 13.875 5.515625 27.296875 
Q 5.515625 40.765625 12.171875 48.375 
Q 18.84375 56 30.609375 56 
z
" id="DejaVuSans-111"/>
      <path d="M 37.109375 75.984375 
L 37.109375 68.5 
L 28.515625 68.5 
Q 23.6875 68.5 21.796875 66.546875 
Q 19.921875 64.59375 19.921875 59.515625 
L 19.921875 54.6875 
L 34.71875 54.6875 
L 34.71875 47.703125 
L 19.921875 47.703125 
L 19.921875 0 
L 10.890625 0 
L 10.890625 47.703125 
L 2.296875 47.703125 
L 2.296875 54.6875 
L 10.890625 54.6875 
L 10.890625 58.5 
Q 10.890625 67.625 15.140625 71.796875 
Q 19.390625 75.984375 28.609375 75.984375 
z
" id="DejaVuSans-102"/>
      <path d="M 54.890625 33.015625 
L 54.890625 0 
L 45.90625 0 
L 45.90625 32.71875 
Q 45.90625 40.484375 42.875 44.328125 
Q 39.84375 48.1875 33.796875 48.1875 
Q 26.515625 48.1875 22.3125 43.546875 
Q 18.109375 38.921875 18.109375 30.90625 
L 18.109375 0 
L 9.078125 0 
L 9.078125 54.6875 
L 18.109375 54.6875 
L 18.109375 46.1875 
Q 21.34375 51.125 25.703125 53.5625 
Q 30.078125 56 35.796875 56 
Q 45.21875 56 50.046875 50.171875 
Q 54.890625 44.34375 54.890625 33.015625 
z
" id="DejaVuSans-110"/>
      <path d="M 9.421875 54.6875 
L 18.40625 54.6875 
L 18.40625 0 
L 9.421875 0 
z
M 9.421875 75.984375 
L 18.40625 75.984375 
L 18.40625 64.59375 
L 9.421875 64.59375 
z
" id="DejaVuSans-105"/>
      <path d="M 14.796875 27.296875 
Q 14.796875 17.390625 18.875 11.75 
Q 22.953125 6.109375 30.078125 6.109375 
Q 37.203125 6.109375 41.296875 11.75 
Q 45.40625 17.390625 45.40625 27.296875 
Q 45.40625 37.203125 41.296875 42.84375 
Q 37.203125 48.484375 30.078125 48.484375 
Q 22.953125 48.484375 18.875 42.84375 
Q 14.796875 37.203125 14.796875 27.296875 
z
M 45.40625 8.203125 
Q 42.578125 3.328125 38.25 0.953125 
Q 33.9375 -1.421875 27.875 -1.421875 
Q 17.96875 -1.421875 11.734375 6.484375 
Q 5.515625 14.40625 5.515625 27.296875 
Q 5.515625 40.1875 11.734375 48.09375 
Q 17.96875 56 27.875 56 
Q 33.9375 56 38.25 53.625 
Q 42.578125 51.265625 45.40625 46.390625 
L 45.40625 54.6875 
L 54.390625 54.6875 
L 54.390625 -20.796875 
L 45.40625 -20.796875 
z
" id="DejaVuSans-113"/>
      <path d="M 18.3125 70.21875 
L 18.3125 54.6875 
L 36.8125 54.6875 
L 36.8125 47.703125 
L 18.3125 47.703125 
L 18.3125 18.015625 
Q 18.3125 11.328125 20.140625 9.421875 
Q 21.96875 7.515625 27.59375 7.515625 
L 36.8125 7.515625 
L 36.8125 0 
L 27.59375 0 
Q 17.1875 0 13.234375 3.875 
Q 9.28125 7.765625 9.28125 18.015625 
L 9.28125 47.703125 
L 2.6875 47.703125 
L 2.6875 54.6875 
L 9.28125 54.6875 
L 9.28125 70.21875 
z
" id="DejaVuSans-116"/>
      <path d="M 34.28125 27.484375 
Q 23.390625 27.484375 19.1875 25 
Q 14.984375 22.515625 14.984375 16.5 
Q 14.984375 11.71875 18.140625 8.90625 
Q 21.296875 6.109375 26.703125 6.109375 
Q 34.1875 6.109375 38.703125 11.40625 
Q 43.21875 16.703125 43.21875 25.484375 
L 43.21875 27.484375 
z
M 52.203125 31.203125 
L 52.203125 0 
L 43.21875 0 
L 43.21875 8.296875 
Q 40.140625 3.328125 35.546875 0.953125 
Q 30.953125 -1.421875 24.3125 -1.421875 
Q 15.921875 -1.421875 10.953125 3.296875 
Q 6 8.015625 6 15.921875 
Q 6 25.140625 12.171875 29.828125 
Q 18.359375 34.515625 30.609375 34.515625 
L 43.21875 34.515625 
L 43.21875 35.40625 
Q 43.21875 41.609375 39.140625 45 
Q 35.0625 48.390625 27.6875 48.390625 
Q 23 48.390625 18.546875 47.265625 
Q 14.109375 46.140625 10.015625 43.890625 
L 10.015625 52.203125 
Q 14.9375 54.109375 19.578125 55.046875 
Q 24.21875 56 28.609375 56 
Q 40.484375 56 46.34375 49.84375 
Q 52.203125 43.703125 52.203125 31.203125 
z
" id="DejaVuSans-97"/>
      <path d="M 44.28125 53.078125 
L 44.28125 44.578125 
Q 40.484375 46.53125 36.375 47.5 
Q 32.28125 48.484375 27.875 48.484375 
Q 21.1875 48.484375 17.84375 46.4375 
Q 14.5 44.390625 14.5 40.28125 
Q 14.5 37.15625 16.890625 35.375 
Q 19.28125 33.59375 26.515625 31.984375 
L 29.59375 31.296875 
Q 39.15625 29.25 43.1875 25.515625 
Q 47.21875 21.78125 47.21875 15.09375 
Q 47.21875 7.46875 41.1875 3.015625 
Q 35.15625 -1.421875 24.609375 -1.421875 
Q 20.21875 -1.421875 15.453125 -0.5625 
Q 10.6875 0.296875 5.421875 2 
L 5.421875 11.28125 
Q 10.40625 8.6875 15.234375 7.390625 
Q 20.0625 6.109375 24.8125 6.109375 
Q 31.15625 6.109375 34.5625 8.28125 
Q 37.984375 10.453125 37.984375 14.40625 
Q 37.984375 18.0625 35.515625 20.015625 
Q 33.0625 21.96875 24.703125 23.78125 
L 21.578125 24.515625 
Q 13.234375 26.265625 9.515625 29.90625 
Q 5.8125 33.546875 5.8125 39.890625 
Q 5.8125 47.609375 11.28125 51.796875 
Q 16.75 56 26.8125 56 
Q 31.78125 56 36.171875 55.265625 
Q 40.578125 54.546875 44.28125 53.078125 
z
" id="DejaVuSans-115"/>
     </defs>
     <g style="fill:#262626;" transform="translate(45.225391 433.949746)rotate(-90)scale(0.24 -0.24)">
      <use xlink:href="#DejaVuSans-78"/>
      <use x="74.804688" xlink:href="#DejaVuSans-117"/>
      <use x="138.183594" xlink:href="#DejaVuSans-109"/>
      <use x="235.595703" xlink:href="#DejaVuSans-98"/>
      <use x="299.072266" xlink:href="#DejaVuSans-101"/>
      <use x="360.595703" xlink:href="#DejaVuSans-114"/>
      <use x="401.708984" xlink:href="#DejaVuSans-32"/>
      <use x="433.496094" xlink:href="#DejaVuSans-111"/>
      <use x="494.677734" xlink:href="#DejaVuSans-102"/>
      <use x="529.882812" xlink:href="#DejaVuSans-32"/>
      <use x="561.669922" xlink:href="#DejaVuSans-117"/>
      <use x="625.048828" xlink:href="#DejaVuSans-110"/>
      <use x="688.427734" xlink:href="#DejaVuSans-105"/>
      <use x="716.210938" xlink:href="#DejaVuSans-113"/>
      <use x="779.6875" xlink:href="#DejaVuSans-117"/>
      <use x="843.066406" xlink:href="#DejaVuSans-101"/>
      <use x="904.589844" xlink:href="#DejaVuSans-32"/>
      <use x="936.376953" xlink:href="#DejaVuSans-109"/>
      <use x="1033.789062" xlink:href="#DejaVuSans-117"/>
      <use x="1097.167969" xlink:href="#DejaVuSans-116"/>
      <use x="1136.376953" xlink:href="#DejaVuSans-97"/>
      <use x="1197.65625" xlink:href="#DejaVuSans-116"/>
      <use x="1236.865234" xlink:href="#DejaVuSans-105"/>
      <use x="1264.648438" xlink:href="#DejaVuSans-111"/>
      <use x="1325.830078" xlink:href="#DejaVuSans-110"/>
      <use x="1389.208984" xlink:href="#DejaVuSans-115"/>
     </g>
    </g>
   </g>
   <g id="line2d_61">
    <path clip-path="url(#p39f0f14ce7)" d="M 167.784066 451.974174 
L 204.876207 446.254941 
L 241.968348 330.957715 
L 279.060489 300.210926 
L 316.15263 294.078337 
L 353.244771 282.309399 
L 390.336911 273.664682 
L 427.429052 264.021803 
L 464.521193 252.679474 
L 501.613334 237.148092 
L 538.705475 224.812242 
L 575.797616 214.072523 
L 612.889757 197.73741 
L 649.981898 193.847077 
L 687.074039 191.197971 
L 724.166179 188.348792 
L 761.25832 185.665348 
L 798.350461 183.834512 
L 835.442602 180.331383 
L 872.534743 174.832543 
L 909.626884 171.558709 
L 946.719025 168.542562 
L 983.811166 165.067562 
L 1020.903307 161.687734 
L 1057.995447 158.558395 
L 1095.087588 156.642635 
L 1132.179729 155.536755 
L 1169.27187 155.096367 
L 1206.364011 154.666897 
L 1243.456152 154.095102 
L 1280.548293 153.580537 
L 1317.640434 153.155665 
L 1354.732575 153.041447 
" style="fill:none;stroke:#de8f05;stroke-linecap:round;stroke-width:3;"/>
    <defs>
     <path d="M 0 6 
C 1.591219 6 3.117479 5.367802 4.242641 4.242641 
C 5.367802 3.117479 6 1.591219 6 0 
C 6 -1.591219 5.367802 -3.117479 4.242641 -4.242641 
C 3.117479 -5.367802 1.591219 -6 0 -6 
C -1.591219 -6 -3.117479 -5.367802 -4.242641 -4.242641 
C -5.367802 -3.117479 -6 -1.591219 -6 0 
C -6 1.591219 -5.367802 3.117479 -4.242641 4.242641 
C -3.117479 5.367802 -1.591219 6 0 6 
z
" id="m51ea7cc793" style="stroke:#ffffff;stroke-width:0.75;"/>
    </defs>
    <g clip-path="url(#p39f0f14ce7)">
     <use style="fill:#de8f05;stroke:#ffffff;stroke-width:0.75;" x="167.784066" xlink:href="#m51ea7cc793" y="451.974174"/>
     <use style="fill:#de8f05;stroke:#ffffff;stroke-width:0.75;" x="204.876207" xlink:href="#m51ea7cc793" y="446.254941"/>
     <use style="fill:#de8f05;stroke:#ffffff;stroke-width:0.75;" x="241.968348" xlink:href="#m51ea7cc793" y="330.957715"/>
     <use style="fill:#de8f05;stroke:#ffffff;stroke-width:0.75;" x="279.060489" xlink:href="#m51ea7cc793" y="300.210926"/>
     <use style="fill:#de8f05;stroke:#ffffff;stroke-width:0.75;" x="316.15263" xlink:href="#m51ea7cc793" y="294.078337"/>
     <use style="fill:#de8f05;stroke:#ffffff;stroke-width:0.75;" x="353.244771" xlink:href="#m51ea7cc793" y="282.309399"/>
     <use style="fill:#de8f05;stroke:#ffffff;stroke-width:0.75;" x="390.336911" xlink:href="#m51ea7cc793" y="273.664682"/>
     <use style="fill:#de8f05;stroke:#ffffff;stroke-width:0.75;" x="427.429052" xlink:href="#m51ea7cc793" y="264.021803"/>
     <use style="fill:#de8f05;stroke:#ffffff;stroke-width:0.75;" x="464.521193" xlink:href="#m51ea7cc793" y="252.679474"/>
     <use style="fill:#de8f05;stroke:#ffffff;stroke-width:0.75;" x="501.613334" xlink:href="#m51ea7cc793" y="237.148092"/>
     <use style="fill:#de8f05;stroke:#ffffff;stroke-width:0.75;" x="538.705475" xlink:href="#m51ea7cc793" y="224.812242"/>
     <use style="fill:#de8f05;stroke:#ffffff;stroke-width:0.75;" x="575.797616" xlink:href="#m51ea7cc793" y="214.072523"/>
     <use style="fill:#de8f05;stroke:#ffffff;stroke-width:0.75;" x="612.889757" xlink:href="#m51ea7cc793" y="197.73741"/>
     <use style="fill:#de8f05;stroke:#ffffff;stroke-width:0.75;" x="649.981898" xlink:href="#m51ea7cc793" y="193.847077"/>
     <use style="fill:#de8f05;stroke:#ffffff;stroke-width:0.75;" x="687.074039" xlink:href="#m51ea7cc793" y="191.197971"/>
     <use style="fill:#de8f05;stroke:#ffffff;stroke-width:0.75;" x="724.166179" xlink:href="#m51ea7cc793" y="188.348792"/>
     <use style="fill:#de8f05;stroke:#ffffff;stroke-width:0.75;" x="761.25832" xlink:href="#m51ea7cc793" y="185.665348"/>
     <use style="fill:#de8f05;stroke:#ffffff;stroke-width:0.75;" x="798.350461" xlink:href="#m51ea7cc793" y="183.834512"/>
     <use style="fill:#de8f05;stroke:#ffffff;stroke-width:0.75;" x="835.442602" xlink:href="#m51ea7cc793" y="180.331383"/>
     <use style="fill:#de8f05;stroke:#ffffff;stroke-width:0.75;" x="872.534743" xlink:href="#m51ea7cc793" y="174.832543"/>
     <use style="fill:#de8f05;stroke:#ffffff;stroke-width:0.75;" x="909.626884" xlink:href="#m51ea7cc793" y="171.558709"/>
     <use style="fill:#de8f05;stroke:#ffffff;stroke-width:0.75;" x="946.719025" xlink:href="#m51ea7cc793" y="168.542562"/>
     <use style="fill:#de8f05;stroke:#ffffff;stroke-width:0.75;" x="983.811166" xlink:href="#m51ea7cc793" y="165.067562"/>
     <use style="fill:#de8f05;stroke:#ffffff;stroke-width:0.75;" x="1020.903307" xlink:href="#m51ea7cc793" y="161.687734"/>
     <use style="fill:#de8f05;stroke:#ffffff;stroke-width:0.75;" x="1057.995447" xlink:href="#m51ea7cc793" y="158.558395"/>
     <use style="fill:#de8f05;stroke:#ffffff;stroke-width:0.75;" x="1095.087588" xlink:href="#m51ea7cc793" y="156.642635"/>
     <use style="fill:#de8f05;stroke:#ffffff;stroke-width:0.75;" x="1132.179729" xlink:href="#m51ea7cc793" y="155.536755"/>
     <use style="fill:#de8f05;stroke:#ffffff;stroke-width:0.75;" x="1169.27187" xlink:href="#m51ea7cc793" y="155.096367"/>
     <use style="fill:#de8f05;stroke:#ffffff;stroke-width:0.75;" x="1206.364011" xlink:href="#m51ea7cc793" y="154.666897"/>
     <use style="fill:#de8f05;stroke:#ffffff;stroke-width:0.75;" x="1243.456152" xlink:href="#m51ea7cc793" y="154.095102"/>
     <use style="fill:#de8f05;stroke:#ffffff;stroke-width:0.75;" x="1280.548293" xlink:href="#m51ea7cc793" y="153.580537"/>
     <use style="fill:#de8f05;stroke:#ffffff;stroke-width:0.75;" x="1317.640434" xlink:href="#m51ea7cc793" y="153.155665"/>
     <use style="fill:#de8f05;stroke:#ffffff;stroke-width:0.75;" x="1354.732575" xlink:href="#m51ea7cc793" y="153.041447"/>
    </g>
   </g>
   <g id="line2d_62">
    <path clip-path="url(#p39f0f14ce7)" d="M 167.784066 372.65304 
L 204.876207 371.113723 
L 241.968348 322.296013 
L 279.060489 304.521117 
L 316.15263 302.102861 
L 353.244771 295.364512 
L 390.336911 289.172265 
L 427.429052 281.88141 
L 464.521193 275.170675 
L 501.613334 267.665581 
L 538.705475 261.27042 
L 575.797616 257.380527 
L 612.889757 251.374426 
L 649.981898 251.072462 
L 687.074039 250.106293 
L 724.166179 248.974373 
L 761.25832 248.34894 
L 798.350461 248.271179 
L 835.442602 248.985596 
L 872.534743 248.449054 
L 909.626884 246.594213 
L 946.719025 245.265918 
L 983.811166 244.433502 
L 1020.903307 243.725369 
L 1057.995447 243.818654 
L 1095.087588 243.363852 
L 1132.179729 243.374153 
L 1169.27187 243.322662 
L 1206.364011 243.147895 
L 1243.456152 242.799755 
L 1280.548293 242.280989 
L 1317.640434 241.776354 
L 1354.732575 241.675892 
" style="fill:none;stroke:#56b4e9;stroke-linecap:round;stroke-width:3;"/>
    <defs>
     <path d="M 0 6 
C 1.591219 6 3.117479 5.367802 4.242641 4.242641 
C 5.367802 3.117479 6 1.591219 6 0 
C 6 -1.591219 5.367802 -3.117479 4.242641 -4.242641 
C 3.117479 -5.367802 1.591219 -6 0 -6 
C -1.591219 -6 -3.117479 -5.367802 -4.242641 -4.242641 
C -5.367802 -3.117479 -6 -1.591219 -6 0 
C -6 1.591219 -5.367802 3.117479 -4.242641 4.242641 
C -3.117479 5.367802 -1.591219 6 0 6 
z
" id="m1177a69cbf" style="stroke:#ffffff;stroke-width:0.75;"/>
    </defs>
    <g clip-path="url(#p39f0f14ce7)">
     <use style="fill:#56b4e9;stroke:#ffffff;stroke-width:0.75;" x="167.784066" xlink:href="#m1177a69cbf" y="372.65304"/>
     <use style="fill:#56b4e9;stroke:#ffffff;stroke-width:0.75;" x="204.876207" xlink:href="#m1177a69cbf" y="371.113723"/>
     <use style="fill:#56b4e9;stroke:#ffffff;stroke-width:0.75;" x="241.968348" xlink:href="#m1177a69cbf" y="322.296013"/>
     <use style="fill:#56b4e9;stroke:#ffffff;stroke-width:0.75;" x="279.060489" xlink:href="#m1177a69cbf" y="304.521117"/>
     <use style="fill:#56b4e9;stroke:#ffffff;stroke-width:0.75;" x="316.15263" xlink:href="#m1177a69cbf" y="302.102861"/>
     <use style="fill:#56b4e9;stroke:#ffffff;stroke-width:0.75;" x="353.244771" xlink:href="#m1177a69cbf" y="295.364512"/>
     <use style="fill:#56b4e9;stroke:#ffffff;stroke-width:0.75;" x="390.336911" xlink:href="#m1177a69cbf" y="289.172265"/>
     <use style="fill:#56b4e9;stroke:#ffffff;stroke-width:0.75;" x="427.429052" xlink:href="#m1177a69cbf" y="281.88141"/>
     <use style="fill:#56b4e9;stroke:#ffffff;stroke-width:0.75;" x="464.521193" xlink:href="#m1177a69cbf" y="275.170675"/>
     <use style="fill:#56b4e9;stroke:#ffffff;stroke-width:0.75;" x="501.613334" xlink:href="#m1177a69cbf" y="267.665581"/>
     <use style="fill:#56b4e9;stroke:#ffffff;stroke-width:0.75;" x="538.705475" xlink:href="#m1177a69cbf" y="261.27042"/>
     <use style="fill:#56b4e9;stroke:#ffffff;stroke-width:0.75;" x="575.797616" xlink:href="#m1177a69cbf" y="257.380527"/>
     <use style="fill:#56b4e9;stroke:#ffffff;stroke-width:0.75;" x="612.889757" xlink:href="#m1177a69cbf" y="251.374426"/>
     <use style="fill:#56b4e9;stroke:#ffffff;stroke-width:0.75;" x="649.981898" xlink:href="#m1177a69cbf" y="251.072462"/>
     <use style="fill:#56b4e9;stroke:#ffffff;stroke-width:0.75;" x="687.074039" xlink:href="#m1177a69cbf" y="250.106293"/>
     <use style="fill:#56b4e9;stroke:#ffffff;stroke-width:0.75;" x="724.166179" xlink:href="#m1177a69cbf" y="248.974373"/>
     <use style="fill:#56b4e9;stroke:#ffffff;stroke-width:0.75;" x="761.25832" xlink:href="#m1177a69cbf" y="248.34894"/>
     <use style="fill:#56b4e9;stroke:#ffffff;stroke-width:0.75;" x="798.350461" xlink:href="#m1177a69cbf" y="248.271179"/>
     <use style="fill:#56b4e9;stroke:#ffffff;stroke-width:0.75;" x="835.442602" xlink:href="#m1177a69cbf" y="248.985596"/>
     <use style="fill:#56b4e9;stroke:#ffffff;stroke-width:0.75;" x="872.534743" xlink:href="#m1177a69cbf" y="248.449054"/>
     <use style="fill:#56b4e9;stroke:#ffffff;stroke-width:0.75;" x="909.626884" xlink:href="#m1177a69cbf" y="246.594213"/>
     <use style="fill:#56b4e9;stroke:#ffffff;stroke-width:0.75;" x="946.719025" xlink:href="#m1177a69cbf" y="245.265918"/>
     <use style="fill:#56b4e9;stroke:#ffffff;stroke-width:0.75;" x="983.811166" xlink:href="#m1177a69cbf" y="244.433502"/>
     <use style="fill:#56b4e9;stroke:#ffffff;stroke-width:0.75;" x="1020.903307" xlink:href="#m1177a69cbf" y="243.725369"/>
     <use style="fill:#56b4e9;stroke:#ffffff;stroke-width:0.75;" x="1057.995447" xlink:href="#m1177a69cbf" y="243.818654"/>
     <use style="fill:#56b4e9;stroke:#ffffff;stroke-width:0.75;" x="1095.087588" xlink:href="#m1177a69cbf" y="243.363852"/>
     <use style="fill:#56b4e9;stroke:#ffffff;stroke-width:0.75;" x="1132.179729" xlink:href="#m1177a69cbf" y="243.374153"/>
     <use style="fill:#56b4e9;stroke:#ffffff;stroke-width:0.75;" x="1169.27187" xlink:href="#m1177a69cbf" y="243.322662"/>
     <use style="fill:#56b4e9;stroke:#ffffff;stroke-width:0.75;" x="1206.364011" xlink:href="#m1177a69cbf" y="243.147895"/>
     <use style="fill:#56b4e9;stroke:#ffffff;stroke-width:0.75;" x="1243.456152" xlink:href="#m1177a69cbf" y="242.799755"/>
     <use style="fill:#56b4e9;stroke:#ffffff;stroke-width:0.75;" x="1280.548293" xlink:href="#m1177a69cbf" y="242.280989"/>
     <use style="fill:#56b4e9;stroke:#ffffff;stroke-width:0.75;" x="1317.640434" xlink:href="#m1177a69cbf" y="241.776354"/>
     <use style="fill:#56b4e9;stroke:#ffffff;stroke-width:0.75;" x="1354.732575" xlink:href="#m1177a69cbf" y="241.675892"/>
    </g>
   </g>
   <g id="line2d_63">
    <path clip-path="url(#p39f0f14ce7)" d="M 167.784066 300.506043 
L 204.876207 295.890733 
L 241.968348 217.917481 
L 279.060489 195.691194 
L 316.15263 191.678105 
L 353.244771 187.211471 
L 390.336911 185.100123 
L 427.429052 182.401762 
L 464.521193 178.519341 
L 501.613334 172.135911 
L 538.705475 165.845027 
L 575.797616 160.642482 
L 612.889757 154.345972 
L 649.981898 152.671607 
L 687.074039 152.042779 
L 724.166179 150.885717 
L 761.25832 149.788219 
L 798.350461 148.930092 
L 835.442602 147.55143 
L 872.534743 146.785553 
L 909.626884 146.785553 
L 946.719025 146.837434 
L 983.811166 146.877553 
L 1020.903307 146.707807 
L 1057.995447 146.210539 
L 1095.087588 145.888863 
L 1132.179729 145.730935 
L 1169.27187 145.867939 
L 1206.364011 146.016878 
L 1243.456152 146.238586 
L 1280.548293 146.435249 
L 1317.640434 146.65838 
L 1354.732575 146.738423 
" style="fill:none;stroke:#029e73;stroke-linecap:round;stroke-width:3;"/>
    <defs>
     <path d="M 0 6 
C 1.591219 6 3.117479 5.367802 4.242641 4.242641 
C 5.367802 3.117479 6 1.591219 6 0 
C 6 -1.591219 5.367802 -3.117479 4.242641 -4.242641 
C 3.117479 -5.367802 1.591219 -6 0 -6 
C -1.591219 -6 -3.117479 -5.367802 -4.242641 -4.242641 
C -5.367802 -3.117479 -6 -1.591219 -6 0 
C -6 1.591219 -5.367802 3.117479 -4.242641 4.242641 
C -3.117479 5.367802 -1.591219 6 0 6 
z
" id="m720460d2b8" style="stroke:#ffffff;stroke-width:0.75;"/>
    </defs>
    <g clip-path="url(#p39f0f14ce7)">
     <use style="fill:#029e73;stroke:#ffffff;stroke-width:0.75;" x="167.784066" xlink:href="#m720460d2b8" y="300.506043"/>
     <use style="fill:#029e73;stroke:#ffffff;stroke-width:0.75;" x="204.876207" xlink:href="#m720460d2b8" y="295.890733"/>
     <use style="fill:#029e73;stroke:#ffffff;stroke-width:0.75;" x="241.968348" xlink:href="#m720460d2b8" y="217.917481"/>
     <use style="fill:#029e73;stroke:#ffffff;stroke-width:0.75;" x="279.060489" xlink:href="#m720460d2b8" y="195.691194"/>
     <use style="fill:#029e73;stroke:#ffffff;stroke-width:0.75;" x="316.15263" xlink:href="#m720460d2b8" y="191.678105"/>
     <use style="fill:#029e73;stroke:#ffffff;stroke-width:0.75;" x="353.244771" xlink:href="#m720460d2b8" y="187.211471"/>
     <use style="fill:#029e73;stroke:#ffffff;stroke-width:0.75;" x="390.336911" xlink:href="#m720460d2b8" y="185.100123"/>
     <use style="fill:#029e73;stroke:#ffffff;stroke-width:0.75;" x="427.429052" xlink:href="#m720460d2b8" y="182.401762"/>
     <use style="fill:#029e73;stroke:#ffffff;stroke-width:0.75;" x="464.521193" xlink:href="#m720460d2b8" y="178.519341"/>
     <use style="fill:#029e73;stroke:#ffffff;stroke-width:0.75;" x="501.613334" xlink:href="#m720460d2b8" y="172.135911"/>
     <use style="fill:#029e73;stroke:#ffffff;stroke-width:0.75;" x="538.705475" xlink:href="#m720460d2b8" y="165.845027"/>
     <use style="fill:#029e73;stroke:#ffffff;stroke-width:0.75;" x="575.797616" xlink:href="#m720460d2b8" y="160.642482"/>
     <use style="fill:#029e73;stroke:#ffffff;stroke-width:0.75;" x="612.889757" xlink:href="#m720460d2b8" y="154.345972"/>
     <use style="fill:#029e73;stroke:#ffffff;stroke-width:0.75;" x="649.981898" xlink:href="#m720460d2b8" y="152.671607"/>
     <use style="fill:#029e73;stroke:#ffffff;stroke-width:0.75;" x="687.074039" xlink:href="#m720460d2b8" y="152.042779"/>
     <use style="fill:#029e73;stroke:#ffffff;stroke-width:0.75;" x="724.166179" xlink:href="#m720460d2b8" y="150.885717"/>
     <use style="fill:#029e73;stroke:#ffffff;stroke-width:0.75;" x="761.25832" xlink:href="#m720460d2b8" y="149.788219"/>
     <use style="fill:#029e73;stroke:#ffffff;stroke-width:0.75;" x="798.350461" xlink:href="#m720460d2b8" y="148.930092"/>
     <use style="fill:#029e73;stroke:#ffffff;stroke-width:0.75;" x="835.442602" xlink:href="#m720460d2b8" y="147.55143"/>
     <use style="fill:#029e73;stroke:#ffffff;stroke-width:0.75;" x="872.534743" xlink:href="#m720460d2b8" y="146.785553"/>
     <use style="fill:#029e73;stroke:#ffffff;stroke-width:0.75;" x="909.626884" xlink:href="#m720460d2b8" y="146.785553"/>
     <use style="fill:#029e73;stroke:#ffffff;stroke-width:0.75;" x="946.719025" xlink:href="#m720460d2b8" y="146.837434"/>
     <use style="fill:#029e73;stroke:#ffffff;stroke-width:0.75;" x="983.811166" xlink:href="#m720460d2b8" y="146.877553"/>
     <use style="fill:#029e73;stroke:#ffffff;stroke-width:0.75;" x="1020.903307" xlink:href="#m720460d2b8" y="146.707807"/>
     <use style="fill:#029e73;stroke:#ffffff;stroke-width:0.75;" x="1057.995447" xlink:href="#m720460d2b8" y="146.210539"/>
     <use style="fill:#029e73;stroke:#ffffff;stroke-width:0.75;" x="1095.087588" xlink:href="#m720460d2b8" y="145.888863"/>
     <use style="fill:#029e73;stroke:#ffffff;stroke-width:0.75;" x="1132.179729" xlink:href="#m720460d2b8" y="145.730935"/>
     <use style="fill:#029e73;stroke:#ffffff;stroke-width:0.75;" x="1169.27187" xlink:href="#m720460d2b8" y="145.867939"/>
     <use style="fill:#029e73;stroke:#ffffff;stroke-width:0.75;" x="1206.364011" xlink:href="#m720460d2b8" y="146.016878"/>
     <use style="fill:#029e73;stroke:#ffffff;stroke-width:0.75;" x="1243.456152" xlink:href="#m720460d2b8" y="146.238586"/>
     <use style="fill:#029e73;stroke:#ffffff;stroke-width:0.75;" x="1280.548293" xlink:href="#m720460d2b8" y="146.435249"/>
     <use style="fill:#029e73;stroke:#ffffff;stroke-width:0.75;" x="1317.640434" xlink:href="#m720460d2b8" y="146.65838"/>
     <use style="fill:#029e73;stroke:#ffffff;stroke-width:0.75;" x="1354.732575" xlink:href="#m720460d2b8" y="146.738423"/>
    </g>
   </g>
   <g id="line2d_64">
    <path clip-path="url(#p39f0f14ce7)" d="M 167.784066 277.021362 
L 204.876207 273.029709 
L 241.968348 196.769491 
L 279.060489 174.005758 
L 316.15263 169.893903 
L 353.244771 163.976608 
L 390.336911 160.192548 
L 427.429052 155.563704 
L 464.521193 149.780815 
L 501.613334 141.226888 
L 538.705475 133.473439 
L 575.797616 127.034831 
L 612.889757 117.965314 
L 649.981898 115.803177 
L 687.074039 114.511693 
L 724.166179 112.8284 
L 761.25832 111.284551 
L 798.350461 110.207712 
L 835.442602 108.37925 
L 872.534743 106.023579 
L 909.626884 104.6503 
L 946.719025 103.42427 
L 983.811166 102.043151 
L 1020.903307 100.568227 
L 1057.995447 99.088226 
L 1095.087588 98.104498 
L 1132.179729 97.575295 
L 1169.27187 97.453093 
L 1206.364011 97.326688 
L 1243.456152 97.155211 
L 1280.548293 96.975367 
L 1317.640434 96.845481 
L 1354.732575 96.823492 
" style="fill:none;stroke:#949494;stroke-linecap:round;stroke-width:3;"/>
   </g>
   <g id="line2d_65">
    <path clip-path="url(#p39f0f14ce7)" d="M 108.436641 70.017818 
L 1414.08 70.017818 
" style="fill:none;stroke:#d55e00;stroke-dasharray:11.1,4.8;stroke-dashoffset:0;stroke-width:3;"/>
   </g>
   <g id="text_38">
    <!-- High quality SNVs -->
    <defs>
     <path d="M 9.8125 72.90625 
L 19.671875 72.90625 
L 19.671875 43.015625 
L 55.515625 43.015625 
L 55.515625 72.90625 
L 65.375 72.90625 
L 65.375 0 
L 55.515625 0 
L 55.515625 34.71875 
L 19.671875 34.71875 
L 19.671875 0 
L 9.8125 0 
z
" id="DejaVuSans-72"/>
     <path d="M 45.40625 27.984375 
Q 45.40625 37.75 41.375 43.109375 
Q 37.359375 48.484375 30.078125 48.484375 
Q 22.859375 48.484375 18.828125 43.109375 
Q 14.796875 37.75 14.796875 27.984375 
Q 14.796875 18.265625 18.828125 12.890625 
Q 22.859375 7.515625 30.078125 7.515625 
Q 37.359375 7.515625 41.375 12.890625 
Q 45.40625 18.265625 45.40625 27.984375 
z
M 54.390625 6.78125 
Q 54.390625 -7.171875 48.1875 -13.984375 
Q 42 -20.796875 29.203125 -20.796875 
Q 24.46875 -20.796875 20.265625 -20.09375 
Q 16.0625 -19.390625 12.109375 -17.921875 
L 12.109375 -9.1875 
Q 16.0625 -11.328125 19.921875 -12.34375 
Q 23.78125 -13.375 27.78125 -13.375 
Q 36.625 -13.375 41.015625 -8.765625 
Q 45.40625 -4.15625 45.40625 5.171875 
L 45.40625 9.625 
Q 42.625 4.78125 38.28125 2.390625 
Q 33.9375 0 27.875 0 
Q 17.828125 0 11.671875 7.65625 
Q 5.515625 15.328125 5.515625 27.984375 
Q 5.515625 40.671875 11.671875 48.328125 
Q 17.828125 56 27.875 56 
Q 33.9375 56 38.28125 53.609375 
Q 42.625 51.21875 45.40625 46.390625 
L 45.40625 54.6875 
L 54.390625 54.6875 
z
" id="DejaVuSans-103"/>
     <path d="M 54.890625 33.015625 
L 54.890625 0 
L 45.90625 0 
L 45.90625 32.71875 
Q 45.90625 40.484375 42.875 44.328125 
Q 39.84375 48.1875 33.796875 48.1875 
Q 26.515625 48.1875 22.3125 43.546875 
Q 18.109375 38.921875 18.109375 30.90625 
L 18.109375 0 
L 9.078125 0 
L 9.078125 75.984375 
L 18.109375 75.984375 
L 18.109375 46.1875 
Q 21.34375 51.125 25.703125 53.5625 
Q 30.078125 56 35.796875 56 
Q 45.21875 56 50.046875 50.171875 
Q 54.890625 44.34375 54.890625 33.015625 
z
" id="DejaVuSans-104"/>
     <path d="M 9.421875 75.984375 
L 18.40625 75.984375 
L 18.40625 0 
L 9.421875 0 
z
" id="DejaVuSans-108"/>
     <path d="M 32.171875 -5.078125 
Q 28.375 -14.84375 24.75 -17.8125 
Q 21.140625 -20.796875 15.09375 -20.796875 
L 7.90625 -20.796875 
L 7.90625 -13.28125 
L 13.1875 -13.28125 
Q 16.890625 -13.28125 18.9375 -11.515625 
Q 21 -9.765625 23.484375 -3.21875 
L 25.09375 0.875 
L 2.984375 54.6875 
L 12.5 54.6875 
L 29.59375 11.921875 
L 46.6875 54.6875 
L 56.203125 54.6875 
z
" id="DejaVuSans-121"/>
     <path d="M 53.515625 70.515625 
L 53.515625 60.890625 
Q 47.90625 63.578125 42.921875 64.890625 
Q 37.9375 66.21875 33.296875 66.21875 
Q 25.25 66.21875 20.875 63.09375 
Q 16.5 59.96875 16.5 54.203125 
Q 16.5 49.359375 19.40625 46.890625 
Q 22.3125 44.4375 30.421875 42.921875 
L 36.375 41.703125 
Q 47.40625 39.59375 52.65625 34.296875 
Q 57.90625 29 57.90625 20.125 
Q 57.90625 9.515625 50.796875 4.046875 
Q 43.703125 -1.421875 29.984375 -1.421875 
Q 24.8125 -1.421875 18.96875 -0.25 
Q 13.140625 0.921875 6.890625 3.21875 
L 6.890625 13.375 
Q 12.890625 10.015625 18.65625 8.296875 
Q 24.421875 6.59375 29.984375 6.59375 
Q 38.421875 6.59375 43.015625 9.90625 
Q 47.609375 13.234375 47.609375 19.390625 
Q 47.609375 24.75 44.3125 27.78125 
Q 41.015625 30.8125 33.5 32.328125 
L 27.484375 33.5 
Q 16.453125 35.6875 11.515625 40.375 
Q 6.59375 45.0625 6.59375 53.421875 
Q 6.59375 63.09375 13.40625 68.65625 
Q 20.21875 74.21875 32.171875 74.21875 
Q 37.3125 74.21875 42.625 73.28125 
Q 47.953125 72.359375 53.515625 70.515625 
z
" id="DejaVuSans-83"/>
     <path d="M 28.609375 0 
L 0.78125 72.90625 
L 11.078125 72.90625 
L 34.1875 11.53125 
L 57.328125 72.90625 
L 67.578125 72.90625 
L 39.796875 0 
z
" id="DejaVuSans-86"/>
    </defs>
    <g style="fill:#262626;" transform="translate(653.942695 44.92)scale(0.24 -0.24)">
     <use xlink:href="#DejaVuSans-72"/>
     <use x="75.195312" xlink:href="#DejaVuSans-105"/>
     <use x="102.978516" xlink:href="#DejaVuSans-103"/>
     <use x="166.455078" xlink:href="#DejaVuSans-104"/>
     <use x="229.833984" xlink:href="#DejaVuSans-32"/>
     <use x="261.621094" xlink:href="#DejaVuSans-113"/>
     <use x="325.097656" xlink:href="#DejaVuSans-117"/>
     <use x="388.476562" xlink:href="#DejaVuSans-97"/>
     <use x="449.755859" xlink:href="#DejaVuSans-108"/>
     <use x="477.539062" xlink:href="#DejaVuSans-105"/>
     <use x="505.322266" xlink:href="#DejaVuSans-116"/>
     <use x="544.53125" xlink:href="#DejaVuSans-121"/>
     <use x="603.710938" xlink:href="#DejaVuSans-32"/>
     <use x="635.498047" xlink:href="#DejaVuSans-83"/>
     <use x="698.974609" xlink:href="#DejaVuSans-78"/>
     <use x="773.779297" xlink:href="#DejaVuSans-86"/>
     <use x="842.1875" xlink:href="#DejaVuSans-115"/>
    </g>
   </g>
   <g id="legend_1">
    <g id="patch_3">
     <path d="M 1119.022187 460.071992 
L 1398.68 460.071992 
Q 1403.08 460.071992 1403.08 455.671992 
L 1403.08 296.412617 
Q 1403.08 292.012617 1398.68 292.012617 
L 1119.022187 292.012617 
Q 1114.622187 292.012617 1114.622187 296.412617 
L 1114.622187 455.671992 
Q 1114.622187 460.071992 1119.022187 460.071992 
z
" style="fill:#ffffff;opacity:0.8;stroke:#cccccc;stroke-linejoin:miter;stroke-width:2;"/>
    </g>
    <g id="line2d_66">
     <path d="M 1123.422187 309.829179 
L 1167.422187 309.829179 
" style="fill:none;stroke:#de8f05;stroke-linecap:round;stroke-width:3;"/>
    </g>
    <g id="line2d_67">
     <g>
      <use style="fill:#de8f05;stroke:#ffffff;stroke-width:0.75;" x="1145.422187" xlink:href="#m51ea7cc793" y="309.829179"/>
     </g>
    </g>
    <g id="text_39">
     <!-- Subclonal + clonal -->
     <defs>
      <path d="M 48.78125 52.59375 
L 48.78125 44.1875 
Q 44.96875 46.296875 41.140625 47.34375 
Q 37.3125 48.390625 33.40625 48.390625 
Q 24.65625 48.390625 19.8125 42.84375 
Q 14.984375 37.3125 14.984375 27.296875 
Q 14.984375 17.28125 19.8125 11.734375 
Q 24.65625 6.203125 33.40625 6.203125 
Q 37.3125 6.203125 41.140625 7.25 
Q 44.96875 8.296875 48.78125 10.40625 
L 48.78125 2.09375 
Q 45.015625 0.34375 40.984375 -0.53125 
Q 36.96875 -1.421875 32.421875 -1.421875 
Q 20.0625 -1.421875 12.78125 6.34375 
Q 5.515625 14.109375 5.515625 27.296875 
Q 5.515625 40.671875 12.859375 48.328125 
Q 20.21875 56 33.015625 56 
Q 37.15625 56 41.109375 55.140625 
Q 45.0625 54.296875 48.78125 52.59375 
z
" id="DejaVuSans-99"/>
      <path d="M 46 62.703125 
L 46 35.5 
L 73.1875 35.5 
L 73.1875 27.203125 
L 46 27.203125 
L 46 0 
L 37.796875 0 
L 37.796875 27.203125 
L 10.59375 27.203125 
L 10.59375 35.5 
L 37.796875 35.5 
L 37.796875 62.703125 
z
" id="DejaVuSans-43"/>
     </defs>
     <g style="fill:#262626;" transform="translate(1185.022187 317.529179)scale(0.22 -0.22)">
      <use xlink:href="#DejaVuSans-83"/>
      <use x="63.476562" xlink:href="#DejaVuSans-117"/>
      <use x="126.855469" xlink:href="#DejaVuSans-98"/>
      <use x="190.332031" xlink:href="#DejaVuSans-99"/>
      <use x="245.3125" xlink:href="#DejaVuSans-108"/>
      <use x="273.095703" xlink:href="#DejaVuSans-111"/>
      <use x="334.277344" xlink:href="#DejaVuSans-110"/>
      <use x="397.65625" xlink:href="#DejaVuSans-97"/>
      <use x="458.935547" xlink:href="#DejaVuSans-108"/>
      <use x="486.71875" xlink:href="#DejaVuSans-32"/>
      <use x="518.505859" xlink:href="#DejaVuSans-43"/>
      <use x="602.294922" xlink:href="#DejaVuSans-32"/>
      <use x="634.082031" xlink:href="#DejaVuSans-99"/>
      <use x="689.0625" xlink:href="#DejaVuSans-108"/>
      <use x="716.845703" xlink:href="#DejaVuSans-111"/>
      <use x="778.027344" xlink:href="#DejaVuSans-110"/>
      <use x="841.40625" xlink:href="#DejaVuSans-97"/>
      <use x="902.685547" xlink:href="#DejaVuSans-108"/>
     </g>
    </g>
    <g id="line2d_68">
     <path d="M 1123.422187 342.121054 
L 1167.422187 342.121054 
" style="fill:none;stroke:#56b4e9;stroke-linecap:round;stroke-width:3;"/>
    </g>
    <g id="line2d_69">
     <g>
      <use style="fill:#56b4e9;stroke:#ffffff;stroke-width:0.75;" x="1145.422187" xlink:href="#m1177a69cbf" y="342.121054"/>
     </g>
    </g>
    <g id="text_40">
     <!-- Only clonal -->
     <defs>
      <path d="M 39.40625 66.21875 
Q 28.65625 66.21875 22.328125 58.203125 
Q 16.015625 50.203125 16.015625 36.375 
Q 16.015625 22.609375 22.328125 14.59375 
Q 28.65625 6.59375 39.40625 6.59375 
Q 50.140625 6.59375 56.421875 14.59375 
Q 62.703125 22.609375 62.703125 36.375 
Q 62.703125 50.203125 56.421875 58.203125 
Q 50.140625 66.21875 39.40625 66.21875 
z
M 39.40625 74.21875 
Q 54.734375 74.21875 63.90625 63.9375 
Q 73.09375 53.65625 73.09375 36.375 
Q 73.09375 19.140625 63.90625 8.859375 
Q 54.734375 -1.421875 39.40625 -1.421875 
Q 24.03125 -1.421875 14.8125 8.828125 
Q 5.609375 19.09375 5.609375 36.375 
Q 5.609375 53.65625 14.8125 63.9375 
Q 24.03125 74.21875 39.40625 74.21875 
z
" id="DejaVuSans-79"/>
     </defs>
     <g style="fill:#262626;" transform="translate(1185.022187 349.821054)scale(0.22 -0.22)">
      <use xlink:href="#DejaVuSans-79"/>
      <use x="78.710938" xlink:href="#DejaVuSans-110"/>
      <use x="142.089844" xlink:href="#DejaVuSans-108"/>
      <use x="169.873047" xlink:href="#DejaVuSans-121"/>
      <use x="229.052734" xlink:href="#DejaVuSans-32"/>
      <use x="260.839844" xlink:href="#DejaVuSans-99"/>
      <use x="315.820312" xlink:href="#DejaVuSans-108"/>
      <use x="343.603516" xlink:href="#DejaVuSans-111"/>
      <use x="404.785156" xlink:href="#DejaVuSans-110"/>
      <use x="468.164062" xlink:href="#DejaVuSans-97"/>
      <use x="529.443359" xlink:href="#DejaVuSans-108"/>
     </g>
    </g>
    <g id="line2d_70">
     <path d="M 1123.422187 374.412929 
L 1167.422187 374.412929 
" style="fill:none;stroke:#029e73;stroke-linecap:round;stroke-width:3;"/>
    </g>
    <g id="line2d_71">
     <g>
      <use style="fill:#029e73;stroke:#ffffff;stroke-width:0.75;" x="1145.422187" xlink:href="#m720460d2b8" y="374.412929"/>
     </g>
    </g>
    <g id="text_41">
     <!-- Only subclonal -->
     <g style="fill:#262626;" transform="translate(1185.022187 382.112929)scale(0.22 -0.22)">
      <use xlink:href="#DejaVuSans-79"/>
      <use x="78.710938" xlink:href="#DejaVuSans-110"/>
      <use x="142.089844" xlink:href="#DejaVuSans-108"/>
      <use x="169.873047" xlink:href="#DejaVuSans-121"/>
      <use x="229.052734" xlink:href="#DejaVuSans-32"/>
      <use x="260.839844" xlink:href="#DejaVuSans-115"/>
      <use x="312.939453" xlink:href="#DejaVuSans-117"/>
      <use x="376.318359" xlink:href="#DejaVuSans-98"/>
      <use x="439.794922" xlink:href="#DejaVuSans-99"/>
      <use x="494.775391" xlink:href="#DejaVuSans-108"/>
      <use x="522.558594" xlink:href="#DejaVuSans-111"/>
      <use x="583.740234" xlink:href="#DejaVuSans-110"/>
      <use x="647.119141" xlink:href="#DejaVuSans-97"/>
      <use x="708.398438" xlink:href="#DejaVuSans-108"/>
     </g>
    </g>
    <g id="line2d_72">
     <path d="M 1123.422187 406.704804 
L 1167.422187 406.704804 
" style="fill:none;stroke:#949494;stroke-linecap:round;stroke-width:3;"/>
    </g>
    <g id="line2d_73"/>
    <g id="text_42">
     <!-- All -->
     <defs>
      <path d="M 34.1875 63.1875 
L 20.796875 26.90625 
L 47.609375 26.90625 
z
M 28.609375 72.90625 
L 39.796875 72.90625 
L 67.578125 0 
L 57.328125 0 
L 50.6875 18.703125 
L 17.828125 18.703125 
L 11.1875 0 
L 0.78125 0 
z
" id="DejaVuSans-65"/>
     </defs>
     <g style="fill:#262626;" transform="translate(1185.022187 414.404804)scale(0.22 -0.22)">
      <use xlink:href="#DejaVuSans-65"/>
      <use x="68.408203" xlink:href="#DejaVuSans-108"/>
      <use x="96.191406" xlink:href="#DejaVuSans-108"/>
     </g>
    </g>
    <g id="line2d_74">
     <path d="M 1123.422187 438.996679 
L 1167.422187 438.996679 
" style="fill:none;stroke:#d55e00;stroke-dasharray:11.1,4.8;stroke-dashoffset:0;stroke-width:3;"/>
    </g>
    <g id="line2d_75"/>
    <g id="text_43">
     <!-- Max. number SNVs -->
     <defs>
      <path d="M 9.8125 72.90625 
L 24.515625 72.90625 
L 43.109375 23.296875 
L 61.8125 72.90625 
L 76.515625 72.90625 
L 76.515625 0 
L 66.890625 0 
L 66.890625 64.015625 
L 48.09375 14.015625 
L 38.1875 14.015625 
L 19.390625 64.015625 
L 19.390625 0 
L 9.8125 0 
z
" id="DejaVuSans-77"/>
      <path d="M 54.890625 54.6875 
L 35.109375 28.078125 
L 55.90625 0 
L 45.3125 0 
L 29.390625 21.484375 
L 13.484375 0 
L 2.875 0 
L 24.125 28.609375 
L 4.6875 54.6875 
L 15.28125 54.6875 
L 29.78125 35.203125 
L 44.28125 54.6875 
z
" id="DejaVuSans-120"/>
      <path d="M 10.6875 12.40625 
L 21 12.40625 
L 21 0 
L 10.6875 0 
z
" id="DejaVuSans-46"/>
     </defs>
     <g style="fill:#262626;" transform="translate(1185.022187 446.696679)scale(0.22 -0.22)">
      <use xlink:href="#DejaVuSans-77"/>
      <use x="86.279297" xlink:href="#DejaVuSans-97"/>
      <use x="147.558594" xlink:href="#DejaVuSans-120"/>
      <use x="206.738281" xlink:href="#DejaVuSans-46"/>
      <use x="238.525391" xlink:href="#DejaVuSans-32"/>
      <use x="270.3125" xlink:href="#DejaVuSans-110"/>
      <use x="333.691406" xlink:href="#DejaVuSans-117"/>
      <use x="397.070312" xlink:href="#DejaVuSans-109"/>
      <use x="494.482422" xlink:href="#DejaVuSans-98"/>
      <use x="557.958984" xlink:href="#DejaVuSans-101"/>
      <use x="619.482422" xlink:href="#DejaVuSans-114"/>
      <use x="660.595703" xlink:href="#DejaVuSans-32"/>
      <use x="692.382812" xlink:href="#DejaVuSans-83"/>
      <use x="755.859375" xlink:href="#DejaVuSans-78"/>
      <use x="830.664062" xlink:href="#DejaVuSans-86"/>
      <use x="899.072266" xlink:href="#DejaVuSans-115"/>
     </g>
    </g>
   </g>
  </g>
 </g>
 <defs>
  <clipPath id="p39f0f14ce7">
   <rect height="420.151992" width="1305.643359" x="108.436641" y="50.92"/>
  </clipPath>
 </defs>
</svg>
