<?xml version="1.0" encoding="utf-8" standalone="no"?>
<!DOCTYPE svg PUBLIC "-//W3C//DTD SVG 1.1//EN"
  "http://www.w3.org/Graphics/SVG/1.1/DTD/svg11.dtd">
<!-- Created with matplotlib (https://matplotlib.org/) -->
<svg height="576pt" version="1.1" viewBox="0 0 1440 576" width="1440pt" xmlns="http://www.w3.org/2000/svg" xmlns:xlink="http://www.w3.org/1999/xlink">
 <defs>
  <style type="text/css">
*{stroke-linecap:butt;stroke-linejoin:round;}
  </style>
 </defs>
 <g id="figure_1">
  <g id="patch_1">
   <path d="M 0 576 
L 1440 576 
L 1440 0 
L 0 0 
z
" style="fill:#ffffff;"/>
  </g>
  <g id="axes_1">
   <g id="patch_2">
    <path d="M 150.295 486.58 
L 1289.705 486.58 
L 1289.705 50.92 
L 150.295 50.92 
z
" style="fill:#ffffff;"/>
   </g>
   <g id="matplotlib.axis_1">
    <g id="xtick_1">
     <g id="line2d_1">
      <path clip-path="url(#p21791845cf)" d="M 166.368182 486.58 
L 166.368182 50.92 
" style="fill:none;stroke:#cccccc;stroke-linecap:round;stroke-width:2;"/>
     </g>
     <g id="text_1">
      <!-- 0 -->
      <defs>
       <path d="M 31.78125 66.40625 
Q 24.171875 66.40625 20.328125 58.90625 
Q 16.5 51.421875 16.5 36.375 
Q 16.5 21.390625 20.328125 13.890625 
Q 24.171875 6.390625 31.78125 6.390625 
Q 39.453125 6.390625 43.28125 13.890625 
Q 47.125 21.390625 47.125 36.375 
Q 47.125 51.421875 43.28125 58.90625 
Q 39.453125 66.40625 31.78125 66.40625 
z
M 31.78125 74.21875 
Q 44.046875 74.21875 50.515625 64.515625 
Q 56.984375 54.828125 56.984375 36.375 
Q 56.984375 17.96875 50.515625 8.265625 
Q 44.046875 -1.421875 31.78125 -1.421875 
Q 19.53125 -1.421875 13.0625 8.265625 
Q 6.59375 17.96875 6.59375 36.375 
Q 6.59375 54.828125 13.0625 64.515625 
Q 19.53125 74.21875 31.78125 74.21875 
z
" id="DejaVuSans-48"/>
      </defs>
      <g style="fill:#262626;" transform="translate(159.369432 518.796562)scale(0.22 -0.22)">
       <use xlink:href="#DejaVuSans-48"/>
      </g>
     </g>
    </g>
    <g id="xtick_2">
     <g id="line2d_2">
      <path clip-path="url(#p21791845cf)" d="M 344.959091 486.58 
L 344.959091 50.92 
" style="fill:none;stroke:#cccccc;stroke-linecap:round;stroke-width:2;"/>
     </g>
     <g id="text_2">
      <!-- 5 -->
      <defs>
       <path d="M 10.796875 72.90625 
L 49.515625 72.90625 
L 49.515625 64.59375 
L 19.828125 64.59375 
L 19.828125 46.734375 
Q 21.96875 47.46875 24.109375 47.828125 
Q 26.265625 48.1875 28.421875 48.1875 
Q 40.625 48.1875 47.75 41.5 
Q 54.890625 34.8125 54.890625 23.390625 
Q 54.890625 11.625 47.5625 5.09375 
Q 40.234375 -1.421875 26.90625 -1.421875 
Q 22.3125 -1.421875 17.546875 -0.640625 
Q 12.796875 0.140625 7.71875 1.703125 
L 7.71875 11.625 
Q 12.109375 9.234375 16.796875 8.0625 
Q 21.484375 6.890625 26.703125 6.890625 
Q 35.15625 6.890625 40.078125 11.328125 
Q 45.015625 15.765625 45.015625 23.390625 
Q 45.015625 31 40.078125 35.4375 
Q 35.15625 39.890625 26.703125 39.890625 
Q 22.75 39.890625 18.8125 39.015625 
Q 14.890625 38.140625 10.796875 36.28125 
z
" id="DejaVuSans-53"/>
      </defs>
      <g style="fill:#262626;" transform="translate(337.960341 518.796562)scale(0.22 -0.22)">
       <use xlink:href="#DejaVuSans-53"/>
      </g>
     </g>
    </g>
    <g id="xtick_3">
     <g id="line2d_3">
      <path clip-path="url(#p21791845cf)" d="M 523.55 486.58 
L 523.55 50.92 
" style="fill:none;stroke:#cccccc;stroke-linecap:round;stroke-width:2;"/>
     </g>
     <g id="text_3">
      <!-- 10 -->
      <defs>
       <path d="M 12.40625 8.296875 
L 28.515625 8.296875 
L 28.515625 63.921875 
L 10.984375 60.40625 
L 10.984375 69.390625 
L 28.421875 72.90625 
L 38.28125 72.90625 
L 38.28125 8.296875 
L 54.390625 8.296875 
L 54.390625 0 
L 12.40625 0 
z
" id="DejaVuSans-49"/>
      </defs>
      <g style="fill:#262626;" transform="translate(509.5525 518.796562)scale(0.22 -0.22)">
       <use xlink:href="#DejaVuSans-49"/>
       <use x="63.623047" xlink:href="#DejaVuSans-48"/>
      </g>
     </g>
    </g>
    <g id="xtick_4">
     <g id="line2d_4">
      <path clip-path="url(#p21791845cf)" d="M 702.140909 486.58 
L 702.140909 50.92 
" style="fill:none;stroke:#cccccc;stroke-linecap:round;stroke-width:2;"/>
     </g>
     <g id="text_4">
      <!-- 15 -->
      <g style="fill:#262626;" transform="translate(688.143409 518.796562)scale(0.22 -0.22)">
       <use xlink:href="#DejaVuSans-49"/>
       <use x="63.623047" xlink:href="#DejaVuSans-53"/>
      </g>
     </g>
    </g>
    <g id="xtick_5">
     <g id="line2d_5">
      <path clip-path="url(#p21791845cf)" d="M 880.731818 486.58 
L 880.731818 50.92 
" style="fill:none;stroke:#cccccc;stroke-linecap:round;stroke-width:2;"/>
     </g>
     <g id="text_5">
      <!-- 20 -->
      <defs>
       <path d="M 19.1875 8.296875 
L 53.609375 8.296875 
L 53.609375 0 
L 7.328125 0 
L 7.328125 8.296875 
Q 12.9375 14.109375 22.625 23.890625 
Q 32.328125 33.6875 34.8125 36.53125 
Q 39.546875 41.84375 41.421875 45.53125 
Q 43.3125 49.21875 43.3125 52.78125 
Q 43.3125 58.59375 39.234375 62.25 
Q 35.15625 65.921875 28.609375 65.921875 
Q 23.96875 65.921875 18.8125 64.3125 
Q 13.671875 62.703125 7.8125 59.421875 
L 7.8125 69.390625 
Q 13.765625 71.78125 18.9375 73 
Q 24.125 74.21875 28.421875 74.21875 
Q 39.75 74.21875 46.484375 68.546875 
Q 53.21875 62.890625 53.21875 53.421875 
Q 53.21875 48.921875 51.53125 44.890625 
Q 49.859375 40.875 45.40625 35.40625 
Q 44.1875 33.984375 37.640625 27.21875 
Q 31.109375 20.453125 19.1875 8.296875 
z
" id="DejaVuSans-50"/>
      </defs>
      <g style="fill:#262626;" transform="translate(866.734318 518.796562)scale(0.22 -0.22)">
       <use xlink:href="#DejaVuSans-50"/>
       <use x="63.623047" xlink:href="#DejaVuSans-48"/>
      </g>
     </g>
    </g>
    <g id="xtick_6">
     <g id="line2d_6">
      <path clip-path="url(#p21791845cf)" d="M 1059.322727 486.58 
L 1059.322727 50.92 
" style="fill:none;stroke:#cccccc;stroke-linecap:round;stroke-width:2;"/>
     </g>
     <g id="text_6">
      <!-- 25 -->
      <g style="fill:#262626;" transform="translate(1045.325227 518.796562)scale(0.22 -0.22)">
       <use xlink:href="#DejaVuSans-50"/>
       <use x="63.623047" xlink:href="#DejaVuSans-53"/>
      </g>
     </g>
    </g>
    <g id="xtick_7">
     <g id="line2d_7">
      <path clip-path="url(#p21791845cf)" d="M 1237.913636 486.58 
L 1237.913636 50.92 
" style="fill:none;stroke:#cccccc;stroke-linecap:round;stroke-width:2;"/>
     </g>
     <g id="text_7">
      <!-- 30 -->
      <defs>
       <path d="M 40.578125 39.3125 
Q 47.65625 37.796875 51.625 33 
Q 55.609375 28.21875 55.609375 21.1875 
Q 55.609375 10.40625 48.1875 4.484375 
Q 40.765625 -1.421875 27.09375 -1.421875 
Q 22.515625 -1.421875 17.65625 -0.515625 
Q 12.796875 0.390625 7.625 2.203125 
L 7.625 11.71875 
Q 11.71875 9.328125 16.59375 8.109375 
Q 21.484375 6.890625 26.8125 6.890625 
Q 36.078125 6.890625 40.9375 10.546875 
Q 45.796875 14.203125 45.796875 21.1875 
Q 45.796875 27.640625 41.28125 31.265625 
Q 36.765625 34.90625 28.71875 34.90625 
L 20.21875 34.90625 
L 20.21875 43.015625 
L 29.109375 43.015625 
Q 36.375 43.015625 40.234375 45.921875 
Q 44.09375 48.828125 44.09375 54.296875 
Q 44.09375 59.90625 40.109375 62.90625 
Q 36.140625 65.921875 28.71875 65.921875 
Q 24.65625 65.921875 20.015625 65.03125 
Q 15.375 64.15625 9.8125 62.3125 
L 9.8125 71.09375 
Q 15.4375 72.65625 20.34375 73.4375 
Q 25.25 74.21875 29.59375 74.21875 
Q 40.828125 74.21875 47.359375 69.109375 
Q 53.90625 64.015625 53.90625 55.328125 
Q 53.90625 49.265625 50.4375 45.09375 
Q 46.96875 40.921875 40.578125 39.3125 
z
" id="DejaVuSans-51"/>
      </defs>
      <g style="fill:#262626;" transform="translate(1223.916136 518.796562)scale(0.22 -0.22)">
       <use xlink:href="#DejaVuSans-51"/>
       <use x="63.623047" xlink:href="#DejaVuSans-48"/>
      </g>
     </g>
    </g>
    <g id="text_8">
     <!-- VAF &gt;= X % -->
     <defs>
      <path d="M 28.609375 0 
L 0.78125 72.90625 
L 11.078125 72.90625 
L 34.1875 11.53125 
L 57.328125 72.90625 
L 67.578125 72.90625 
L 39.796875 0 
z
" id="DejaVuSans-86"/>
      <path d="M 34.1875 63.1875 
L 20.796875 26.90625 
L 47.609375 26.90625 
z
M 28.609375 72.90625 
L 39.796875 72.90625 
L 67.578125 0 
L 57.328125 0 
L 50.6875 18.703125 
L 17.828125 18.703125 
L 11.1875 0 
L 0.78125 0 
z
" id="DejaVuSans-65"/>
      <path d="M 9.8125 72.90625 
L 51.703125 72.90625 
L 51.703125 64.59375 
L 19.671875 64.59375 
L 19.671875 43.109375 
L 48.578125 43.109375 
L 48.578125 34.8125 
L 19.671875 34.8125 
L 19.671875 0 
L 9.8125 0 
z
" id="DejaVuSans-70"/>
      <path id="DejaVuSans-32"/>
      <path d="M 10.59375 49.21875 
L 10.59375 58.109375 
L 73.1875 35.40625 
L 73.1875 27.296875 
L 10.59375 4.59375 
L 10.59375 13.484375 
L 60.890625 31.296875 
z
" id="DejaVuSans-62"/>
      <path d="M 10.59375 45.40625 
L 73.1875 45.40625 
L 73.1875 37.203125 
L 10.59375 37.203125 
z
M 10.59375 25.484375 
L 73.1875 25.484375 
L 73.1875 17.1875 
L 10.59375 17.1875 
z
" id="DejaVuSans-61"/>
      <path d="M 6.296875 72.90625 
L 16.890625 72.90625 
L 35.015625 45.796875 
L 53.21875 72.90625 
L 63.8125 72.90625 
L 40.375 37.890625 
L 65.375 0 
L 54.78125 0 
L 34.28125 31 
L 13.625 0 
L 2.984375 0 
L 29 38.921875 
z
" id="DejaVuSans-88"/>
      <path d="M 72.703125 32.078125 
Q 68.453125 32.078125 66.03125 28.46875 
Q 63.625 24.859375 63.625 18.40625 
Q 63.625 12.0625 66.03125 8.421875 
Q 68.453125 4.78125 72.703125 4.78125 
Q 76.859375 4.78125 79.265625 8.421875 
Q 81.6875 12.0625 81.6875 18.40625 
Q 81.6875 24.8125 79.265625 28.4375 
Q 76.859375 32.078125 72.703125 32.078125 
z
M 72.703125 38.28125 
Q 80.421875 38.28125 84.953125 32.90625 
Q 89.5 27.546875 89.5 18.40625 
Q 89.5 9.28125 84.9375 3.921875 
Q 80.375 -1.421875 72.703125 -1.421875 
Q 64.890625 -1.421875 60.34375 3.921875 
Q 55.8125 9.28125 55.8125 18.40625 
Q 55.8125 27.59375 60.375 32.9375 
Q 64.9375 38.28125 72.703125 38.28125 
z
M 22.3125 68.015625 
Q 18.109375 68.015625 15.6875 64.375 
Q 13.28125 60.75 13.28125 54.390625 
Q 13.28125 47.953125 15.671875 44.328125 
Q 18.0625 40.71875 22.3125 40.71875 
Q 26.5625 40.71875 28.96875 44.328125 
Q 31.390625 47.953125 31.390625 54.390625 
Q 31.390625 60.6875 28.953125 64.34375 
Q 26.515625 68.015625 22.3125 68.015625 
z
M 66.40625 74.21875 
L 74.21875 74.21875 
L 28.609375 -1.421875 
L 20.796875 -1.421875 
z
M 22.3125 74.21875 
Q 30.03125 74.21875 34.609375 68.875 
Q 39.203125 63.53125 39.203125 54.390625 
Q 39.203125 45.171875 34.640625 39.84375 
Q 30.078125 34.515625 22.3125 34.515625 
Q 14.546875 34.515625 10.03125 39.859375 
Q 5.515625 45.21875 5.515625 54.390625 
Q 5.515625 63.484375 10.046875 68.84375 
Q 14.59375 74.21875 22.3125 74.21875 
z
" id="DejaVuSans-37"/>
     </defs>
     <g style="fill:#262626;" transform="translate(645.5175 545.608125)scale(0.24 -0.24)">
      <use xlink:href="#DejaVuSans-86"/>
      <use x="68.314453" xlink:href="#DejaVuSans-65"/>
      <use x="136.722656" xlink:href="#DejaVuSans-70"/>
      <use x="194.242188" xlink:href="#DejaVuSans-32"/>
      <use x="226.029297" xlink:href="#DejaVuSans-62"/>
      <use x="309.818359" xlink:href="#DejaVuSans-61"/>
      <use x="393.607422" xlink:href="#DejaVuSans-32"/>
      <use x="425.394531" xlink:href="#DejaVuSans-88"/>
      <use x="493.900391" xlink:href="#DejaVuSans-32"/>
      <use x="525.6875" xlink:href="#DejaVuSans-37"/>
     </g>
    </g>
   </g>
   <g id="matplotlib.axis_2">
    <g id="ytick_1">
     <g id="line2d_8">
      <path clip-path="url(#p21791845cf)" d="M 150.295 428.371983 
L 1289.705 428.371983 
" style="fill:none;stroke:#cccccc;stroke-linecap:round;stroke-width:2;"/>
     </g>
     <g id="text_9">
      <!-- 0.05 -->
      <defs>
       <path d="M 10.6875 12.40625 
L 21 12.40625 
L 21 0 
L 10.6875 0 
z
" id="DejaVuSans-46"/>
      </defs>
      <g style="fill:#262626;" transform="translate(85.810625 436.730265)scale(0.22 -0.22)">
       <use xlink:href="#DejaVuSans-48"/>
       <use x="63.623047" xlink:href="#DejaVuSans-46"/>
       <use x="95.410156" xlink:href="#DejaVuSans-48"/>
       <use x="159.033203" xlink:href="#DejaVuSans-53"/>
      </g>
     </g>
    </g>
    <g id="ytick_2">
     <g id="line2d_9">
      <path clip-path="url(#p21791845cf)" d="M 150.295 368.363719 
L 1289.705 368.363719 
" style="fill:none;stroke:#cccccc;stroke-linecap:round;stroke-width:2;"/>
     </g>
     <g id="text_10">
      <!-- 0.10 -->
      <g style="fill:#262626;" transform="translate(85.810625 376.722)scale(0.22 -0.22)">
       <use xlink:href="#DejaVuSans-48"/>
       <use x="63.623047" xlink:href="#DejaVuSans-46"/>
       <use x="95.410156" xlink:href="#DejaVuSans-49"/>
       <use x="159.033203" xlink:href="#DejaVuSans-48"/>
      </g>
     </g>
    </g>
    <g id="ytick_3">
     <g id="line2d_10">
      <path clip-path="url(#p21791845cf)" d="M 150.295 308.355455 
L 1289.705 308.355455 
" style="fill:none;stroke:#cccccc;stroke-linecap:round;stroke-width:2;"/>
     </g>
     <g id="text_11">
      <!-- 0.15 -->
      <g style="fill:#262626;" transform="translate(85.810625 316.713736)scale(0.22 -0.22)">
       <use xlink:href="#DejaVuSans-48"/>
       <use x="63.623047" xlink:href="#DejaVuSans-46"/>
       <use x="95.410156" xlink:href="#DejaVuSans-49"/>
       <use x="159.033203" xlink:href="#DejaVuSans-53"/>
      </g>
     </g>
    </g>
    <g id="ytick_4">
     <g id="line2d_11">
      <path clip-path="url(#p21791845cf)" d="M 150.295 248.34719 
L 1289.705 248.34719 
" style="fill:none;stroke:#cccccc;stroke-linecap:round;stroke-width:2;"/>
     </g>
     <g id="text_12">
      <!-- 0.20 -->
      <g style="fill:#262626;" transform="translate(85.810625 256.705471)scale(0.22 -0.22)">
       <use xlink:href="#DejaVuSans-48"/>
       <use x="63.623047" xlink:href="#DejaVuSans-46"/>
       <use x="95.410156" xlink:href="#DejaVuSans-50"/>
       <use x="159.033203" xlink:href="#DejaVuSans-48"/>
      </g>
     </g>
    </g>
    <g id="ytick_5">
     <g id="line2d_12">
      <path clip-path="url(#p21791845cf)" d="M 150.295 188.338926 
L 1289.705 188.338926 
" style="fill:none;stroke:#cccccc;stroke-linecap:round;stroke-width:2;"/>
     </g>
     <g id="text_13">
      <!-- 0.25 -->
      <g style="fill:#262626;" transform="translate(85.810625 196.697207)scale(0.22 -0.22)">
       <use xlink:href="#DejaVuSans-48"/>
       <use x="63.623047" xlink:href="#DejaVuSans-46"/>
       <use x="95.410156" xlink:href="#DejaVuSans-50"/>
       <use x="159.033203" xlink:href="#DejaVuSans-53"/>
      </g>
     </g>
    </g>
    <g id="ytick_6">
     <g id="line2d_13">
      <path clip-path="url(#p21791845cf)" d="M 150.295 128.330661 
L 1289.705 128.330661 
" style="fill:none;stroke:#cccccc;stroke-linecap:round;stroke-width:2;"/>
     </g>
     <g id="text_14">
      <!-- 0.30 -->
      <g style="fill:#262626;" transform="translate(85.810625 136.688942)scale(0.22 -0.22)">
       <use xlink:href="#DejaVuSans-48"/>
       <use x="63.623047" xlink:href="#DejaVuSans-46"/>
       <use x="95.410156" xlink:href="#DejaVuSans-51"/>
       <use x="159.033203" xlink:href="#DejaVuSans-48"/>
      </g>
     </g>
    </g>
    <g id="ytick_7">
     <g id="line2d_14">
      <path clip-path="url(#p21791845cf)" d="M 150.295 68.322397 
L 1289.705 68.322397 
" style="fill:none;stroke:#cccccc;stroke-linecap:round;stroke-width:2;"/>
     </g>
     <g id="text_15">
      <!-- 0.35 -->
      <g style="fill:#262626;" transform="translate(85.810625 76.680678)scale(0.22 -0.22)">
       <use xlink:href="#DejaVuSans-48"/>
       <use x="63.623047" xlink:href="#DejaVuSans-46"/>
       <use x="95.410156" xlink:href="#DejaVuSans-51"/>
       <use x="159.033203" xlink:href="#DejaVuSans-53"/>
      </g>
     </g>
    </g>
    <g id="text_16">
     <!-- normalized DCG -->
     <defs>
      <path d="M 54.890625 33.015625 
L 54.890625 0 
L 45.90625 0 
L 45.90625 32.71875 
Q 45.90625 40.484375 42.875 44.328125 
Q 39.84375 48.1875 33.796875 48.1875 
Q 26.515625 48.1875 22.3125 43.546875 
Q 18.109375 38.921875 18.109375 30.90625 
L 18.109375 0 
L 9.078125 0 
L 9.078125 54.6875 
L 18.109375 54.6875 
L 18.109375 46.1875 
Q 21.34375 51.125 25.703125 53.5625 
Q 30.078125 56 35.796875 56 
Q 45.21875 56 50.046875 50.171875 
Q 54.890625 44.34375 54.890625 33.015625 
z
" id="DejaVuSans-110"/>
      <path d="M 30.609375 48.390625 
Q 23.390625 48.390625 19.1875 42.75 
Q 14.984375 37.109375 14.984375 27.296875 
Q 14.984375 17.484375 19.15625 11.84375 
Q 23.34375 6.203125 30.609375 6.203125 
Q 37.796875 6.203125 41.984375 11.859375 
Q 46.1875 17.53125 46.1875 27.296875 
Q 46.1875 37.015625 41.984375 42.703125 
Q 37.796875 48.390625 30.609375 48.390625 
z
M 30.609375 56 
Q 42.328125 56 49.015625 48.375 
Q 55.71875 40.765625 55.71875 27.296875 
Q 55.71875 13.875 49.015625 6.21875 
Q 42.328125 -1.421875 30.609375 -1.421875 
Q 18.84375 -1.421875 12.171875 6.21875 
Q 5.515625 13.875 5.515625 27.296875 
Q 5.515625 40.765625 12.171875 48.375 
Q 18.84375 56 30.609375 56 
z
" id="DejaVuSans-111"/>
      <path d="M 41.109375 46.296875 
Q 39.59375 47.171875 37.8125 47.578125 
Q 36.03125 48 33.890625 48 
Q 26.265625 48 22.1875 43.046875 
Q 18.109375 38.09375 18.109375 28.8125 
L 18.109375 0 
L 9.078125 0 
L 9.078125 54.6875 
L 18.109375 54.6875 
L 18.109375 46.1875 
Q 20.953125 51.171875 25.484375 53.578125 
Q 30.03125 56 36.53125 56 
Q 37.453125 56 38.578125 55.875 
Q 39.703125 55.765625 41.0625 55.515625 
z
" id="DejaVuSans-114"/>
      <path d="M 52 44.1875 
Q 55.375 50.25 60.0625 53.125 
Q 64.75 56 71.09375 56 
Q 79.640625 56 84.28125 50.015625 
Q 88.921875 44.046875 88.921875 33.015625 
L 88.921875 0 
L 79.890625 0 
L 79.890625 32.71875 
Q 79.890625 40.578125 77.09375 44.375 
Q 74.3125 48.1875 68.609375 48.1875 
Q 61.625 48.1875 57.5625 43.546875 
Q 53.515625 38.921875 53.515625 30.90625 
L 53.515625 0 
L 44.484375 0 
L 44.484375 32.71875 
Q 44.484375 40.625 41.703125 44.40625 
Q 38.921875 48.1875 33.109375 48.1875 
Q 26.21875 48.1875 22.15625 43.53125 
Q 18.109375 38.875 18.109375 30.90625 
L 18.109375 0 
L 9.078125 0 
L 9.078125 54.6875 
L 18.109375 54.6875 
L 18.109375 46.1875 
Q 21.1875 51.21875 25.484375 53.609375 
Q 29.78125 56 35.6875 56 
Q 41.65625 56 45.828125 52.96875 
Q 50 49.953125 52 44.1875 
z
" id="DejaVuSans-109"/>
      <path d="M 34.28125 27.484375 
Q 23.390625 27.484375 19.1875 25 
Q 14.984375 22.515625 14.984375 16.5 
Q 14.984375 11.71875 18.140625 8.90625 
Q 21.296875 6.109375 26.703125 6.109375 
Q 34.1875 6.109375 38.703125 11.40625 
Q 43.21875 16.703125 43.21875 25.484375 
L 43.21875 27.484375 
z
M 52.203125 31.203125 
L 52.203125 0 
L 43.21875 0 
L 43.21875 8.296875 
Q 40.140625 3.328125 35.546875 0.953125 
Q 30.953125 -1.421875 24.3125 -1.421875 
Q 15.921875 -1.421875 10.953125 3.296875 
Q 6 8.015625 6 15.921875 
Q 6 25.140625 12.171875 29.828125 
Q 18.359375 34.515625 30.609375 34.515625 
L 43.21875 34.515625 
L 43.21875 35.40625 
Q 43.21875 41.609375 39.140625 45 
Q 35.0625 48.390625 27.6875 48.390625 
Q 23 48.390625 18.546875 47.265625 
Q 14.109375 46.140625 10.015625 43.890625 
L 10.015625 52.203125 
Q 14.9375 54.109375 19.578125 55.046875 
Q 24.21875 56 28.609375 56 
Q 40.484375 56 46.34375 49.84375 
Q 52.203125 43.703125 52.203125 31.203125 
z
" id="DejaVuSans-97"/>
      <path d="M 9.421875 75.984375 
L 18.40625 75.984375 
L 18.40625 0 
L 9.421875 0 
z
" id="DejaVuSans-108"/>
      <path d="M 9.421875 54.6875 
L 18.40625 54.6875 
L 18.40625 0 
L 9.421875 0 
z
M 9.421875 75.984375 
L 18.40625 75.984375 
L 18.40625 64.59375 
L 9.421875 64.59375 
z
" id="DejaVuSans-105"/>
      <path d="M 5.515625 54.6875 
L 48.1875 54.6875 
L 48.1875 46.484375 
L 14.40625 7.171875 
L 48.1875 7.171875 
L 48.1875 0 
L 4.296875 0 
L 4.296875 8.203125 
L 38.09375 47.515625 
L 5.515625 47.515625 
z
" id="DejaVuSans-122"/>
      <path d="M 56.203125 29.59375 
L 56.203125 25.203125 
L 14.890625 25.203125 
Q 15.484375 15.921875 20.484375 11.0625 
Q 25.484375 6.203125 34.421875 6.203125 
Q 39.59375 6.203125 44.453125 7.46875 
Q 49.3125 8.734375 54.109375 11.28125 
L 54.109375 2.78125 
Q 49.265625 0.734375 44.1875 -0.34375 
Q 39.109375 -1.421875 33.890625 -1.421875 
Q 20.796875 -1.421875 13.15625 6.1875 
Q 5.515625 13.8125 5.515625 26.8125 
Q 5.515625 40.234375 12.765625 48.109375 
Q 20.015625 56 32.328125 56 
Q 43.359375 56 49.78125 48.890625 
Q 56.203125 41.796875 56.203125 29.59375 
z
M 47.21875 32.234375 
Q 47.125 39.59375 43.09375 43.984375 
Q 39.0625 48.390625 32.421875 48.390625 
Q 24.90625 48.390625 20.390625 44.140625 
Q 15.875 39.890625 15.1875 32.171875 
z
" id="DejaVuSans-101"/>
      <path d="M 45.40625 46.390625 
L 45.40625 75.984375 
L 54.390625 75.984375 
L 54.390625 0 
L 45.40625 0 
L 45.40625 8.203125 
Q 42.578125 3.328125 38.25 0.953125 
Q 33.9375 -1.421875 27.875 -1.421875 
Q 17.96875 -1.421875 11.734375 6.484375 
Q 5.515625 14.40625 5.515625 27.296875 
Q 5.515625 40.1875 11.734375 48.09375 
Q 17.96875 56 27.875 56 
Q 33.9375 56 38.25 53.625 
Q 42.578125 51.265625 45.40625 46.390625 
z
M 14.796875 27.296875 
Q 14.796875 17.390625 18.875 11.75 
Q 22.953125 6.109375 30.078125 6.109375 
Q 37.203125 6.109375 41.296875 11.75 
Q 45.40625 17.390625 45.40625 27.296875 
Q 45.40625 37.203125 41.296875 42.84375 
Q 37.203125 48.484375 30.078125 48.484375 
Q 22.953125 48.484375 18.875 42.84375 
Q 14.796875 37.203125 14.796875 27.296875 
z
" id="DejaVuSans-100"/>
      <path d="M 19.671875 64.796875 
L 19.671875 8.109375 
L 31.59375 8.109375 
Q 46.6875 8.109375 53.6875 14.9375 
Q 60.6875 21.78125 60.6875 36.53125 
Q 60.6875 51.171875 53.6875 57.984375 
Q 46.6875 64.796875 31.59375 64.796875 
z
M 9.8125 72.90625 
L 30.078125 72.90625 
Q 51.265625 72.90625 61.171875 64.09375 
Q 71.09375 55.28125 71.09375 36.53125 
Q 71.09375 17.671875 61.125 8.828125 
Q 51.171875 0 30.078125 0 
L 9.8125 0 
z
" id="DejaVuSans-68"/>
      <path d="M 64.40625 67.28125 
L 64.40625 56.890625 
Q 59.421875 61.53125 53.78125 63.8125 
Q 48.140625 66.109375 41.796875 66.109375 
Q 29.296875 66.109375 22.65625 58.46875 
Q 16.015625 50.828125 16.015625 36.375 
Q 16.015625 21.96875 22.65625 14.328125 
Q 29.296875 6.6875 41.796875 6.6875 
Q 48.140625 6.6875 53.78125 8.984375 
Q 59.421875 11.28125 64.40625 15.921875 
L 64.40625 5.609375 
Q 59.234375 2.09375 53.4375 0.328125 
Q 47.65625 -1.421875 41.21875 -1.421875 
Q 24.65625 -1.421875 15.125 8.703125 
Q 5.609375 18.84375 5.609375 36.375 
Q 5.609375 53.953125 15.125 64.078125 
Q 24.65625 74.21875 41.21875 74.21875 
Q 47.75 74.21875 53.53125 72.484375 
Q 59.328125 70.75 64.40625 67.28125 
z
" id="DejaVuSans-67"/>
      <path d="M 59.515625 10.40625 
L 59.515625 29.984375 
L 43.40625 29.984375 
L 43.40625 38.09375 
L 69.28125 38.09375 
L 69.28125 6.78125 
Q 63.578125 2.734375 56.6875 0.65625 
Q 49.8125 -1.421875 42 -1.421875 
Q 24.90625 -1.421875 15.25 8.5625 
Q 5.609375 18.5625 5.609375 36.375 
Q 5.609375 54.25 15.25 64.234375 
Q 24.90625 74.21875 42 74.21875 
Q 49.125 74.21875 55.546875 72.453125 
Q 61.96875 70.703125 67.390625 67.28125 
L 67.390625 56.78125 
Q 61.921875 61.421875 55.765625 63.765625 
Q 49.609375 66.109375 42.828125 66.109375 
Q 29.4375 66.109375 22.71875 58.640625 
Q 16.015625 51.171875 16.015625 36.375 
Q 16.015625 21.625 22.71875 14.15625 
Q 29.4375 6.6875 42.828125 6.6875 
Q 48.046875 6.6875 52.140625 7.59375 
Q 56.25 8.5 59.515625 10.40625 
z
" id="DejaVuSans-71"/>
     </defs>
     <g style="fill:#262626;" transform="translate(76.819375 366.37)rotate(-90)scale(0.24 -0.24)">
      <use xlink:href="#DejaVuSans-110"/>
      <use x="63.378906" xlink:href="#DejaVuSans-111"/>
      <use x="124.560547" xlink:href="#DejaVuSans-114"/>
      <use x="165.658203" xlink:href="#DejaVuSans-109"/>
      <use x="263.070312" xlink:href="#DejaVuSans-97"/>
      <use x="324.349609" xlink:href="#DejaVuSans-108"/>
      <use x="352.132812" xlink:href="#DejaVuSans-105"/>
      <use x="379.916016" xlink:href="#DejaVuSans-122"/>
      <use x="432.40625" xlink:href="#DejaVuSans-101"/>
      <use x="493.929688" xlink:href="#DejaVuSans-100"/>
      <use x="557.40625" xlink:href="#DejaVuSans-32"/>
      <use x="589.193359" xlink:href="#DejaVuSans-68"/>
      <use x="666.195312" xlink:href="#DejaVuSans-67"/>
      <use x="736.019531" xlink:href="#DejaVuSans-71"/>
     </g>
    </g>
   </g>
   <g id="line2d_15">
    <path clip-path="url(#p21791845cf)" d="M 202.086364 399.568017 
L 237.804545 394.767355 
L 273.522727 405.568843 
L 344.959091 401.968347 
L 523.55 364.763223 
L 880.731818 298.754132 
L 1237.913636 190.739256 
" style="fill:none;stroke:#949494;stroke-linecap:round;stroke-width:3;"/>
    <defs>
     <path d="M -0 6 
L 6 -6 
L -6 -6 
z
" id="mcc33c71fb4" style="stroke:#ffffff;stroke-linejoin:miter;stroke-width:0.75;"/>
    </defs>
    <g clip-path="url(#p21791845cf)">
     <use style="fill:#949494;stroke:#ffffff;stroke-linejoin:miter;stroke-width:0.75;" x="202.086364" xlink:href="#mcc33c71fb4" y="399.568017"/>
     <use style="fill:#949494;stroke:#ffffff;stroke-linejoin:miter;stroke-width:0.75;" x="237.804545" xlink:href="#mcc33c71fb4" y="394.767355"/>
     <use style="fill:#949494;stroke:#ffffff;stroke-linejoin:miter;stroke-width:0.75;" x="273.522727" xlink:href="#mcc33c71fb4" y="405.568843"/>
     <use style="fill:#949494;stroke:#ffffff;stroke-linejoin:miter;stroke-width:0.75;" x="344.959091" xlink:href="#mcc33c71fb4" y="401.968347"/>
     <use style="fill:#949494;stroke:#ffffff;stroke-linejoin:miter;stroke-width:0.75;" x="523.55" xlink:href="#mcc33c71fb4" y="364.763223"/>
     <use style="fill:#949494;stroke:#ffffff;stroke-linejoin:miter;stroke-width:0.75;" x="880.731818" xlink:href="#mcc33c71fb4" y="298.754132"/>
     <use style="fill:#949494;stroke:#ffffff;stroke-linejoin:miter;stroke-width:0.75;" x="1237.913636" xlink:href="#mcc33c71fb4" y="190.739256"/>
    </g>
   </g>
   <g id="line2d_16">
    <path clip-path="url(#p21791845cf)" d="M 202.086364 333.558926 
L 237.804545 333.558926 
L 273.522727 361.162727 
L 344.959091 304.754959 
L 523.55 265.149504 
L 880.731818 256.748347 
L 1237.913636 70.722727 
" style="fill:none;stroke:#949494;stroke-linecap:round;stroke-width:3;"/>
    <defs>
     <path d="M -6 6 
L 6 6 
L 6 -6 
L -6 -6 
z
" id="m131837e9cb" style="stroke:#ffffff;stroke-linejoin:miter;stroke-width:0.75;"/>
    </defs>
    <g clip-path="url(#p21791845cf)">
     <use style="fill:#949494;stroke:#ffffff;stroke-linejoin:miter;stroke-width:0.75;" x="202.086364" xlink:href="#m131837e9cb" y="333.558926"/>
     <use style="fill:#949494;stroke:#ffffff;stroke-linejoin:miter;stroke-width:0.75;" x="237.804545" xlink:href="#m131837e9cb" y="333.558926"/>
     <use style="fill:#949494;stroke:#ffffff;stroke-linejoin:miter;stroke-width:0.75;" x="273.522727" xlink:href="#m131837e9cb" y="361.162727"/>
     <use style="fill:#949494;stroke:#ffffff;stroke-linejoin:miter;stroke-width:0.75;" x="344.959091" xlink:href="#m131837e9cb" y="304.754959"/>
     <use style="fill:#949494;stroke:#ffffff;stroke-linejoin:miter;stroke-width:0.75;" x="523.55" xlink:href="#m131837e9cb" y="265.149504"/>
     <use style="fill:#949494;stroke:#ffffff;stroke-linejoin:miter;stroke-width:0.75;" x="880.731818" xlink:href="#m131837e9cb" y="256.748347"/>
     <use style="fill:#949494;stroke:#ffffff;stroke-linejoin:miter;stroke-width:0.75;" x="1237.913636" xlink:href="#m131837e9cb" y="70.722727"/>
    </g>
   </g>
   <g id="line2d_17">
    <path clip-path="url(#p21791845cf)" d="M 202.086364 466.777273 
L 237.804545 460.776446 
L 273.522727 460.776446 
L 344.959091 454.77562 
L 523.55 446.374463 
L 880.731818 440.373636 
L 1237.913636 421.170992 
" style="fill:none;stroke:#949494;stroke-linecap:round;stroke-width:3;"/>
    <defs>
     <path d="M 0 6 
C 1.591219 6 3.117479 5.367802 4.242641 4.242641 
C 5.367802 3.117479 6 1.591219 6 0 
C 6 -1.591219 5.367802 -3.117479 4.242641 -4.242641 
C 3.117479 -5.367802 1.591219 -6 0 -6 
C -1.591219 -6 -3.117479 -5.367802 -4.242641 -4.242641 
C -5.367802 -3.117479 -6 -1.591219 -6 0 
C -6 1.591219 -5.367802 3.117479 -4.242641 4.242641 
C -3.117479 5.367802 -1.591219 6 0 6 
z
" id="m81148be8e6" style="stroke:#ffffff;stroke-width:0.75;"/>
    </defs>
    <g clip-path="url(#p21791845cf)">
     <use style="fill:#949494;stroke:#ffffff;stroke-width:0.75;" x="202.086364" xlink:href="#m81148be8e6" y="466.777273"/>
     <use style="fill:#949494;stroke:#ffffff;stroke-width:0.75;" x="237.804545" xlink:href="#m81148be8e6" y="460.776446"/>
     <use style="fill:#949494;stroke:#ffffff;stroke-width:0.75;" x="273.522727" xlink:href="#m81148be8e6" y="460.776446"/>
     <use style="fill:#949494;stroke:#ffffff;stroke-width:0.75;" x="344.959091" xlink:href="#m81148be8e6" y="454.77562"/>
     <use style="fill:#949494;stroke:#ffffff;stroke-width:0.75;" x="523.55" xlink:href="#m81148be8e6" y="446.374463"/>
     <use style="fill:#949494;stroke:#ffffff;stroke-width:0.75;" x="880.731818" xlink:href="#m81148be8e6" y="440.373636"/>
     <use style="fill:#949494;stroke:#ffffff;stroke-width:0.75;" x="1237.913636" xlink:href="#m81148be8e6" y="421.170992"/>
    </g>
   </g>
   <g id="line2d_18">
    <path clip-path="url(#p21791845cf)" d="M 202.086364 423.571322 
L 237.804545 407.969174 
L 273.522727 417.570496 
L 344.959091 415.170165 
L 523.55 394.767355 
L 880.731818 371.964215 
L 1237.913636 357.562231 
" style="fill:none;stroke:#949494;stroke-linecap:round;stroke-width:3;"/>
    <g clip-path="url(#p21791845cf)">
     <use style="fill:#949494;stroke:#ffffff;stroke-width:0.75;" x="202.086364" xlink:href="#m81148be8e6" y="423.571322"/>
     <use style="fill:#949494;stroke:#ffffff;stroke-width:0.75;" x="237.804545" xlink:href="#m81148be8e6" y="407.969174"/>
     <use style="fill:#949494;stroke:#ffffff;stroke-width:0.75;" x="273.522727" xlink:href="#m81148be8e6" y="417.570496"/>
     <use style="fill:#949494;stroke:#ffffff;stroke-width:0.75;" x="344.959091" xlink:href="#m81148be8e6" y="415.170165"/>
     <use style="fill:#949494;stroke:#ffffff;stroke-width:0.75;" x="523.55" xlink:href="#m81148be8e6" y="394.767355"/>
     <use style="fill:#949494;stroke:#ffffff;stroke-width:0.75;" x="880.731818" xlink:href="#m81148be8e6" y="371.964215"/>
     <use style="fill:#949494;stroke:#ffffff;stroke-width:0.75;" x="1237.913636" xlink:href="#m81148be8e6" y="357.562231"/>
    </g>
   </g>
   <g id="text_17">
    <!-- Discounted Cumulative Gain (DCG) on the top 50 predictions of new clonal variants from 2020 subclonal variants -->
    <defs>
     <path d="M 44.28125 53.078125 
L 44.28125 44.578125 
Q 40.484375 46.53125 36.375 47.5 
Q 32.28125 48.484375 27.875 48.484375 
Q 21.1875 48.484375 17.84375 46.4375 
Q 14.5 44.390625 14.5 40.28125 
Q 14.5 37.15625 16.890625 35.375 
Q 19.28125 33.59375 26.515625 31.984375 
L 29.59375 31.296875 
Q 39.15625 29.25 43.1875 25.515625 
Q 47.21875 21.78125 47.21875 15.09375 
Q 47.21875 7.46875 41.1875 3.015625 
Q 35.15625 -1.421875 24.609375 -1.421875 
Q 20.21875 -1.421875 15.453125 -0.5625 
Q 10.6875 0.296875 5.421875 2 
L 5.421875 11.28125 
Q 10.40625 8.6875 15.234375 7.390625 
Q 20.0625 6.109375 24.8125 6.109375 
Q 31.15625 6.109375 34.5625 8.28125 
Q 37.984375 10.453125 37.984375 14.40625 
Q 37.984375 18.0625 35.515625 20.015625 
Q 33.0625 21.96875 24.703125 23.78125 
L 21.578125 24.515625 
Q 13.234375 26.265625 9.515625 29.90625 
Q 5.8125 33.546875 5.8125 39.890625 
Q 5.8125 47.609375 11.28125 51.796875 
Q 16.75 56 26.8125 56 
Q 31.78125 56 36.171875 55.265625 
Q 40.578125 54.546875 44.28125 53.078125 
z
" id="DejaVuSans-115"/>
     <path d="M 48.78125 52.59375 
L 48.78125 44.1875 
Q 44.96875 46.296875 41.140625 47.34375 
Q 37.3125 48.390625 33.40625 48.390625 
Q 24.65625 48.390625 19.8125 42.84375 
Q 14.984375 37.3125 14.984375 27.296875 
Q 14.984375 17.28125 19.8125 11.734375 
Q 24.65625 6.203125 33.40625 6.203125 
Q 37.3125 6.203125 41.140625 7.25 
Q 44.96875 8.296875 48.78125 10.40625 
L 48.78125 2.09375 
Q 45.015625 0.34375 40.984375 -0.53125 
Q 36.96875 -1.421875 32.421875 -1.421875 
Q 20.0625 -1.421875 12.78125 6.34375 
Q 5.515625 14.109375 5.515625 27.296875 
Q 5.515625 40.671875 12.859375 48.328125 
Q 20.21875 56 33.015625 56 
Q 37.15625 56 41.109375 55.140625 
Q 45.0625 54.296875 48.78125 52.59375 
z
" id="DejaVuSans-99"/>
     <path d="M 8.5 21.578125 
L 8.5 54.6875 
L 17.484375 54.6875 
L 17.484375 21.921875 
Q 17.484375 14.15625 20.5 10.265625 
Q 23.53125 6.390625 29.59375 6.390625 
Q 36.859375 6.390625 41.078125 11.03125 
Q 45.3125 15.671875 45.3125 23.6875 
L 45.3125 54.6875 
L 54.296875 54.6875 
L 54.296875 0 
L 45.3125 0 
L 45.3125 8.40625 
Q 42.046875 3.421875 37.71875 1 
Q 33.40625 -1.421875 27.6875 -1.421875 
Q 18.265625 -1.421875 13.375 4.4375 
Q 8.5 10.296875 8.5 21.578125 
z
M 31.109375 56 
z
" id="DejaVuSans-117"/>
     <path d="M 18.3125 70.21875 
L 18.3125 54.6875 
L 36.8125 54.6875 
L 36.8125 47.703125 
L 18.3125 47.703125 
L 18.3125 18.015625 
Q 18.3125 11.328125 20.140625 9.421875 
Q 21.96875 7.515625 27.59375 7.515625 
L 36.8125 7.515625 
L 36.8125 0 
L 27.59375 0 
Q 17.1875 0 13.234375 3.875 
Q 9.28125 7.765625 9.28125 18.015625 
L 9.28125 47.703125 
L 2.6875 47.703125 
L 2.6875 54.6875 
L 9.28125 54.6875 
L 9.28125 70.21875 
z
" id="DejaVuSans-116"/>
     <path d="M 2.984375 54.6875 
L 12.5 54.6875 
L 29.59375 8.796875 
L 46.6875 54.6875 
L 56.203125 54.6875 
L 35.6875 0 
L 23.484375 0 
z
" id="DejaVuSans-118"/>
     <path d="M 31 75.875 
Q 24.46875 64.65625 21.28125 53.65625 
Q 18.109375 42.671875 18.109375 31.390625 
Q 18.109375 20.125 21.3125 9.0625 
Q 24.515625 -2 31 -13.1875 
L 23.1875 -13.1875 
Q 15.875 -1.703125 12.234375 9.375 
Q 8.59375 20.453125 8.59375 31.390625 
Q 8.59375 42.28125 12.203125 53.3125 
Q 15.828125 64.359375 23.1875 75.875 
z
" id="DejaVuSans-40"/>
     <path d="M 8.015625 75.875 
L 15.828125 75.875 
Q 23.140625 64.359375 26.78125 53.3125 
Q 30.421875 42.28125 30.421875 31.390625 
Q 30.421875 20.453125 26.78125 9.375 
Q 23.140625 -1.703125 15.828125 -13.1875 
L 8.015625 -13.1875 
Q 14.5 -2 17.703125 9.0625 
Q 20.90625 20.125 20.90625 31.390625 
Q 20.90625 42.671875 17.703125 53.65625 
Q 14.5 64.65625 8.015625 75.875 
z
" id="DejaVuSans-41"/>
     <path d="M 54.890625 33.015625 
L 54.890625 0 
L 45.90625 0 
L 45.90625 32.71875 
Q 45.90625 40.484375 42.875 44.328125 
Q 39.84375 48.1875 33.796875 48.1875 
Q 26.515625 48.1875 22.3125 43.546875 
Q 18.109375 38.921875 18.109375 30.90625 
L 18.109375 0 
L 9.078125 0 
L 9.078125 75.984375 
L 18.109375 75.984375 
L 18.109375 46.1875 
Q 21.34375 51.125 25.703125 53.5625 
Q 30.078125 56 35.796875 56 
Q 45.21875 56 50.046875 50.171875 
Q 54.890625 44.34375 54.890625 33.015625 
z
" id="DejaVuSans-104"/>
     <path d="M 18.109375 8.203125 
L 18.109375 -20.796875 
L 9.078125 -20.796875 
L 9.078125 54.6875 
L 18.109375 54.6875 
L 18.109375 46.390625 
Q 20.953125 51.265625 25.265625 53.625 
Q 29.59375 56 35.59375 56 
Q 45.5625 56 51.78125 48.09375 
Q 58.015625 40.1875 58.015625 27.296875 
Q 58.015625 14.40625 51.78125 6.484375 
Q 45.5625 -1.421875 35.59375 -1.421875 
Q 29.59375 -1.421875 25.265625 0.953125 
Q 20.953125 3.328125 18.109375 8.203125 
z
M 48.6875 27.296875 
Q 48.6875 37.203125 44.609375 42.84375 
Q 40.53125 48.484375 33.40625 48.484375 
Q 26.265625 48.484375 22.1875 42.84375 
Q 18.109375 37.203125 18.109375 27.296875 
Q 18.109375 17.390625 22.1875 11.75 
Q 26.265625 6.109375 33.40625 6.109375 
Q 40.53125 6.109375 44.609375 11.75 
Q 48.6875 17.390625 48.6875 27.296875 
z
" id="DejaVuSans-112"/>
     <path d="M 37.109375 75.984375 
L 37.109375 68.5 
L 28.515625 68.5 
Q 23.6875 68.5 21.796875 66.546875 
Q 19.921875 64.59375 19.921875 59.515625 
L 19.921875 54.6875 
L 34.71875 54.6875 
L 34.71875 47.703125 
L 19.921875 47.703125 
L 19.921875 0 
L 10.890625 0 
L 10.890625 47.703125 
L 2.296875 47.703125 
L 2.296875 54.6875 
L 10.890625 54.6875 
L 10.890625 58.5 
Q 10.890625 67.625 15.140625 71.796875 
Q 19.390625 75.984375 28.609375 75.984375 
z
" id="DejaVuSans-102"/>
     <path d="M 4.203125 54.6875 
L 13.1875 54.6875 
L 24.421875 12.015625 
L 35.59375 54.6875 
L 46.1875 54.6875 
L 57.421875 12.015625 
L 68.609375 54.6875 
L 77.59375 54.6875 
L 63.28125 0 
L 52.6875 0 
L 40.921875 44.828125 
L 29.109375 0 
L 18.5 0 
z
" id="DejaVuSans-119"/>
     <path d="M 48.6875 27.296875 
Q 48.6875 37.203125 44.609375 42.84375 
Q 40.53125 48.484375 33.40625 48.484375 
Q 26.265625 48.484375 22.1875 42.84375 
Q 18.109375 37.203125 18.109375 27.296875 
Q 18.109375 17.390625 22.1875 11.75 
Q 26.265625 6.109375 33.40625 6.109375 
Q 40.53125 6.109375 44.609375 11.75 
Q 48.6875 17.390625 48.6875 27.296875 
z
M 18.109375 46.390625 
Q 20.953125 51.265625 25.265625 53.625 
Q 29.59375 56 35.59375 56 
Q 45.5625 56 51.78125 48.09375 
Q 58.015625 40.1875 58.015625 27.296875 
Q 58.015625 14.40625 51.78125 6.484375 
Q 45.5625 -1.421875 35.59375 -1.421875 
Q 29.59375 -1.421875 25.265625 0.953125 
Q 20.953125 3.328125 18.109375 8.203125 
L 18.109375 0 
L 9.078125 0 
L 9.078125 75.984375 
L 18.109375 75.984375 
z
" id="DejaVuSans-98"/>
    </defs>
    <g style="fill:#262626;" transform="translate(37.665 44.92)scale(0.24 -0.24)">
     <use xlink:href="#DejaVuSans-68"/>
     <use x="77.001953" xlink:href="#DejaVuSans-105"/>
     <use x="104.785156" xlink:href="#DejaVuSans-115"/>
     <use x="156.884766" xlink:href="#DejaVuSans-99"/>
     <use x="211.865234" xlink:href="#DejaVuSans-111"/>
     <use x="273.046875" xlink:href="#DejaVuSans-117"/>
     <use x="336.425781" xlink:href="#DejaVuSans-110"/>
     <use x="399.804688" xlink:href="#DejaVuSans-116"/>
     <use x="439.013672" xlink:href="#DejaVuSans-101"/>
     <use x="500.537109" xlink:href="#DejaVuSans-100"/>
     <use x="564.013672" xlink:href="#DejaVuSans-32"/>
     <use x="595.800781" xlink:href="#DejaVuSans-67"/>
     <use x="665.625" xlink:href="#DejaVuSans-117"/>
     <use x="729.003906" xlink:href="#DejaVuSans-109"/>
     <use x="826.416016" xlink:href="#DejaVuSans-117"/>
     <use x="889.794922" xlink:href="#DejaVuSans-108"/>
     <use x="917.578125" xlink:href="#DejaVuSans-97"/>
     <use x="978.857422" xlink:href="#DejaVuSans-116"/>
     <use x="1018.066406" xlink:href="#DejaVuSans-105"/>
     <use x="1045.849609" xlink:href="#DejaVuSans-118"/>
     <use x="1105.029297" xlink:href="#DejaVuSans-101"/>
     <use x="1166.552734" xlink:href="#DejaVuSans-32"/>
     <use x="1198.339844" xlink:href="#DejaVuSans-71"/>
     <use x="1275.830078" xlink:href="#DejaVuSans-97"/>
     <use x="1337.109375" xlink:href="#DejaVuSans-105"/>
     <use x="1364.892578" xlink:href="#DejaVuSans-110"/>
     <use x="1428.271484" xlink:href="#DejaVuSans-32"/>
     <use x="1460.058594" xlink:href="#DejaVuSans-40"/>
     <use x="1499.072266" xlink:href="#DejaVuSans-68"/>
     <use x="1576.074219" xlink:href="#DejaVuSans-67"/>
     <use x="1645.898438" xlink:href="#DejaVuSans-71"/>
     <use x="1723.388672" xlink:href="#DejaVuSans-41"/>
     <use x="1762.402344" xlink:href="#DejaVuSans-32"/>
     <use x="1794.189453" xlink:href="#DejaVuSans-111"/>
     <use x="1855.371094" xlink:href="#DejaVuSans-110"/>
     <use x="1918.75" xlink:href="#DejaVuSans-32"/>
     <use x="1950.537109" xlink:href="#DejaVuSans-116"/>
     <use x="1989.746094" xlink:href="#DejaVuSans-104"/>
     <use x="2053.125" xlink:href="#DejaVuSans-101"/>
     <use x="2114.648438" xlink:href="#DejaVuSans-32"/>
     <use x="2146.435547" xlink:href="#DejaVuSans-116"/>
     <use x="2185.644531" xlink:href="#DejaVuSans-111"/>
     <use x="2246.826172" xlink:href="#DejaVuSans-112"/>
     <use x="2310.302734" xlink:href="#DejaVuSans-32"/>
     <use x="2342.089844" xlink:href="#DejaVuSans-53"/>
     <use x="2405.712891" xlink:href="#DejaVuSans-48"/>
     <use x="2469.335938" xlink:href="#DejaVuSans-32"/>
     <use x="2501.123047" xlink:href="#DejaVuSans-112"/>
     <use x="2564.599609" xlink:href="#DejaVuSans-114"/>
     <use x="2605.681641" xlink:href="#DejaVuSans-101"/>
     <use x="2667.205078" xlink:href="#DejaVuSans-100"/>
     <use x="2730.681641" xlink:href="#DejaVuSans-105"/>
     <use x="2758.464844" xlink:href="#DejaVuSans-99"/>
     <use x="2813.445312" xlink:href="#DejaVuSans-116"/>
     <use x="2852.654297" xlink:href="#DejaVuSans-105"/>
     <use x="2880.4375" xlink:href="#DejaVuSans-111"/>
     <use x="2941.619141" xlink:href="#DejaVuSans-110"/>
     <use x="3004.998047" xlink:href="#DejaVuSans-115"/>
     <use x="3057.097656" xlink:href="#DejaVuSans-32"/>
     <use x="3088.884766" xlink:href="#DejaVuSans-111"/>
     <use x="3150.066406" xlink:href="#DejaVuSans-102"/>
     <use x="3185.271484" xlink:href="#DejaVuSans-32"/>
     <use x="3217.058594" xlink:href="#DejaVuSans-110"/>
     <use x="3280.4375" xlink:href="#DejaVuSans-101"/>
     <use x="3341.960938" xlink:href="#DejaVuSans-119"/>
     <use x="3423.748047" xlink:href="#DejaVuSans-32"/>
     <use x="3455.535156" xlink:href="#DejaVuSans-99"/>
     <use x="3510.515625" xlink:href="#DejaVuSans-108"/>
     <use x="3538.298828" xlink:href="#DejaVuSans-111"/>
     <use x="3599.480469" xlink:href="#DejaVuSans-110"/>
     <use x="3662.859375" xlink:href="#DejaVuSans-97"/>
     <use x="3724.138672" xlink:href="#DejaVuSans-108"/>
     <use x="3751.921875" xlink:href="#DejaVuSans-32"/>
     <use x="3783.708984" xlink:href="#DejaVuSans-118"/>
     <use x="3842.888672" xlink:href="#DejaVuSans-97"/>
     <use x="3904.167969" xlink:href="#DejaVuSans-114"/>
     <use x="3945.28125" xlink:href="#DejaVuSans-105"/>
     <use x="3973.064453" xlink:href="#DejaVuSans-97"/>
     <use x="4034.34375" xlink:href="#DejaVuSans-110"/>
     <use x="4097.722656" xlink:href="#DejaVuSans-116"/>
     <use x="4136.931641" xlink:href="#DejaVuSans-115"/>
     <use x="4189.03125" xlink:href="#DejaVuSans-32"/>
     <use x="4220.818359" xlink:href="#DejaVuSans-102"/>
     <use x="4256.023438" xlink:href="#DejaVuSans-114"/>
     <use x="4297.105469" xlink:href="#DejaVuSans-111"/>
     <use x="4358.287109" xlink:href="#DejaVuSans-109"/>
     <use x="4455.699219" xlink:href="#DejaVuSans-32"/>
     <use x="4487.486328" xlink:href="#DejaVuSans-50"/>
     <use x="4551.109375" xlink:href="#DejaVuSans-48"/>
     <use x="4614.732422" xlink:href="#DejaVuSans-50"/>
     <use x="4678.355469" xlink:href="#DejaVuSans-48"/>
     <use x="4741.978516" xlink:href="#DejaVuSans-32"/>
     <use x="4773.765625" xlink:href="#DejaVuSans-115"/>
     <use x="4825.865234" xlink:href="#DejaVuSans-117"/>
     <use x="4889.244141" xlink:href="#DejaVuSans-98"/>
     <use x="4952.720703" xlink:href="#DejaVuSans-99"/>
     <use x="5007.701172" xlink:href="#DejaVuSans-108"/>
     <use x="5035.484375" xlink:href="#DejaVuSans-111"/>
     <use x="5096.666016" xlink:href="#DejaVuSans-110"/>
     <use x="5160.044922" xlink:href="#DejaVuSans-97"/>
     <use x="5221.324219" xlink:href="#DejaVuSans-108"/>
     <use x="5249.107422" xlink:href="#DejaVuSans-32"/>
     <use x="5280.894531" xlink:href="#DejaVuSans-118"/>
     <use x="5340.074219" xlink:href="#DejaVuSans-97"/>
     <use x="5401.353516" xlink:href="#DejaVuSans-114"/>
     <use x="5442.466797" xlink:href="#DejaVuSans-105"/>
     <use x="5470.25" xlink:href="#DejaVuSans-97"/>
     <use x="5531.529297" xlink:href="#DejaVuSans-110"/>
     <use x="5594.908203" xlink:href="#DejaVuSans-116"/>
     <use x="5634.117188" xlink:href="#DejaVuSans-115"/>
    </g>
   </g>
   <g id="legend_1">
    <g id="patch_3">
     <path d="M 165.695 197.6875 
L 558.993125 197.6875 
Q 563.393125 197.6875 563.393125 193.2875 
L 563.393125 66.32 
Q 563.393125 61.92 558.993125 61.92 
L 165.695 61.92 
Q 161.295 61.92 161.295 66.32 
L 161.295 193.2875 
Q 161.295 197.6875 165.695 197.6875 
z
" style="fill:#ffffff;opacity:0.8;stroke:#cccccc;stroke-linejoin:miter;stroke-width:2;"/>
    </g>
    <g id="line2d_19">
     <path d="M 170.095 79.736562 
L 214.095 79.736562 
" style="fill:none;stroke:#949494;stroke-linecap:round;stroke-width:3;"/>
    </g>
    <g id="line2d_20">
     <g>
      <use style="fill:#949494;stroke:#ffffff;stroke-linejoin:miter;stroke-width:0.75;" x="192.095" xlink:href="#mcc33c71fb4" y="79.736562"/>
     </g>
    </g>
    <g id="text_18">
     <!-- subclonal AF -->
     <g style="fill:#262626;" transform="translate(231.695 87.436562)scale(0.22 -0.22)">
      <use xlink:href="#DejaVuSans-115"/>
      <use x="52.099609" xlink:href="#DejaVuSans-117"/>
      <use x="115.478516" xlink:href="#DejaVuSans-98"/>
      <use x="178.955078" xlink:href="#DejaVuSans-99"/>
      <use x="233.935547" xlink:href="#DejaVuSans-108"/>
      <use x="261.71875" xlink:href="#DejaVuSans-111"/>
      <use x="322.900391" xlink:href="#DejaVuSans-110"/>
      <use x="386.279297" xlink:href="#DejaVuSans-97"/>
      <use x="447.558594" xlink:href="#DejaVuSans-108"/>
      <use x="475.341797" xlink:href="#DejaVuSans-32"/>
      <use x="507.128906" xlink:href="#DejaVuSans-65"/>
      <use x="575.537109" xlink:href="#DejaVuSans-70"/>
     </g>
    </g>
    <g id="line2d_21">
     <path d="M 170.095 112.028437 
L 214.095 112.028437 
" style="fill:none;stroke:#949494;stroke-linecap:round;stroke-width:3;"/>
    </g>
    <g id="line2d_22">
     <g>
      <use style="fill:#949494;stroke:#ffffff;stroke-linejoin:miter;stroke-width:0.75;" x="192.095" xlink:href="#m131837e9cb" y="112.028437"/>
     </g>
    </g>
    <g id="text_19">
     <!-- subclonal AF + conservation -->
     <defs>
      <path d="M 46 62.703125 
L 46 35.5 
L 73.1875 35.5 
L 73.1875 27.203125 
L 46 27.203125 
L 46 0 
L 37.796875 0 
L 37.796875 27.203125 
L 10.59375 27.203125 
L 10.59375 35.5 
L 37.796875 35.5 
L 37.796875 62.703125 
z
" id="DejaVuSans-43"/>
     </defs>
     <g style="fill:#262626;" transform="translate(231.695 119.728437)scale(0.22 -0.22)">
      <use xlink:href="#DejaVuSans-115"/>
      <use x="52.099609" xlink:href="#DejaVuSans-117"/>
      <use x="115.478516" xlink:href="#DejaVuSans-98"/>
      <use x="178.955078" xlink:href="#DejaVuSans-99"/>
      <use x="233.935547" xlink:href="#DejaVuSans-108"/>
      <use x="261.71875" xlink:href="#DejaVuSans-111"/>
      <use x="322.900391" xlink:href="#DejaVuSans-110"/>
      <use x="386.279297" xlink:href="#DejaVuSans-97"/>
      <use x="447.558594" xlink:href="#DejaVuSans-108"/>
      <use x="475.341797" xlink:href="#DejaVuSans-32"/>
      <use x="507.128906" xlink:href="#DejaVuSans-65"/>
      <use x="575.537109" xlink:href="#DejaVuSans-70"/>
      <use x="633.056641" xlink:href="#DejaVuSans-32"/>
      <use x="664.84375" xlink:href="#DejaVuSans-43"/>
      <use x="748.632812" xlink:href="#DejaVuSans-32"/>
      <use x="780.419922" xlink:href="#DejaVuSans-99"/>
      <use x="835.400391" xlink:href="#DejaVuSans-111"/>
      <use x="896.582031" xlink:href="#DejaVuSans-110"/>
      <use x="959.960938" xlink:href="#DejaVuSans-115"/>
      <use x="1012.060547" xlink:href="#DejaVuSans-101"/>
      <use x="1073.583984" xlink:href="#DejaVuSans-114"/>
      <use x="1114.697266" xlink:href="#DejaVuSans-118"/>
      <use x="1173.876953" xlink:href="#DejaVuSans-97"/>
      <use x="1235.15625" xlink:href="#DejaVuSans-116"/>
      <use x="1274.365234" xlink:href="#DejaVuSans-105"/>
      <use x="1302.148438" xlink:href="#DejaVuSans-111"/>
      <use x="1363.330078" xlink:href="#DejaVuSans-110"/>
     </g>
    </g>
    <g id="line2d_23">
     <path d="M 170.095 144.320312 
L 214.095 144.320312 
" style="fill:none;stroke:#949494;stroke-linecap:round;stroke-width:3;"/>
    </g>
    <g id="line2d_24">
     <g>
      <use style="fill:#949494;stroke:#ffffff;stroke-width:0.75;" x="192.095" xlink:href="#m81148be8e6" y="144.320312"/>
     </g>
    </g>
    <g id="text_20">
     <!-- random sort median (n=100) -->
     <g style="fill:#262626;" transform="translate(231.695 152.020312)scale(0.22 -0.22)">
      <use xlink:href="#DejaVuSans-114"/>
      <use x="41.113281" xlink:href="#DejaVuSans-97"/>
      <use x="102.392578" xlink:href="#DejaVuSans-110"/>
      <use x="165.771484" xlink:href="#DejaVuSans-100"/>
      <use x="229.248047" xlink:href="#DejaVuSans-111"/>
      <use x="290.429688" xlink:href="#DejaVuSans-109"/>
      <use x="387.841797" xlink:href="#DejaVuSans-32"/>
      <use x="419.628906" xlink:href="#DejaVuSans-115"/>
      <use x="471.728516" xlink:href="#DejaVuSans-111"/>
      <use x="532.910156" xlink:href="#DejaVuSans-114"/>
      <use x="574.023438" xlink:href="#DejaVuSans-116"/>
      <use x="613.232422" xlink:href="#DejaVuSans-32"/>
      <use x="645.019531" xlink:href="#DejaVuSans-109"/>
      <use x="742.431641" xlink:href="#DejaVuSans-101"/>
      <use x="803.955078" xlink:href="#DejaVuSans-100"/>
      <use x="867.431641" xlink:href="#DejaVuSans-105"/>
      <use x="895.214844" xlink:href="#DejaVuSans-97"/>
      <use x="956.494141" xlink:href="#DejaVuSans-110"/>
      <use x="1019.873047" xlink:href="#DejaVuSans-32"/>
      <use x="1051.660156" xlink:href="#DejaVuSans-40"/>
      <use x="1090.673828" xlink:href="#DejaVuSans-110"/>
      <use x="1154.052734" xlink:href="#DejaVuSans-61"/>
      <use x="1237.841797" xlink:href="#DejaVuSans-49"/>
      <use x="1301.464844" xlink:href="#DejaVuSans-48"/>
      <use x="1365.087891" xlink:href="#DejaVuSans-48"/>
      <use x="1428.710938" xlink:href="#DejaVuSans-41"/>
     </g>
    </g>
    <g id="line2d_25">
     <path d="M 170.095 176.612188 
L 214.095 176.612188 
" style="fill:none;stroke:#949494;stroke-linecap:round;stroke-width:3;"/>
    </g>
    <g id="line2d_26">
     <g>
      <use style="fill:#949494;stroke:#ffffff;stroke-width:0.75;" x="192.095" xlink:href="#m81148be8e6" y="176.612188"/>
     </g>
    </g>
    <g id="text_21">
     <!-- random sort max (n=100) -->
     <defs>
      <path d="M 54.890625 54.6875 
L 35.109375 28.078125 
L 55.90625 0 
L 45.3125 0 
L 29.390625 21.484375 
L 13.484375 0 
L 2.875 0 
L 24.125 28.609375 
L 4.6875 54.6875 
L 15.28125 54.6875 
L 29.78125 35.203125 
L 44.28125 54.6875 
z
" id="DejaVuSans-120"/>
     </defs>
     <g style="fill:#262626;" transform="translate(231.695 184.312187)scale(0.22 -0.22)">
      <use xlink:href="#DejaVuSans-114"/>
      <use x="41.113281" xlink:href="#DejaVuSans-97"/>
      <use x="102.392578" xlink:href="#DejaVuSans-110"/>
      <use x="165.771484" xlink:href="#DejaVuSans-100"/>
      <use x="229.248047" xlink:href="#DejaVuSans-111"/>
      <use x="290.429688" xlink:href="#DejaVuSans-109"/>
      <use x="387.841797" xlink:href="#DejaVuSans-32"/>
      <use x="419.628906" xlink:href="#DejaVuSans-115"/>
      <use x="471.728516" xlink:href="#DejaVuSans-111"/>
      <use x="532.910156" xlink:href="#DejaVuSans-114"/>
      <use x="574.023438" xlink:href="#DejaVuSans-116"/>
      <use x="613.232422" xlink:href="#DejaVuSans-32"/>
      <use x="645.019531" xlink:href="#DejaVuSans-109"/>
      <use x="742.431641" xlink:href="#DejaVuSans-97"/>
      <use x="803.710938" xlink:href="#DejaVuSans-120"/>
      <use x="862.890625" xlink:href="#DejaVuSans-32"/>
      <use x="894.677734" xlink:href="#DejaVuSans-40"/>
      <use x="933.691406" xlink:href="#DejaVuSans-110"/>
      <use x="997.070312" xlink:href="#DejaVuSans-61"/>
      <use x="1080.859375" xlink:href="#DejaVuSans-49"/>
      <use x="1144.482422" xlink:href="#DejaVuSans-48"/>
      <use x="1208.105469" xlink:href="#DejaVuSans-48"/>
      <use x="1271.728516" xlink:href="#DejaVuSans-41"/>
     </g>
    </g>
   </g>
  </g>
 </g>
 <defs>
  <clipPath id="p21791845cf">
   <rect height="435.66" width="1139.41" x="150.295" y="50.92"/>
  </clipPath>
 </defs>
</svg>
